<?xml version='1.0' encoding='UTF-8' standalone='no'?>
<svg viewBox="0 0 976 449" xmlns="http://www.w3.org/2000/svg" height="449pt" xmlns:xlink="http://www.w3.org/1999/xlink" width="976pt">
 <title>Figure 1</title>
 <desc>
Creator: GL2PS 1.4.2, (C) 1999-2020 C. Geuzaine
For: Octave
CreationDate: Tue Jan 31 12:51:09 2023
</desc>
 <defs/>
 <polygon fill="#ffffff" points="0,0 976,0 976,449 0,449"/>
 <g>
  <polygon shape-rendering="crispEdges" fill="#ffffff" points="0,449 976,449 976,0 0,0"/>
  <clipPath id="cp00976449">
   <polygon points="0,449 976,449 976,0 0,0"/>
  </clipPath>
  <g clip-path="url(#cp00976449)">
   <polygon shape-rendering="crispEdges" fill="#ffffff" points="126.929,388.033 883.62,388.033 883.62,33.6774 126.929,33.6774"/>
   <polyline stroke-dasharray="16,0" stroke-linecap="butt" stroke-linejoin="miter" stroke="#262626" fill="none" points="126.929,388.033 126.929,33.6774" stroke-opacity="0.15" stroke-width="0.5"/>
   <polyline stroke-dasharray="16,0" stroke-linecap="butt" stroke-linejoin="miter" stroke="#262626" fill="none" points="295.083,388.033 295.083,33.6774" stroke-opacity="0.15" stroke-width="0.5"/>
   <polyline stroke-dasharray="16,0" stroke-linecap="butt" stroke-linejoin="miter" stroke="#262626" fill="none" points="463.236,388.033 463.236,33.6774" stroke-opacity="0.15" stroke-width="0.5"/>
   <polyline stroke-dasharray="16,0" stroke-linecap="butt" stroke-linejoin="miter" stroke="#262626" fill="none" points="631.39,388.033 631.39,33.6774" stroke-opacity="0.15" stroke-width="0.5"/>
   <polyline stroke-dasharray="16,0" stroke-linecap="butt" stroke-linejoin="miter" stroke="#262626" fill="none" points="799.544,388.033 799.544,33.6774" stroke-opacity="0.15" stroke-width="0.5"/>
   <polyline stroke-linecap="butt" stroke-linejoin="miter" stroke="#262626" fill="none" points="126.929,388.033 126.929,380.459" stroke-width="0.5"/>
   <polyline stroke-linecap="butt" stroke-linejoin="miter" stroke="#262626" fill="none" points="295.083,388.033 295.083,380.459" stroke-width="0.5"/>
   <polyline stroke-linecap="butt" stroke-linejoin="miter" stroke="#262626" fill="none" points="463.236,388.033 463.236,380.459" stroke-width="0.5"/>
   <polyline stroke-linecap="butt" stroke-linejoin="miter" stroke="#262626" fill="none" points="631.39,388.033 631.39,380.459" stroke-width="0.5"/>
   <polyline stroke-linecap="butt" stroke-linejoin="miter" stroke="#262626" fill="none" points="799.544,388.033 799.544,380.459" stroke-width="0.5"/>
   <g xml:space="preserve" font-style="normal" font-weight="normal" font-size="24" transform="translate(120.929,423.051) rotate(-0,6,-17)" font-family="'Times New Roman'">
    <text y="-0" x="0 " fill="rgb(38,38,38)">0</text>
   </g>
   <g xml:space="preserve" font-style="normal" font-weight="normal" font-size="24" transform="translate(265.083,423.051) rotate(-0,30,-17)" font-family="'Times New Roman'">
    <text y="-0" x="0 12 24 36 48 " fill="rgb(38,38,38)">20000</text>
   </g>
   <g xml:space="preserve" font-style="normal" font-weight="normal" font-size="24" transform="translate(433.236,423.051) rotate(-0,30,-17)" font-family="'Times New Roman'">
    <text y="-0" x="0 12 24 36 48 " fill="rgb(38,38,38)">40000</text>
   </g>
   <g xml:space="preserve" font-style="normal" font-weight="normal" font-size="24" transform="translate(601.39,423.051) rotate(-0,30,-17)" font-family="'Times New Roman'">
    <text y="-0" x="0 12 24 36 48 " fill="rgb(38,38,38)">60000</text>
   </g>
   <g xml:space="preserve" font-style="normal" font-weight="normal" font-size="24" transform="translate(769.544,423.051) rotate(-0,30,-17)" font-family="'Times New Roman'">
    <text y="-0" x="0 12 24 36 48 " fill="rgb(38,38,38)">80000</text>
   </g>
   <polyline stroke-dasharray="16,0" stroke-linecap="butt" stroke-linejoin="miter" stroke="#262626" fill="none" points="126.929,388.033 883.62,388.033" stroke-opacity="0.15" stroke-width="0.5"/>
   <polyline stroke-dasharray="16,0" stroke-linecap="butt" stroke-linejoin="miter" stroke="#262626" fill="none" points="126.929,328.974 883.62,328.974" stroke-opacity="0.15" stroke-width="0.5"/>
   <polyline stroke-dasharray="16,0" stroke-linecap="butt" stroke-linejoin="miter" stroke="#262626" fill="none" points="126.929,269.915 883.62,269.915" stroke-opacity="0.15" stroke-width="0.5"/>
   <polyline stroke-dasharray="16,0" stroke-linecap="butt" stroke-linejoin="miter" stroke="#262626" fill="none" points="126.929,210.855 883.62,210.855" stroke-opacity="0.15" stroke-width="0.5"/>
   <polyline stroke-dasharray="16,0" stroke-linecap="butt" stroke-linejoin="miter" stroke="#262626" fill="none" points="126.929,151.796 883.62,151.796" stroke-opacity="0.15" stroke-width="0.5"/>
   <polyline stroke-dasharray="16,0" stroke-linecap="butt" stroke-linejoin="miter" stroke="#262626" fill="none" points="126.929,92.7367 883.62,92.7367" stroke-opacity="0.15" stroke-width="0.5"/>
   <polyline stroke-dasharray="16,0" stroke-linecap="butt" stroke-linejoin="miter" stroke="#262626" fill="none" points="126.929,33.6774 883.62,33.6774" stroke-opacity="0.15" stroke-width="0.5"/>
   <polyline stroke-linecap="butt" stroke-linejoin="miter" stroke="#262626" fill="none" points="126.929,388.033 134.493,388.033" stroke-width="0.5"/>
   <polyline stroke-linecap="butt" stroke-linejoin="miter" stroke="#262626" fill="none" points="126.929,328.974 134.493,328.974" stroke-width="0.5"/>
   <polyline stroke-linecap="butt" stroke-linejoin="miter" stroke="#262626" fill="none" points="126.929,269.915 134.493,269.915" stroke-width="0.5"/>
   <polyline stroke-linecap="butt" stroke-linejoin="miter" stroke="#262626" fill="none" points="126.929,210.855 134.493,210.855" stroke-width="0.5"/>
   <polyline stroke-linecap="butt" stroke-linejoin="miter" stroke="#262626" fill="none" points="126.929,151.796 134.493,151.796" stroke-width="0.5"/>
   <polyline stroke-linecap="butt" stroke-linejoin="miter" stroke="#262626" fill="none" points="126.929,92.7367 134.493,92.7367" stroke-width="0.5"/>
   <polyline stroke-linecap="butt" stroke-linejoin="miter" stroke="#262626" fill="none" points="126.929,33.6774 134.493,33.6774" stroke-width="0.5"/>
   <g xml:space="preserve" font-style="normal" font-weight="normal" font-size="24" transform="translate(64.9338,396.533) rotate(-0,50,-8.5)" font-family="'Times New Roman'">
    <text y="-0" x="0 8 20 26 38 " fill="rgb(38,38,38)">-0.06</text>
   </g>
   <g xml:space="preserve" font-style="normal" font-weight="normal" font-size="24" transform="translate(64.9338,337.474) rotate(-0,50,-8.5)" font-family="'Times New Roman'">
    <text y="-0" x="0 8 20 26 38 " fill="rgb(38,38,38)">-0.04</text>
   </g>
   <g xml:space="preserve" font-style="normal" font-weight="normal" font-size="24" transform="translate(64.9338,278.415) rotate(-0,50,-8.5)" font-family="'Times New Roman'">
    <text y="-0" x="0 8 20 26 38 " fill="rgb(38,38,38)">-0.02</text>
   </g>
   <g xml:space="preserve" font-style="normal" font-weight="normal" font-size="24" transform="translate(102.934,219.355) rotate(-0,12,-8.5)" font-family="'Times New Roman'">
    <text y="-0" x="0 " fill="rgb(38,38,38)">0</text>
   </g>
   <g xml:space="preserve" font-style="normal" font-weight="normal" font-size="24" transform="translate(72.9338,160.296) rotate(-0,42,-8.5)" font-family="'Times New Roman'">
    <text y="-0" x="0 12 18 30 " fill="rgb(38,38,38)">0.02</text>
   </g>
   <g xml:space="preserve" font-style="normal" font-weight="normal" font-size="24" transform="translate(72.9338,101.237) rotate(-0,42,-8.5)" font-family="'Times New Roman'">
    <text y="-0" x="0 12 18 30 " fill="rgb(38,38,38)">0.04</text>
   </g>
   <g xml:space="preserve" font-style="normal" font-weight="normal" font-size="24" transform="translate(72.9338,42.1774) rotate(-0,42,-8.5)" font-family="'Times New Roman'">
    <text y="-0" x="0 12 18 30 " fill="rgb(38,38,38)">0.06</text>
   </g>
   <polyline stroke-dasharray="16,0" stroke-linecap="square" stroke-linejoin="miter" stroke="#262626" fill="none" points="126.929,388.033 883.62,388.033" stroke-width="0.5"/>
   <polyline stroke-dasharray="16,0" stroke-linecap="square" stroke-linejoin="miter" stroke="#262626" fill="none" points="126.929,388.033 126.929,33.6774" stroke-width="0.5"/>
   <g xml:space="preserve" font-style="normal" font-weight="normal" font-size="26.4" transform="translate(488.775,449.051) rotate(-0,16.5,-21)" font-family="'Times New Roman'">
    <text y="-4" x="0 7 14 21 " fill="rgb(38,38,38)">t, c</text>
   </g>
   <g xml:space="preserve" font-style="normal" font-weight="normal" font-size="26.4" transform="translate(25.9338,210.855) rotate(-90,34,0)" font-family="'Times New Roman'">
    <text y="-5" x="0 13 22 29 38 45 52 " fill="rgb(38,38,38)">x(t), м</text>
   </g>
   <polyline stroke-linecap="butt" stroke-linejoin="round" stroke="#000000" fill="none" points="126.929,207.902 126.934,207.902 126.942,207.902 126.953,207.902 126.97,207.902 126.996,207.902 127.035,207.902 127.093,207.903 127.181,207.905 127.312,207.916 127.509,207.956 127.804,208.101 128.246,208.603 128.91,210.269 129.75,214.443 130.591,221.258 131.432,230.662 132.273,242.195 133.113,255.063 133.954,268.259 134.795,280.704 135.636,291.388 136.477,299.492 137.317,304.469 138.158,306.091 138.999,304.442 139.611,301.128 139.611,301.128 139.613,301.117 139.616,301.099 139.62,301.073 139.627,301.033 139.636,300.973 139.651,300.884 139.673,300.748 139.706,300.544 139.755,300.234 139.83,299.762 139.941,299.036 140.108,297.911 140.358,296.137 140.733,293.29 141.297,288.616 142.137,280.823 142.978,272.234 143.819,263.098 144.66,253.699 145.501,244.327 146.341,235.257 147.182,226.73 148.023,218.933 148.864,211.992 149.704,205.964 150.545,200.842 151.386,196.558 151.526,195.964 151.526,195.964 151.528,195.954 151.532,195.938 151.537,195.913 151.545,195.877 151.557,195.823 151.576,195.742 151.603,195.622 151.644,195.444 151.705,195.181 151.796,194.799 151.934,194.255 152.141,193.515 152.45,192.605 152.915,191.785 153.612,192.026 154.453,195.006 155.293,201.009 156.134,209.704 156.975,220.37 157.816,231.993 158.657,243.406 159.497,253.437 160.338,261.05 161.179,265.462 162.02,266.222 162.86,263.235 163.701,256.758 164.231,250.833 164.231,250.833 164.233,250.809 164.236,250.774 164.24,250.722 164.247,250.643 164.258,250.524 164.273,250.345 164.296,250.076 164.331,249.67 164.383,249.055 164.461,248.12 164.578,246.69 164.753,244.485 165.017,241.053 165.412,235.657 166.004,227.119 166.845,214.473 167.686,201.778 168.527,189.651 169.368,178.649 170.208,169.215 171.049,161.655 171.89,156.123 172.731,152.611 173.571,150.969 174.412,150.924 175.253,152.111 176.094,154.115 176.145,154.262 176.145,154.262 176.148,154.268 176.151,154.277 176.156,154.29 176.163,154.31 176.174,154.339 176.19,154.384 176.214,154.453 176.251,154.557 176.305,154.718 176.387,154.971 176.51,155.376 176.695,156.045 176.972,157.203 177.387,159.327 178.01,163.484 178.851,171.062 179.692,180.79 180.533,192.212 181.373,204.578 182.214,216.942 183.055,228.288 183.896,237.665 184.736,244.294 185.577,247.66 186.418,247.558 187.259,244.099 188.1,237.69 188.84,230.018 188.84,230.018 188.843,229.995 188.846,229.96 188.85,229.908 188.857,229.831 188.868,229.714 188.883,229.538 188.907,229.274 188.942,228.876 188.995,228.275 189.074,227.364 189.194,225.98 189.372,223.866 189.64,220.62 190.042,215.628 190.644,208.002 191.485,197.501 192.326,187.72 193.167,179.193 194.007,172.326 194.848,167.374 195.689,164.426 196.53,163.411 197.371,164.113 198.211,166.203 199.052,169.27 199.893,172.867 200.734,176.549 200.755,176.635 200.755,176.635 200.758,176.646 200.761,176.662 200.767,176.686 200.775,176.722 200.788,176.776 200.807,176.857 200.836,176.979 200.879,177.162 200.943,177.438 201.039,177.856 201.184,178.491 201.401,179.47 201.726,181.012 202.215,183.54 202.947,187.942 203.788,194.029 204.628,201.198 205.469,209.214 206.31,217.657 207.151,225.979 207.992,233.579 208.832,239.877 209.673,244.384 210.514,246.763 211.355,246.858 212.195,244.712 213.036,240.56 213.443,237.777 213.443,237.777 213.445,237.763 213.448,237.742 213.452,237.71 213.46,237.662 213.47,237.59 213.486,237.482 213.51,237.32 213.545,237.074 213.599,236.703 213.679,236.14 213.799,235.28 213.98,233.958 214.251,231.914 214.657,228.729 215.266,223.774 216.107,216.832 216.947,210.117 217.788,203.973 218.629,198.682 219.47,194.441 220.311,191.352 221.151,189.424 221.992,188.573 222.833,188.64 223.674,189.407 224.514,190.625 225.355,192.033 225.357,192.035 225.357,192.035 225.359,192.04 225.363,192.047 225.369,192.057 225.378,192.072 225.392,192.095 225.412,192.129 225.443,192.181 225.488,192.26 225.557,192.38 225.66,192.565 225.814,192.853 226.045,193.32 226.392,194.116 226.912,195.589 227.693,198.583 228.534,203.006 229.374,208.657 230.215,215.307 231.056,222.546 231.897,229.837 232.737,236.587 233.578,242.221 234.419,246.251 235.26,248.328 236.101,248.283 236.941,246.137 237.782,242.096 238.045,240.353 238.045,240.353 238.047,240.34 238.051,240.32 238.055,240.29 238.062,240.245 238.073,240.178 238.089,240.077 238.113,239.924 238.149,239.693 238.203,239.344 238.284,238.814 238.406,238.004 238.588,236.756 238.862,234.818 239.273,231.785 239.888,227.027 240.729,220.352 241.57,213.787 242.411,207.655 243.251,202.227 244.092,197.705 244.933,194.207 245.774,191.768 246.614,190.338 247.455,189.795 248.296,189.96 249.137,190.617 249.959,191.516 249.959,191.516 249.961,191.519 249.965,191.523 249.971,191.53 249.98,191.54 249.993,191.556 250.013,191.579 250.042,191.614 250.087,191.668 250.153,191.75 250.253,191.879 250.403,192.086 250.628,192.432 250.965,193.047 251.471,194.237 252.229,196.745 253.07,200.656 253.911,205.727 254.751,211.734 255.592,218.288 256.433,224.888 257.274,230.981 258.114,236.035 258.955,239.599 259.796,241.354 260.637,241.145 261.478,238.998 262.318,235.111 262.649,233.036 262.649,233.036 262.651,233.023 262.654,233.004 262.659,232.974 262.666,232.93 262.677,232.865 262.693,232.765 262.717,232.616 262.754,232.39 262.808,232.049 262.89,231.531 263.013,230.739 263.198,229.52 263.474,227.631 263.889,224.681 264.512,220.074 265.352,213.732 266.193,207.565 267.034,201.887 267.875,196.959 268.715,192.966 269.556,190.015 270.397,188.122 271.238,187.224 272.079,187.188 272.919,187.827 273.76,188.918 274.562,190.169 274.562,190.169 274.565,190.174 274.569,190.18 274.575,190.189 274.583,190.203 274.596,190.224 274.616,190.256 274.646,190.304 274.69,190.377 274.756,190.488 274.856,190.659 275.005,190.928 275.229,191.363 275.565,192.099 276.069,193.433 276.825,196.044 277.666,199.891 278.507,204.687 279.348,210.224 280.189,216.157 281.029,222.049 281.87,227.426 282.711,231.834 283.552,234.894 284.392,236.344 285.233,236.069 286.074,234.105 286.915,230.641 287.251,228.783 287.251,228.783 287.253,228.772 287.256,228.754 287.261,228.728 287.268,228.689 287.279,228.63 287.295,228.542 287.32,228.409 287.357,228.207 287.412,227.903 287.495,227.441 287.619,226.736 287.806,225.652 288.085,223.973 288.505,221.36 289.134,217.3 289.974,211.82 290.815,206.557 291.656,201.785 292.497,197.726 293.338,194.531 294.178,192.277 295.019,190.964 295.86,190.518 296.701,190.805 297.541,191.647 298.382,192.84 299.164,194.077 299.164,194.077 299.167,194.082 299.171,194.088 299.177,194.098 299.186,194.112 299.2,194.134 299.221,194.167 299.252,194.217 299.298,194.292 299.368,194.406 299.472,194.581 299.629,194.853 299.865,195.287 300.218,196.011 300.747,197.296 301.542,199.769 302.382,203.173 303.223,207.343 304.064,212.101 304.905,217.154 305.746,222.135 306.586,226.646 307.427,230.308 308.268,232.807 309.109,233.927 309.949,233.574 310.79,231.788 311.631,228.734 311.851,227.673 311.851,227.673 311.854,227.663 311.857,227.648 311.862,227.626 311.869,227.592 311.88,227.542 311.897,227.466 311.922,227.352 311.959,227.18 312.015,226.92 312.098,226.524 312.224,225.919 312.412,224.989 312.695,223.548 313.119,221.301 313.755,217.805 314.595,213.128 315.436,208.627 316.277,204.535 317.118,201.04 317.959,198.273 318.799,196.298 319.64,195.116 320.481,194.666 321.322,194.835 322.162,195.474 323.003,196.409 323.765,197.363 323.765,197.363 323.767,197.366 323.772,197.371 323.778,197.379 323.787,197.391 323.802,197.409 323.823,197.436 323.855,197.477 323.903,197.539 323.976,197.632 324.084,197.777 324.247,198.002 324.49,198.364 324.856,198.975 325.405,200.082 326.228,202.265 327.068,205.206 327.909,208.823 328.75,212.954 329.591,217.337 330.431,221.646 331.272,225.529 332.113,228.655 332.954,230.746 333.795,231.617 334.635,231.189 335.476,229.5 336.317,226.702 336.452,226.116 336.452,226.116 336.454,226.107 336.457,226.094 336.462,226.074 336.469,226.044 336.481,225.999 336.497,225.931 336.522,225.829 336.56,225.674 336.616,225.44 336.701,225.085 336.828,224.542 337.018,223.706 337.304,222.41 337.733,220.387 338.375,217.236 339.216,213.062 340.057,209.042 340.898,205.382 341.738,202.249 342.579,199.762 343.42,197.979 344.261,196.9 345.101,196.473 345.942,196.598 346.783,197.143 347.624,197.954 348.365,198.764 348.365,198.764 348.367,198.767 348.372,198.772 348.378,198.779 348.388,198.79 348.402,198.805 348.424,198.829 348.457,198.866 348.506,198.92 348.579,199.004 348.689,199.132 348.854,199.333 349.102,199.658 349.473,200.208 350.03,201.21 350.866,203.194 351.707,205.822 352.547,209.042 353.388,212.702 354.229,216.568 355.07,220.35 355.911,223.737 356.751,226.438 357.592,228.213 358.433,228.901 359.274,228.439 360.114,226.865 360.955,224.321 361.051,223.945 361.051,223.945 361.053,223.937 361.057,223.925 361.062,223.907 361.069,223.88 361.081,223.839 361.097,223.778 361.123,223.685 361.161,223.546 361.218,223.334 361.303,223.013 361.432,222.522 361.624,221.767 361.913,220.595 362.346,218.768 362.996,215.924 363.836,212.207 364.677,208.639 365.518,205.405 366.359,202.654 367.199,200.487 368.04,198.955 368.881,198.056 369.722,197.74 370.562,197.915 371.403,198.46 372.244,199.237 372.964,199.977 372.964,199.977 372.967,199.98 372.972,199.985 372.978,199.992 372.988,200.002 373.003,200.017 373.025,200.04 373.058,200.074 373.108,200.127 373.183,200.206 373.295,200.329 373.464,200.52 373.716,200.827 374.095,201.346 374.663,202.286 375.504,204.101 376.345,206.465 377.185,209.334 378.026,212.572 378.867,215.973 379.708,219.282 380.549,222.227 381.389,224.557 382.23,226.065 383.071,226.613 383.912,226.151 384.752,224.718 385.593,222.442 385.65,222.244 385.65,222.244 385.652,222.236 385.656,222.226 385.661,222.21 385.668,222.185 385.68,222.149 385.697,222.094 385.723,222.012 385.761,221.888 385.819,221.699 385.905,221.413 386.035,220.975 386.229,220.302 386.521,219.258 386.959,217.629 387.615,215.098 388.456,211.832 389.297,208.708 390.138,205.888 390.978,203.502 391.819,201.638 392.66,200.338 393.501,199.597 394.341,199.369 395.182,199.569 396.023,200.089 396.864,200.805 397.563,201.459 397.563,201.459 397.566,201.462 397.571,201.466 397.578,201.472 397.588,201.481 397.603,201.496 397.626,201.517 397.66,201.549 397.711,201.598 397.788,201.671 397.904,201.785 398.077,201.962 398.336,202.246 398.726,202.725 399.31,203.592 400.151,205.212 400.992,207.307 401.832,209.834 402.673,212.674 403.514,215.645 404.355,218.523 405.195,221.074 406.036,223.077 406.877,224.353 407.718,224.787 408.559,224.335 409.399,223.036 410.24,221.003 410.249,220.977 410.249,220.977 410.251,220.97 410.254,220.961 410.259,220.946 410.267,220.925 410.279,220.893 410.296,220.844 410.322,220.771 410.361,220.66 410.419,220.493 410.506,220.238 410.637,219.849 410.834,219.25 411.129,218.321 411.571,216.872 412.235,214.62 413.075,211.749 413.916,209.008 414.757,206.538 415.598,204.453 416.438,202.831 417.279,201.705 418.12,201.071 418.961,200.886 419.802,201.076 420.642,201.543 421.483,202.179 422.162,202.738 422.162,202.738 422.165,202.741 422.17,202.744 422.176,202.75 422.187,202.758 422.202,202.771 422.226,202.79 422.261,202.819 422.314,202.863 422.393,202.93 422.511,203.032 422.689,203.192 422.955,203.449 423.355,203.883 423.954,204.672 424.795,206.109 425.636,207.961 426.476,210.188 427.317,212.683 428.158,215.284 428.999,217.795 429.84,220.009 430.68,221.735 431.521,222.817 432.362,223.155 433.203,222.714 434.043,221.531 434.847,219.789 434.847,219.789 434.849,219.783 434.852,219.775 434.857,219.762 434.865,219.743 434.877,219.714 434.894,219.671 434.92,219.606 434.96,219.507 435.019,219.358 435.107,219.131 435.239,218.785 435.438,218.251 435.736,217.423 436.183,216.131 436.854,214.125 437.695,211.597 438.535,209.185 439.376,207.016 440.217,205.188 441.058,203.769 441.898,202.787 442.739,202.239 443.58,202.085 444.421,202.26 445.262,202.677 446.102,203.24 446.76,203.717 446.76,203.717 446.763,203.72 446.768,203.723 446.775,203.728 446.786,203.736 446.802,203.747 446.825,203.765 446.861,203.791 446.915,203.83 446.996,203.89 447.117,203.982 447.298,204.126 447.57,204.359 447.979,204.753 448.591,205.47 449.432,206.751 450.273,208.395 451.113,210.366 451.954,212.567 452.795,214.854 453.636,217.053 454.476,218.983 455.317,220.477 456.158,221.398 456.999,221.661 457.84,221.237 458.68,220.162 459.444,218.676 459.444,218.676 459.447,218.671 459.45,218.664 459.455,218.652 459.463,218.635 459.475,218.61 459.492,218.571 459.519,218.513 459.559,218.425 459.618,218.292 459.707,218.09 459.841,217.781 460.042,217.305 460.343,216.566 460.795,215.413 461.473,213.624 462.314,211.396 463.155,209.276 463.995,207.373 464.836,205.774 465.677,204.537 466.518,203.689 467.358,203.222 468.199,203.102 469.04,203.27 469.881,203.65 470.722,204.156 471.358,204.568 471.358,204.568 471.361,204.57 471.366,204.574 471.373,204.578 471.384,204.585 471.4,204.596 471.425,204.611 471.461,204.635 471.516,204.671 471.599,204.726 471.722,204.81 471.908,204.941 472.186,205.153 472.603,205.513 473.229,206.17 474.07,207.314 474.911,208.776 475.752,210.521 476.592,212.461 477.433,214.47 478.274,216.393 479.115,218.072 479.955,219.361 480.796,220.142 481.637,220.342 482.478,219.939 483.319,218.964 484.042,217.707 484.042,217.707 484.044,217.703 484.048,217.696 484.053,217.686 484.061,217.671 484.073,217.648 484.09,217.613 484.117,217.562 484.157,217.484 484.217,217.366 484.308,217.186 484.443,216.911 484.646,216.487 484.95,215.83 485.407,214.804 486.092,213.213 486.933,211.256 487.774,209.397 488.615,207.733 489.455,206.339 490.296,205.265 491.137,204.533 491.978,204.137 492.819,204.045 493.659,204.205 494.5,204.548 495.341,205 495.955,205.353 495.955,205.353 495.959,205.355 495.964,205.358 495.971,205.362 495.982,205.368 495.999,205.378 496.024,205.392 496.061,205.414 496.117,205.446 496.202,205.496 496.328,205.572 496.518,205.691 496.803,205.884 497.23,206.211 497.871,206.811 498.711,207.831 499.552,209.128 500.393,210.67 501.234,212.378 502.074,214.139 502.915,215.818 503.756,217.277 504.597,218.387 505.438,219.047 506.278,219.195 507.119,218.812 507.96,217.93 508.639,216.875 508.639,216.875 508.641,216.871 508.645,216.865 508.65,216.857 508.658,216.843 508.67,216.823 508.688,216.792 508.715,216.746 508.756,216.677 508.816,216.572 508.908,216.412 509.044,216.168 509.25,215.791 509.558,215.207 510.019,214.295 510.712,212.881 511.553,211.163 512.393,209.534 513.234,208.078 514.075,206.862 514.916,205.928 515.756,205.295 516.597,204.958 517.438,204.886 518.279,205.034 519.12,205.342 519.96,205.743 520.553,206.043 520.553,206.043 520.556,206.045 520.561,206.047 520.569,206.051 520.58,206.057 520.597,206.065 520.623,206.078 520.661,206.098 520.719,206.127 520.805,206.172 520.934,206.241 521.129,206.348 521.42,206.522 521.857,206.819 522.512,207.365 523.353,208.273 524.194,209.423 525.034,210.785 525.875,212.288 526.716,213.832 527.557,215.298 528.398,216.564 529.238,217.519 530.079,218.076 530.92,218.18 531.761,217.819 532.601,217.02 533.236,216.14 533.236,216.14 533.238,216.137 533.242,216.132 533.247,216.124 533.255,216.112 533.268,216.094 533.286,216.067 533.313,216.026 533.354,215.964 533.415,215.871 533.508,215.729 533.646,215.512 533.853,215.177 534.165,214.657 534.631,213.846 535.331,212.589 536.172,211.08 537.013,209.652 537.854,208.379 538.695,207.317 539.535,206.505 540.376,205.958 541.217,205.67 542.058,205.615 542.898,205.752 543.739,206.027 544.58,206.382 545.15,206.637 545.15,206.637 545.153,206.639 545.158,206.641 545.166,206.644 545.178,206.65 545.195,206.657 545.221,206.669 545.261,206.686 545.319,206.713 545.408,206.753 545.54,206.815 545.739,206.913 546.036,207.07 546.483,207.34 547.154,207.837 547.994,208.645 548.835,209.665 549.676,210.868 550.517,212.191 551.357,213.544 552.198,214.824 553.039,215.922 553.88,216.744 554.721,217.211 555.561,217.28 556.402,216.941 557.243,216.219 557.833,215.489 557.833,215.489 557.835,215.486 557.839,215.481 557.844,215.474 557.853,215.463 557.865,215.447 557.883,215.423 557.911,215.387 557.952,215.332 558.014,215.25 558.108,215.123 558.247,214.93 558.457,214.633 558.772,214.17 559.244,213.449 559.951,212.332 560.792,211.008 561.633,209.757 562.474,208.643 563.314,207.717 564.155,207.012 564.996,206.539 565.837,206.294 566.677,206.254 567.518,206.38 568.359,206.627 569.2,206.942 569.747,207.158 569.747,207.158 569.75,207.159 569.756,207.161 569.763,207.164 569.775,207.169 569.793,207.176 569.82,207.186 569.86,207.202 569.92,207.226 570.01,207.262 570.146,207.318 570.349,207.406 570.654,207.549 571.11,207.794 571.796,208.247 572.637,208.966 573.477,209.871 574.318,210.933 575.159,212.097 576,213.283 576.84,214.399 577.681,215.351 578.522,216.056 579.363,216.448 580.204,216.488 581.044,216.17 581.885,215.519 582.43,214.918 582.43,214.918 582.432,214.915 582.436,214.911 582.441,214.905 582.45,214.896 582.462,214.881 582.481,214.86 582.509,214.828 582.55,214.779 582.613,214.706 582.707,214.594 582.849,214.422 583.061,214.157 583.379,213.747 583.856,213.106 584.571,212.114 585.412,210.952 586.253,209.857 587.094,208.884 587.934,208.077 588.775,207.464 589.616,207.056 590.457,206.848 591.297,206.819 592.138,206.935 592.979,207.155 593.82,207.435 594.344,207.617 594.344,207.617 594.347,207.618 594.353,207.62 594.361,207.623 594.373,207.627 594.391,207.633 594.418,207.643 594.459,207.657 594.521,207.678 594.613,207.711 594.752,207.762 594.96,207.841 595.271,207.97 595.738,208.193 596.439,208.605 597.28,209.246 598.121,210.047 598.962,210.985 599.802,212.008 600.643,213.047 601.484,214.019 602.325,214.844 603.166,215.448 604.006,215.775 604.847,215.792 605.688,215.496 606.529,214.909 607.026,214.419 607.026,214.419 607.029,214.417 607.033,214.413 607.038,214.407 607.047,214.399 607.059,214.386 607.078,214.367 607.106,214.339 607.149,214.296 607.212,214.23 607.307,214.131 607.45,213.978 607.664,213.743 607.986,213.378 608.468,212.809 609.191,211.928 610.032,210.909 610.873,209.95 611.714,209.1 612.555,208.397 613.395,207.865 614.236,207.514 615.077,207.337 615.918,207.316 616.758,207.422 617.599,207.619 618.44,207.866 618.94,208.019 618.94,208.019 618.944,208.02 618.95,208.022 618.958,208.025 618.97,208.028 618.989,208.034 619.017,208.042 619.059,208.055 619.122,208.075 619.216,208.104 619.358,208.15 619.57,208.222 619.889,208.339 620.367,208.54 621.084,208.916 621.925,209.486 622.765,210.196 623.606,211.024 624.447,211.923 625.288,212.832 626.128,213.679 626.969,214.393 627.81,214.91 628.651,215.181 629.492,215.181 630.332,214.904 631.173,214.375 631.623,213.981 631.623,213.981 631.626,213.979 631.629,213.976 631.635,213.971 631.644,213.963 631.656,213.952 631.675,213.935 631.704,213.91 631.747,213.872 631.811,213.814 631.907,213.725 632.052,213.59 632.268,213.381 632.593,213.057 633.081,212.551 633.812,211.769 634.653,210.875 635.493,210.036 636.334,209.293 637.175,208.681 638.016,208.219 638.857,207.915 639.697,207.765 640.538,207.752 641.379,207.849 642.22,208.024 643.06,208.243 643.537,208.371 643.537,208.371 643.541,208.372 643.547,208.374 643.555,208.376 643.568,208.379 643.587,208.384 643.615,208.392 643.658,208.403 643.723,208.421 643.819,208.448 643.964,208.489 644.181,208.554 644.507,208.659 644.996,208.842 645.729,209.184 646.57,209.691 647.411,210.321 648.251,211.052 649.092,211.842 649.933,212.637 650.774,213.375 651.615,213.992 652.455,214.433 653.296,214.658 654.137,214.643 654.978,214.387 655.818,213.91 656.22,213.597 656.22,213.597 656.222,213.595 656.226,213.592 656.232,213.588 656.24,213.581 656.253,213.571 656.273,213.556 656.301,213.534 656.345,213.5 656.41,213.448 656.507,213.37 656.653,213.25 656.872,213.064 657.201,212.776 657.693,212.327 658.433,211.632 659.273,210.848 660.114,210.114 660.955,209.465 661.796,208.931 662.636,208.53 663.477,208.269 664.318,208.142 665.159,208.134 666,208.222 666.84,208.379 667.681,208.572 668.134,208.679 668.134,208.679 668.138,208.68 668.143,208.681 668.152,208.683 668.165,208.686 668.185,208.691 668.214,208.698 668.258,208.708 668.323,208.724 668.422,208.748 668.57,208.785 668.793,208.844 669.126,208.939 669.626,209.105 670.375,209.417 671.216,209.868 672.057,210.426 672.898,211.071 673.739,211.765 674.579,212.461 675.42,213.103 676.261,213.636 677.102,214.012 677.942,214.197 678.783,214.171 679.624,213.934 680.465,213.505 680.817,213.261 680.817,213.261 680.819,213.259 680.823,213.256 680.829,213.252 680.837,213.247 680.85,213.238 680.87,213.225 680.899,213.205 680.943,213.174 681.008,213.129 681.107,213.059 681.254,212.952 681.476,212.787 681.808,212.531 682.306,212.132 683.053,211.515 683.894,210.828 684.735,210.185 685.576,209.618 686.417,209.153 687.257,208.806 688.098,208.58 688.939,208.472 689.78,208.469 690.62,208.55 691.461,208.689 692.302,208.86 692.73,208.949 692.73,208.949 692.734,208.95 692.74,208.951 692.749,208.953 692.762,208.956 692.782,208.96 692.812,208.966 692.857,208.975 692.924,208.99 693.025,209.011 693.177,209.045 693.404,209.097 693.745,209.184 694.256,209.334 695.023,209.618 695.864,210.02 696.705,210.515 697.545,211.084 698.386,211.694 699.227,212.302 700.068,212.86 700.908,213.32 701.749,213.641 702.59,213.792 703.431,213.757 704.271,213.538 705.112,213.152 705.413,212.966 705.413,212.966 705.416,212.965 705.42,212.963 705.425,212.959 705.434,212.954 705.447,212.946 705.467,212.934 705.496,212.917 705.541,212.89 705.607,212.849 705.706,212.787 705.856,212.692 706.08,212.546 706.415,212.318 706.919,211.963 707.674,211.416 708.515,210.813 709.356,210.25 710.197,209.755 711.038,209.35 711.878,209.048 712.719,208.854 713.56,208.763 714.401,208.763 715.241,208.836 716.082,208.96 716.923,209.111 717.327,209.185 717.327,209.185 717.331,209.186 717.337,209.187 717.346,209.189 717.36,209.191 717.38,209.195 717.411,209.201 717.457,209.209 717.525,209.222 717.629,209.241 717.784,209.272 718.016,209.319 718.365,209.397 718.887,209.534 719.672,209.793 720.512,210.151 721.353,210.589 722.194,211.091 723.035,211.627 723.875,212.159 724.716,212.644 725.557,213.041 726.398,213.313 727.239,213.435 728.079,213.395 728.92,213.192 729.761,212.846 730.01,212.709 730.01,212.709 730.012,212.708 730.016,212.706 730.022,212.702 730.031,212.698 730.044,212.691 730.064,212.68 730.094,212.665 730.139,212.641 730.206,212.605 730.306,212.55 730.457,212.465 730.683,212.335 731.023,212.133 731.532,211.817 732.296,211.331 733.137,210.802 733.977,210.309 734.818,209.876 735.659,209.523 736.5,209.262 737.34,209.094 738.181,209.017 739.022,209.02 739.863,209.087 740.703,209.197 741.544,209.331 741.924,209.392 741.924,209.392 741.928,209.393 741.934,209.394 741.943,209.395 741.957,209.397 741.978,209.401 742.009,209.406 742.056,209.413 742.127,209.425 742.232,209.443 742.391,209.47 742.628,209.513 742.985,209.584 743.519,209.708 744.321,209.944 745.162,210.262 746.003,210.651 746.844,211.094 747.684,211.565 748.525,212.029 749.366,212.451 750.207,212.793 751.048,213.024 751.888,213.122 752.729,213.077 753.57,212.891 754.411,212.579 754.606,212.484 754.606,212.484 754.609,212.483 754.613,212.481 754.619,212.478 754.628,212.474 754.641,212.468 754.661,212.458 754.691,212.444 754.737,212.423 754.804,212.391 754.906,212.342 755.059,212.267 755.287,212.151 755.63,211.971 756.145,211.691 756.917,211.258 757.758,210.794 758.599,210.362 759.44,209.984 760.28,209.677 761.121,209.449 761.962,209.305 762.803,209.24 763.643,209.245 764.484,209.306 765.325,209.404 766.166,209.523 766.52,209.573 766.52,209.573 766.524,209.573 766.531,209.574 766.54,209.576 766.554,209.578 766.576,209.581 766.608,209.585 766.656,209.592 766.728,209.602 766.836,209.618 766.998,209.643 767.241,209.682 767.605,209.746 768.152,209.859 768.972,210.074 769.813,210.358 770.654,210.702 771.495,211.093 772.335,211.507 773.176,211.913 774.017,212.279 774.858,212.574 775.698,212.769 776.539,212.847 777.38,212.799 778.221,212.628 779.062,212.348 779.203,212.287 779.203,212.287 779.205,212.286 779.209,212.284 779.215,212.282 779.224,212.278 779.238,212.273 779.258,212.264 779.289,212.252 779.334,212.233 779.403,212.204 779.506,212.161 779.66,212.094 779.891,211.991 780.238,211.831 780.758,211.581 781.539,211.197 782.379,210.789 783.22,210.41 784.061,210.08 784.902,209.812 785.742,209.614 786.583,209.49 787.424,209.436 788.265,209.442 789.106,209.497 789.946,209.585 790.787,209.69 791.117,209.731 791.117,209.731 791.121,209.731 791.127,209.732 791.137,209.733 791.152,209.735 791.173,209.738 791.206,209.742 791.255,209.748 791.329,209.758 791.439,209.772 791.605,209.794 791.854,209.829 792.226,209.888 792.786,209.99 793.624,210.187 794.465,210.44 795.306,210.745 796.147,211.09 796.987,211.454 797.828,211.809 798.669,212.127 799.51,212.38 800.351,212.545 801.191,212.606 802.032,212.557 802.873,212.399 803.714,212.148 803.799,212.115 803.799,212.115 803.802,212.114 803.806,212.112 803.812,212.11 803.821,212.107 803.835,212.102 803.855,212.095 803.886,212.084 803.932,212.067 804.001,212.041 804.105,212.003 804.261,211.943 804.495,211.852 804.845,211.709 805.371,211.486 806.16,211.144 807.001,210.786 807.842,210.454 808.682,210.165 809.523,209.931 810.364,209.76 811.205,209.653 812.045,209.607 812.886,209.615 813.727,209.665 814.568,209.743 815.409,209.836 815.713,209.869 815.713,209.869 815.717,209.87 815.724,209.87 815.734,209.871 815.749,209.873 815.771,209.875 815.805,209.879 815.855,209.885 815.93,209.893 816.043,209.906 816.213,209.926 816.467,209.958 816.848,210.011 817.42,210.105 818.261,210.28 819.101,210.504 819.942,210.775 820.783,211.079 821.624,211.398 822.465,211.709 823.305,211.986 824.146,212.205 824.987,212.345 825.828,212.395 826.668,212.347 827.509,212.204 828.35,211.979 828.395,211.964 828.395,211.964 828.398,211.963 828.402,211.962 828.408,211.96 828.417,211.957 828.431,211.953 828.452,211.946 828.483,211.936 828.53,211.921 828.6,211.899 828.705,211.864 828.862,211.811 829.098,211.73 829.453,211.602 829.984,211.404 830.782,211.1 831.622,210.785 832.463,210.494 833.304,210.241 834.145,210.037 834.986,209.888 835.826,209.796 836.667,209.757 837.508,209.766 838.349,209.811 839.189,209.881 840.03,209.963 840.309,209.99 840.309,209.99 840.314,209.99 840.321,209.991 840.331,209.992 840.346,209.993 840.369,209.995 840.403,209.999 840.454,210.004 840.531,210.012 840.647,210.023 840.82,210.041 841.08,210.07 841.47,210.118 842.055,210.203 842.895,210.359 843.736,210.559 844.577,210.798 845.418,211.066 846.258,211.347 847.099,211.619 847.94,211.86 848.781,212.05 849.622,212.17 850.462,212.209 851.303,212.163 852.144,212.034 852.985,211.834 852.991,211.832 852.991,211.832 852.994,211.831 852.998,211.83 853.004,211.828 853.013,211.826 853.027,211.822 853.048,211.816 853.08,211.807 853.127,211.794 853.198,211.774 853.304,211.743 853.463,211.696 853.702,211.623 854.06,211.51 854.597,211.333 855.403,211.062 856.244,210.785 857.085,210.529 857.926,210.308 858.766,210.13 859.607,210 860.448,209.921 861.289,209.889 862.129,209.898 862.97,209.939 863.811,210.001 864.652,210.073 864.906,210.095 864.906,210.095 864.91,210.095 864.917,210.096 864.927,210.097 864.943,210.098 864.966,210.1 865.001,210.103 865.054,210.108 865.133,210.115 865.251,210.125 865.428,210.142 865.693,210.168 866.092,210.211 866.69,210.289 867.531,210.428 868.371,210.605 869.212,210.817 870.053,211.054 870.894,211.3 871.734,211.539 872.575,211.749 873.416,211.913 874.257,212.016 875.098,212.047 875.938,212.003 876.779,211.886 877.587,211.714 877.587,211.714 877.59,211.713 877.594,211.712 877.6,211.711 877.61,211.709 877.624,211.705 877.645,211.7 877.677,211.692 877.724,211.68 877.796,211.662 877.903,211.635 878.064,211.593 878.305,211.529 878.667,211.428 879.211,211.271 880.025,211.03 880.866,210.787 881.706,210.563 882.547,210.37 883.388,210.214 884.229,210.102 884.377,210.09" stroke-width="1"/>
   <polyline stroke-dasharray="1,3,1,3,1,3,1,3" stroke-linecap="butt" stroke-linejoin="round" stroke="#000000" fill="none" points="126.929,207.902 126.934,207.902 126.942,207.902 126.953,207.902 126.97,207.902 126.996,207.902 127.035,207.902 127.093,207.903 127.181,207.905 127.312,207.916 127.509,207.956 127.804,208.101 128.246,208.603 128.91,210.269 129.905,215.494 131.381,230.026 133.595,262.653 136.412,298.975 139.095,304.009 142.283,276.18 145.393,248.517 148.11,248.577 150.737,272.79 154.678,325.774 158.179,360.044 162.809,377.514 166.812,372.48 171.651,352.298 175.641,347.78 179.473,363.614 183.903,384.35 188.55,368.8 193.768,286.191 197.49,209.505 200.27,170.122 202.826,160.721 205.469,172.674 208.08,184.562 210.596,175.716 213.112,143.1 216.886,85.9533 219.83,78.0279 222.714,109.904 226.124,153.111 229.085,159.809 232.028,148.729 234.764,147.777 237.379,158.895 240.032,163.786 242.606,146.547 245.411,111.929 248.246,96.2632 250.99,126.456 253.731,185.314 255.8,220.908 257.821,232.764 260.221,218.247 262.545,190.413 264.619,168.792 267.026,156.154 269.984,154.916 273.444,155.983 276.554,158.776 279.718,178.808 282.45,209.974 285.223,236.344 287.728,239.766 290.441,218.435 293.608,177.636 296.366,151.965 299.138,152.169 301.936,177.962 304.796,212.837 307.553,236.292 310.417,244.014 313.401,238.34 316.234,223.469 319.748,194.195 323.131,167.259 325.856,163.707 328.524,183.669 331.337,219.997 334.415,252.176 337.203,258.816 340.549,240.19 343.656,209.9 346.574,182.609 349.56,168.33 352.501,176.83 355.333,203.786 358.657,239.248 361.642,255.19 365.083,246.679 368.625,215.761 371.895,182.631 374.978,165.41 377.881,173.901 380.674,202.176 383.568,235.231 386.279,253.27 389.484,250.628 392.954,225.041 396.126,193.241 399.059,170.098 402.054,166.775 404.849,186.792 407.795,220.897 410.932,249.01 413.877,253.949 417.333,234.52 420.553,203.042 423.572,175.386 426.627,164.759 429.499,179.179 432.36,210.591 435.793,245.214 438.715,254.549 442.221,239.054 445.5,208.481 448.601,178.839 451.697,164.745 454.608,176.165 457.435,205.989 460.491,239.411 463.293,254.299 466.736,245.78 470.142,216.936 473.296,185.467 476.361,166.175 479.326,171.061 482.116,196.864 485.309,233.437 488.13,252.742 491.292,250.604 494.808,224.783 498.002,192.593 500.938,169.646 503.92,166.909 506.71,187.324 509.673,221.669 512.762,249.085 515.714,253.972 519.091,235.334 522.294,204.343 525.336,176.251 528.402,164.917 531.28,178.763 534.129,209.856 537.549,244.812 540.463,254.799 543.907,240.361 547.182,210.187 550.288,180.177 553.378,165.004 556.299,175.161 559.118,204.217 562.062,237.027 564.822,253.635 568.125,248.347 571.576,220.947 574.749,189.015 577.761,167.643 580.74,168.782 583.515,191.942 586.572,227.476 589.396,250.376 592.402,253.168 596.254,228.382 599.539,195.529 602.474,171.28 605.474,166.056 608.286,184.669 611.206,218.147 614.524,248.638 617.476,254.068 620.989,234.752 624.226,203.328 627.266,175.567 630.332,165.011 633.202,179.551 636.059,210.989 639.489,245.515 642.411,254.707 645.917,239.01 649.195,208.356 652.292,178.837 655.382,164.928 658.29,176.415 661.119,206.208 664.191,239.639 667.001,254.312 670.463,245.413 673.869,216.375 677.025,184.975 680.095,166.056 683.056,171.486 685.849,197.62 689.07,234.306 691.901,252.995 695.095,249.916 698.582,223.732 701.767,191.665 704.725,169.114 707.708,167.4 710.491,188.517 713.475,223.147 716.488,249.318 719.448,253.757 722.801,234.946 725.996,203.999 729.03,176.099 732.093,164.991 734.968,178.98 737.82,210.116 741.242,244.93 744.159,254.719 747.612,240.045 750.887,209.815 753.991,179.941 757.081,165.043 760,175.459 762.82,204.63 765.775,237.392 768.541,253.696 771.865,247.913 775.309,220.303 778.479,188.466 781.501,167.436 784.478,169.193 787.256,192.773 790.332,228.432 793.118,250.572 796.14,252.908 799.946,228.142 803.219,195.431 806.146,171.32 809.141,166.123 811.953,184.695 814.873,218.121 818.193,248.584 821.145,254.002 824.662,234.684 827.899,203.285 830.94,175.583 834.004,165.085 836.874,179.635 839.732,211.043 843.162,245.5 846.085,254.64 849.593,238.912 852.871,208.275 855.967,178.823 859.057,164.996 861.964,176.519 864.794,206.298 867.877,239.743 870.69,254.281 874.162,245.165 877.568,216.051 880.724,184.737 883.796,166.04 884.377,167.159" stroke-width="1"/>
  </g>
  <clipPath id="cp00976449">
   <polygon points="0,449 976,449 976,0 0,0"/>
  </clipPath>
  <g clip-path="url(#cp00976449)">
   <polygon shape-rendering="crispEdges" fill="#ffffff" points="707.627,122.64 871.822,122.64 871.822,45.4761 707.627,45.4761"/>
   <polyline stroke-dasharray="16,0" stroke-linecap="square" stroke-linejoin="miter" stroke="#262626" fill="none" points="707.627,122.64 871.822,122.64" stroke-width="0.5"/>
   <polyline stroke-dasharray="16,0" stroke-linecap="square" stroke-linejoin="miter" stroke="#262626" fill="none" points="707.627,45.4761 871.822,45.4761" stroke-width="0.5"/>
   <polyline stroke-dasharray="16,0" stroke-linecap="square" stroke-linejoin="miter" stroke="#262626" fill="none" points="707.627,122.64 707.627,45.4761" stroke-width="0.5"/>
   <polyline stroke-dasharray="16,0" stroke-linecap="square" stroke-linejoin="miter" stroke="#262626" fill="none" points="871.822,122.64 871.822,45.4761" stroke-width="0.5"/>
   <polyline stroke-linecap="butt" stroke-linejoin="round" stroke="#000000" fill="none" points="713.526,66.2419 743.023,66.2419" stroke-width="1"/>
   <g xml:space="preserve" font-style="normal" font-weight="normal" font-size="21.6" transform="translate(748.922,75.2418) rotate(-0,-0,-9)" font-family="FreeSans">
    <text y="-1" x="0 13 19 24 29 42 47 59 64 77 95 107 " fill="rgb(0,0,0)">Fti = u Fmax</text>
   </g>
   <polyline stroke-dasharray="1,3,1,3,1,3,1,3" stroke-linecap="butt" stroke-linejoin="round" stroke="#000000" fill="none" points="713.526,101.874 743.023,101.874" stroke-width="1"/>
   <g xml:space="preserve" font-style="normal" font-weight="normal" font-size="21.6" transform="translate(748.922,110.374) rotate(-0,-0,-8.5)" font-family="FreeSans">
    <text y="-0" x="0 13 19 24 29 42 47 " fill="rgb(0,0,0)">Fti = 1</text>
   </g>
  </g>
 </g>
</svg>
