<?xml version='1.0' encoding='UTF-8' standalone='no'?>
<svg viewBox="0 0 976 449" xmlns:xlink="http://www.w3.org/1999/xlink" height="449pt" xmlns="http://www.w3.org/2000/svg" width="976pt">
 <title>Figure 1</title>
 <desc>
Creator: GL2PS 1.4.2, (C) 1999-2020 C. Geuzaine
For: Octave
CreationDate: Tue Jan 31 12:51:48 2023
</desc>
 <defs/>
 <polygon points="0,0 976,0 976,449 0,449" fill="#ffffff"/>
 <g>
  <polygon points="0,449 976,449 976,0 0,0" fill="#ffffff" shape-rendering="crispEdges"/>
  <clipPath id="cp00976449">
   <polygon points="0,449 976,449 976,0 0,0"/>
  </clipPath>
  <g clip-path="url(#cp00976449)">
   <polygon points="126.929,388.033 883.62,388.033 883.62,33.6775 126.929,33.6775" fill="#ffffff" shape-rendering="crispEdges"/>
   <polyline points="126.929,388.033 126.929,33.6775" stroke-width="0.5" stroke-linecap="butt" stroke-opacity="0.15" stroke-linejoin="miter" stroke="#262626" fill="none" stroke-dasharray="16,0"/>
   <polyline points="295.083,388.033 295.083,33.6775" stroke-width="0.5" stroke-linecap="butt" stroke-opacity="0.15" stroke-linejoin="miter" stroke="#262626" fill="none" stroke-dasharray="16,0"/>
   <polyline points="463.236,388.033 463.236,33.6775" stroke-width="0.5" stroke-linecap="butt" stroke-opacity="0.15" stroke-linejoin="miter" stroke="#262626" fill="none" stroke-dasharray="16,0"/>
   <polyline points="631.39,388.033 631.39,33.6775" stroke-width="0.5" stroke-linecap="butt" stroke-opacity="0.15" stroke-linejoin="miter" stroke="#262626" fill="none" stroke-dasharray="16,0"/>
   <polyline points="799.544,388.033 799.544,33.6775" stroke-width="0.5" stroke-linecap="butt" stroke-opacity="0.15" stroke-linejoin="miter" stroke="#262626" fill="none" stroke-dasharray="16,0"/>
   <polyline points="126.929,388.033 126.929,380.459" stroke-width="0.5" stroke-linecap="butt" stroke-linejoin="miter" stroke="#262626" fill="none"/>
   <polyline points="295.083,388.033 295.083,380.459" stroke-width="0.5" stroke-linecap="butt" stroke-linejoin="miter" stroke="#262626" fill="none"/>
   <polyline points="463.236,388.033 463.236,380.459" stroke-width="0.5" stroke-linecap="butt" stroke-linejoin="miter" stroke="#262626" fill="none"/>
   <polyline points="631.39,388.033 631.39,380.459" stroke-width="0.5" stroke-linecap="butt" stroke-linejoin="miter" stroke="#262626" fill="none"/>
   <polyline points="799.544,388.033 799.544,380.459" stroke-width="0.5" stroke-linecap="butt" stroke-linejoin="miter" stroke="#262626" fill="none"/>
   <g font-weight="normal" font-family="'Times New Roman'" font-style="normal" transform="translate(120.929,423.051) rotate(-0,6,-17)" font-size="24" xml:space="preserve">
    <text x="0 " y="-0" fill="rgb(38,38,38)">0</text>
   </g>
   <g font-weight="normal" font-family="'Times New Roman'" font-style="normal" transform="translate(265.083,423.051) rotate(-0,30,-17)" font-size="24" xml:space="preserve">
    <text x="0 12 24 36 48 " y="-0" fill="rgb(38,38,38)">20000</text>
   </g>
   <g font-weight="normal" font-family="'Times New Roman'" font-style="normal" transform="translate(433.236,423.051) rotate(-0,30,-17)" font-size="24" xml:space="preserve">
    <text x="0 12 24 36 48 " y="-0" fill="rgb(38,38,38)">40000</text>
   </g>
   <g font-weight="normal" font-family="'Times New Roman'" font-style="normal" transform="translate(601.39,423.051) rotate(-0,30,-17)" font-size="24" xml:space="preserve">
    <text x="0 12 24 36 48 " y="-0" fill="rgb(38,38,38)">60000</text>
   </g>
   <g font-weight="normal" font-family="'Times New Roman'" font-style="normal" transform="translate(769.544,423.051) rotate(-0,30,-17)" font-size="24" xml:space="preserve">
    <text x="0 12 24 36 48 " y="-0" fill="rgb(38,38,38)">80000</text>
   </g>
   <polyline points="126.929,388.033 883.62,388.033" stroke-width="0.5" stroke-linecap="butt" stroke-opacity="0.15" stroke-linejoin="miter" stroke="#262626" fill="none" stroke-dasharray="16,0"/>
   <polyline points="126.929,317.162 883.62,317.162" stroke-width="0.5" stroke-linecap="butt" stroke-opacity="0.15" stroke-linejoin="miter" stroke="#262626" fill="none" stroke-dasharray="16,0"/>
   <polyline points="126.929,246.29 883.62,246.29" stroke-width="0.5" stroke-linecap="butt" stroke-opacity="0.15" stroke-linejoin="miter" stroke="#262626" fill="none" stroke-dasharray="16,0"/>
   <polyline points="126.929,175.419 883.62,175.419" stroke-width="0.5" stroke-linecap="butt" stroke-opacity="0.15" stroke-linejoin="miter" stroke="#262626" fill="none" stroke-dasharray="16,0"/>
   <polyline points="126.929,104.548 883.62,104.548" stroke-width="0.5" stroke-linecap="butt" stroke-opacity="0.15" stroke-linejoin="miter" stroke="#262626" fill="none" stroke-dasharray="16,0"/>
   <polyline points="126.929,33.6775 883.62,33.6775" stroke-width="0.5" stroke-linecap="butt" stroke-opacity="0.15" stroke-linejoin="miter" stroke="#262626" fill="none" stroke-dasharray="16,0"/>
   <polyline points="126.929,388.033 134.493,388.033" stroke-width="0.5" stroke-linecap="butt" stroke-linejoin="miter" stroke="#262626" fill="none"/>
   <polyline points="126.929,317.162 134.493,317.162" stroke-width="0.5" stroke-linecap="butt" stroke-linejoin="miter" stroke="#262626" fill="none"/>
   <polyline points="126.929,246.29 134.493,246.29" stroke-width="0.5" stroke-linecap="butt" stroke-linejoin="miter" stroke="#262626" fill="none"/>
   <polyline points="126.929,175.419 134.493,175.419" stroke-width="0.5" stroke-linecap="butt" stroke-linejoin="miter" stroke="#262626" fill="none"/>
   <polyline points="126.929,104.548 134.493,104.548" stroke-width="0.5" stroke-linecap="butt" stroke-linejoin="miter" stroke="#262626" fill="none"/>
   <polyline points="126.929,33.6775 134.493,33.6775" stroke-width="0.5" stroke-linecap="butt" stroke-linejoin="miter" stroke="#262626" fill="none"/>
   <g font-weight="normal" font-family="'Times New Roman'" font-style="normal" transform="translate(84.9338,396.533) rotate(-0,30,-8.5)" font-size="24" xml:space="preserve">
    <text x="0 12 18 " y="-0" fill="rgb(38,38,38)">9.9</text>
   </g>
   <g font-weight="normal" font-family="'Times New Roman'" font-style="normal" transform="translate(90.9338,325.662) rotate(-0,24,-8.5)" font-size="24" xml:space="preserve">
    <text x="0 12 " y="-0" fill="rgb(38,38,38)">10</text>
   </g>
   <g font-weight="normal" font-family="'Times New Roman'" font-style="normal" transform="translate(72.9338,254.791) rotate(-0,42,-8.5)" font-size="24" xml:space="preserve">
    <text x="0 12 24 30 " y="-0" fill="rgb(38,38,38)">10.1</text>
   </g>
   <g font-weight="normal" font-family="'Times New Roman'" font-style="normal" transform="translate(72.9338,183.92) rotate(-0,42,-8.5)" font-size="24" xml:space="preserve">
    <text x="0 12 24 30 " y="-0" fill="rgb(38,38,38)">10.2</text>
   </g>
   <g font-weight="normal" font-family="'Times New Roman'" font-style="normal" transform="translate(72.9338,113.049) rotate(-0,42,-8.5)" font-size="24" xml:space="preserve">
    <text x="0 12 24 30 " y="-0" fill="rgb(38,38,38)">10.3</text>
   </g>
   <g font-weight="normal" font-family="'Times New Roman'" font-style="normal" transform="translate(72.9338,42.1774) rotate(-0,42,-8.5)" font-size="24" xml:space="preserve">
    <text x="0 12 24 30 " y="-0" fill="rgb(38,38,38)">10.4</text>
   </g>
   <polyline points="126.929,388.033 883.62,388.033" stroke-width="0.5" stroke-linecap="square" stroke-linejoin="miter" stroke="#262626" fill="none" stroke-dasharray="16,0"/>
   <polyline points="126.929,388.033 126.929,33.6775" stroke-width="0.5" stroke-linecap="square" stroke-linejoin="miter" stroke="#262626" fill="none" stroke-dasharray="16,0"/>
   <g font-weight="normal" font-family="'Times New Roman'" font-style="normal" transform="translate(488.775,449.051) rotate(-0,16.5,-21)" font-size="26.4" xml:space="preserve">
    <text x="0 7 14 21 " y="-4" fill="rgb(38,38,38)">t, c</text>
   </g>
   <g font-weight="normal" font-family="'Times New Roman'" font-style="normal" transform="translate(33.9338,210.855) rotate(-90,34,0)" font-size="26.4" xml:space="preserve">
    <text x="0 13 22 29 38 45 52 " y="-6" fill="rgb(38,38,38)">y(t), м</text>
   </g>
   <polyline points="126.929,310.074 126.934,310.074 126.942,310.074 126.953,310.075 126.97,310.077 126.996,310.079 127.035,310.086 127.093,310.102 127.181,310.137 127.312,310.217 127.509,310.397 127.804,310.794 128.246,311.649 128.91,313.398 129.75,316.095 130.591,318.841 131.432,321.101 132.273,322.407 133.113,322.416 133.954,320.949 134.795,318.016 135.636,313.793 136.477,308.595 137.317,302.821 138.158,296.898 138.999,291.237 139.611,287.561 139.611,287.561 139.613,287.55 139.616,287.533 139.62,287.508 139.627,287.471 139.636,287.415 139.651,287.33 139.673,287.203 139.706,287.014 139.755,286.73 139.83,286.305 139.941,285.673 140.108,284.731 140.358,283.34 140.733,281.308 141.297,278.406 142.137,274.475 142.978,271.118 143.819,268.407 144.66,266.382 145.501,265.043 146.341,264.356 147.182,264.253 148.023,264.648 148.864,265.437 149.704,266.512 150.545,267.765 151.386,269.106 151.526,269.33 151.526,269.33 151.528,269.334 151.532,269.34 151.537,269.348 151.545,269.362 151.557,269.382 151.576,269.412 151.603,269.46 151.644,269.532 151.705,269.649 151.796,269.836 151.934,270.146 152.141,270.673 152.45,271.593 152.915,273.224 153.612,276.081 154.453,279.795 155.293,283.279 156.134,286.002 156.975,287.531 157.816,287.584 158.657,286.065 159.497,283.069 160.338,278.862 161.179,273.835 162.02,268.45 162.86,263.19 163.701,258.499 164.231,256.139 164.231,256.139 164.233,256.13 164.236,256.117 164.24,256.097 164.247,256.069 164.258,256.025 164.273,255.959 164.296,255.863 164.331,255.719 164.383,255.506 164.461,255.191 164.578,254.735 164.753,254.084 165.017,253.189 165.412,252.035 166.004,250.766 166.845,249.968 167.686,250.368 168.527,251.906 169.368,254.457 170.208,257.827 171.049,261.786 171.89,266.085 172.731,270.477 173.571,274.736 174.412,278.675 175.253,282.162 176.094,285.119 176.145,285.268 176.145,285.268 176.148,285.274 176.151,285.285 176.156,285.3 176.163,285.322 176.174,285.357 176.19,285.408 176.214,285.487 176.251,285.606 176.305,285.786 176.387,286.064 176.51,286.493 176.695,287.165 176.972,288.229 177.387,289.921 178.01,292.573 178.851,296.072 179.692,299.059 180.533,301.121 181.373,301.956 182.214,301.406 183.055,299.48 183.896,296.349 184.736,292.314 185.577,287.763 186.418,283.127 187.259,278.823 188.1,275.224 188.84,272.93 188.84,272.93 188.843,272.926 188.846,272.917 188.85,272.905 188.857,272.888 188.868,272.861 188.883,272.821 188.907,272.763 188.942,272.677 188.995,272.55 189.074,272.369 189.194,272.115 189.372,271.775 189.64,271.356 190.042,270.943 190.644,270.811 191.485,271.589 192.326,273.409 193.167,276.11 194.007,279.482 194.848,283.275 195.689,287.235 196.53,291.113 197.371,294.697 198.211,297.815 199.052,300.357 199.893,302.274 200.734,303.579 200.755,303.599 200.755,303.599 200.758,303.602 200.761,303.606 200.767,303.613 200.775,303.623 200.788,303.639 200.807,303.662 200.836,303.698 200.879,303.753 200.943,303.836 201.039,303.969 201.184,304.179 201.401,304.519 201.726,305.082 202.215,306.019 202.947,307.535 203.788,309.239 204.628,310.643 205.469,311.499 206.31,311.62 207.151,310.9 207.992,309.333 208.832,307.008 209.673,304.097 210.514,300.831 211.355,297.477 212.195,294.302 213.036,291.553 213.443,290.53 213.443,290.53 213.445,290.524 213.448,290.517 213.452,290.504 213.46,290.487 213.47,290.461 213.486,290.421 213.51,290.363 213.545,290.275 213.599,290.146 213.679,289.958 213.799,289.685 213.98,289.3 214.251,288.777 214.657,288.124 215.266,287.445 216.107,287.111 216.947,287.449 217.788,288.388 218.629,289.817 219.47,291.601 220.311,293.591 221.151,295.638 221.992,297.605 222.833,299.38 223.674,300.881 224.514,302.059 225.355,302.906 225.357,302.907 225.357,302.907 225.359,302.909 225.363,302.912 225.369,302.917 225.378,302.924 225.392,302.936 225.412,302.953 225.443,302.98 225.488,303.021 225.557,303.087 225.66,303.192 225.814,303.366 226.045,303.66 226.392,304.168 226.912,305.054 227.693,306.552 228.534,308.174 229.374,309.539 230.215,310.402 231.056,310.571 231.897,309.938 232.737,308.489 233.578,306.302 234.419,303.538 235.26,300.416 236.101,297.189 236.941,294.118 237.782,291.438 238.045,290.784 238.045,290.784 238.047,290.778 238.051,290.77 238.055,290.757 238.062,290.739 238.073,290.711 238.089,290.669 238.113,290.608 238.149,290.515 238.203,290.379 238.284,290.179 238.406,289.887 238.588,289.471 238.862,288.897 239.273,288.156 239.888,287.323 240.729,286.744 241.57,286.798 242.411,287.431 243.251,288.555 244.092,290.054 244.933,291.795 245.774,293.645 246.614,295.476 247.455,297.18 248.296,298.674 249.137,299.905 249.959,300.832 249.959,300.832 249.961,300.834 249.965,300.838 249.971,300.843 249.98,300.852 249.993,300.865 250.013,300.885 250.042,300.915 250.087,300.962 250.153,301.035 250.253,301.149 250.403,301.335 250.628,301.641 250.965,302.158 251.471,303.035 252.229,304.485 253.07,306.087 253.911,307.442 254.751,308.324 255.592,308.56 256.433,308.053 257.274,306.793 258.114,304.854 258.955,302.387 259.796,299.595 260.637,296.716 261.478,293.99 262.318,291.637 262.649,290.933 262.649,290.933 262.651,290.928 262.654,290.922 262.659,290.911 262.666,290.895 262.677,290.871 262.693,290.836 262.717,290.784 262.754,290.706 262.808,290.591 262.89,290.423 263.013,290.18 263.198,289.837 263.474,289.375 263.889,288.802 264.512,288.223 265.352,287.989 266.193,288.365 267.034,289.294 267.875,290.68 268.715,292.403 269.556,294.331 270.397,296.33 271.238,298.275 272.079,300.06 272.919,301.608 273.76,302.871 274.562,303.789 274.562,303.789 274.565,303.791 274.569,303.796 274.575,303.801 274.583,303.81 274.596,303.824 274.616,303.843 274.646,303.873 274.69,303.92 274.756,303.992 274.856,304.104 275.005,304.284 275.229,304.576 275.565,305.056 276.069,305.855 276.825,307.143 277.666,308.538 278.507,309.689 279.348,310.41 280.189,310.557 281.029,310.057 281.87,308.907 282.711,307.179 283.552,305.008 284.392,302.575 285.233,300.083 286.074,297.745 286.915,295.751 287.251,295.155 287.251,295.155 287.253,295.151 287.256,295.145 287.261,295.136 287.268,295.123 287.279,295.103 287.295,295.073 287.32,295.03 287.357,294.965 287.412,294.868 287.495,294.728 287.619,294.526 287.806,294.244 288.085,293.868 288.505,293.415 289.134,292.994 289.974,292.92 290.815,293.379 291.656,294.31 292.497,295.622 293.338,297.205 294.178,298.937 295.019,300.698 295.86,302.379 296.701,303.891 297.541,305.169 298.382,306.176 299.164,306.856 299.164,306.856 299.167,306.858 299.171,306.861 299.177,306.866 299.186,306.872 299.2,306.883 299.221,306.898 299.252,306.922 299.298,306.959 299.368,307.016 299.472,307.106 299.629,307.251 299.865,307.49 300.218,307.888 300.747,308.556 301.542,309.639 302.382,310.746 303.223,311.639 304.064,312.163 304.905,312.202 305.746,311.696 306.586,310.645 307.427,309.112 308.268,307.213 309.109,305.1 309.949,302.947 310.79,300.934 311.631,299.223 311.851,298.889 311.851,298.889 311.854,298.886 311.857,298.88 311.862,298.872 311.869,298.86 311.88,298.841 311.897,298.815 311.922,298.775 311.959,298.715 312.015,298.628 312.098,298.499 312.224,298.316 312.412,298.056 312.695,297.709 313.119,297.284 313.755,296.87 314.595,296.739 315.436,297.063 316.277,297.789 317.118,298.841 317.959,300.125 318.799,301.54 319.64,302.982 320.481,304.361 321.322,305.6 322.162,306.645 323.003,307.465 323.765,307.998 323.765,307.998 323.767,308 323.772,308.002 323.778,308.006 323.787,308.012 323.802,308.021 323.823,308.034 323.855,308.054 323.903,308.085 323.976,308.133 324.084,308.211 324.247,308.336 324.49,308.544 324.856,308.896 325.405,309.491 326.228,310.461 327.068,311.412 327.909,312.171 328.75,312.601 329.591,312.602 330.431,312.122 331.272,311.164 332.113,309.786 332.954,308.09 333.795,306.211 334.635,304.306 335.476,302.531 336.317,301.032 336.452,300.855 336.452,300.855 336.454,300.851 336.457,300.846 336.462,300.839 336.469,300.828 336.481,300.812 336.497,300.787 336.522,300.751 336.56,300.696 336.616,300.616 336.701,300.499 336.828,300.33 337.018,300.094 337.304,299.775 337.733,299.386 338.375,299.004 339.216,298.876 340.057,299.153 340.898,299.789 341.738,300.717 342.579,301.853 343.42,303.106 344.261,304.387 345.101,305.614 345.942,306.717 346.783,307.65 347.624,308.384 348.365,308.851 348.365,308.851 348.367,308.853 348.372,308.854 348.378,308.858 348.388,308.863 348.402,308.872 348.424,308.884 348.457,308.902 348.506,308.931 348.579,308.976 348.689,309.047 348.854,309.163 349.102,309.353 349.473,309.675 350.03,310.217 350.866,311.094 351.707,311.932 352.547,312.592 353.388,312.955 354.229,312.937 355.07,312.493 355.911,311.629 356.751,310.398 357.592,308.891 358.433,307.231 359.274,305.557 360.114,304.005 360.955,302.704 361.051,302.596 361.051,302.596 361.053,302.593 361.057,302.589 361.062,302.583 361.069,302.573 361.081,302.558 361.097,302.536 361.123,302.504 361.161,302.457 361.218,302.386 361.303,302.283 361.432,302.134 361.624,301.927 361.913,301.65 362.346,301.314 362.996,300.995 363.836,300.92 364.677,301.204 365.518,301.808 366.359,302.669 367.199,303.712 368.04,304.854 368.881,306.015 369.722,307.122 370.562,308.113 371.403,308.947 372.244,309.6 372.964,310 372.964,310 372.967,310.001 372.972,310.003 372.978,310.006 372.988,310.011 373.003,310.018 373.025,310.029 373.058,310.046 373.108,310.073 373.183,310.113 373.295,310.177 373.464,310.281 373.716,310.454 374.095,310.742 374.663,311.228 375.504,311.997 376.345,312.722 377.185,313.283 378.026,313.58 378.867,313.541 379.708,313.13 380.549,312.353 381.389,311.258 382.23,309.928 383.071,308.47 383.912,307.003 384.752,305.652 385.593,304.526 385.65,304.471 385.65,304.471 385.652,304.469 385.656,304.465 385.661,304.459 385.668,304.451 385.68,304.438 385.697,304.419 385.723,304.391 385.761,304.348 385.819,304.286 385.905,304.195 386.035,304.064 386.229,303.881 386.521,303.638 386.959,303.347 387.615,303.077 388.456,303.03 389.297,303.3 390.138,303.851 390.978,304.623 391.819,305.552 392.66,306.564 393.501,307.587 394.341,308.557 395.182,309.422 396.023,310.143 396.864,310.703 397.563,311.031 397.563,311.031 397.566,311.031 397.571,311.034 397.578,311.037 397.588,311.04 397.603,311.047 397.626,311.057 397.66,311.072 397.711,311.094 397.788,311.13 397.904,311.186 398.077,311.279 398.336,311.431 398.726,311.687 399.31,312.119 400.151,312.781 400.992,313.399 401.832,313.872 402.673,314.112 403.514,314.058 404.355,313.679 405.195,312.982 406.036,312.009 406.877,310.834 407.718,309.551 408.559,308.265 409.399,307.084 410.24,306.106 410.249,306.099 410.249,306.099 410.251,306.096 410.254,306.093 410.259,306.087 410.267,306.08 410.279,306.069 410.296,306.052 410.322,306.026 410.361,305.988 410.419,305.932 410.506,305.851 410.637,305.734 410.834,305.571 411.129,305.354 411.571,305.095 412.235,304.857 413.075,304.819 413.916,305.06 414.757,305.546 415.598,306.227 416.438,307.043 417.279,307.93 418.12,308.825 418.961,309.671 419.802,310.422 420.642,311.047 421.483,311.528 422.162,311.798 422.162,311.798 422.165,311.8 422.17,311.801 422.176,311.804 422.187,311.807 422.202,311.813 422.226,311.821 422.261,311.834 422.314,311.854 422.393,311.886 422.511,311.936 422.689,312.018 422.955,312.154 423.355,312.383 423.954,312.77 424.795,313.345 425.636,313.879 426.476,314.283 427.317,314.48 428.158,314.416 428.999,314.069 429.84,313.443 430.68,312.578 431.521,311.538 432.362,310.406 433.203,309.276 434.043,308.242 434.847,307.427 434.847,307.427 434.849,307.425 434.852,307.422 434.857,307.418 434.865,307.41 434.877,307.4 434.894,307.385 434.92,307.362 434.96,307.328 435.019,307.279 435.107,307.206 435.239,307.102 435.438,306.957 435.736,306.764 436.183,306.535 436.854,306.326 437.695,306.299 438.535,306.515 439.376,306.948 440.217,307.551 441.058,308.271 441.898,309.053 442.739,309.841 443.58,310.585 444.421,311.244 445.262,311.791 446.102,312.21 446.76,312.439 446.76,312.439 446.763,312.44 446.768,312.442 446.775,312.444 446.786,312.447 446.802,312.452 446.825,312.46 446.861,312.471 446.915,312.49 446.996,312.518 447.117,312.563 447.298,312.637 447.57,312.759 447.979,312.966 448.591,313.315 449.432,313.822 450.273,314.287 451.113,314.634 451.954,314.797 452.795,314.732 453.636,314.414 454.476,313.853 455.317,313.083 456.158,312.162 456.999,311.163 457.84,310.169 458.68,309.264 459.444,308.59 459.444,308.59 459.447,308.588 459.45,308.586 459.455,308.582 459.463,308.575 459.475,308.566 459.492,308.553 459.519,308.532 459.559,308.503 459.618,308.458 459.707,308.394 459.841,308.302 460.042,308.173 460.343,308.003 460.795,307.801 461.473,307.622 462.314,307.606 463.155,307.807 463.995,308.195 464.836,308.734 465.677,309.374 466.518,310.067 467.358,310.763 468.199,311.419 469.04,311.999 469.881,312.478 470.722,312.845 471.358,313.036 471.358,313.036 471.361,313.037 471.366,313.038 471.373,313.041 471.384,313.044 471.4,313.048 471.425,313.055 471.461,313.065 471.516,313.082 471.599,313.107 471.722,313.148 471.908,313.214 472.186,313.325 472.603,313.512 473.229,313.825 474.07,314.268 474.911,314.672 475.752,314.969 476.592,315.102 477.433,315.032 478.274,314.743 479.115,314.24 479.955,313.555 480.796,312.741 481.637,311.861 482.478,310.989 483.319,310.199 484.042,309.645 484.042,309.645 484.044,309.643 484.048,309.641 484.053,309.637 484.061,309.632 484.073,309.624 484.09,309.612 484.117,309.594 484.157,309.568 484.217,309.529 484.308,309.471 484.443,309.389 484.646,309.276 484.95,309.126 485.407,308.949 486.092,308.795 486.933,308.788 487.774,308.971 488.615,309.319 489.455,309.797 490.296,310.363 491.137,310.974 491.978,311.586 492.819,312.161 493.659,312.668 494.5,313.086 495.341,313.404 495.955,313.563 495.955,313.563 495.959,313.564 495.964,313.566 495.971,313.568 495.982,313.57 495.999,313.574 496.024,313.58 496.061,313.589 496.117,313.604 496.202,313.627 496.328,313.663 496.518,313.722 496.803,313.822 497.23,313.99 497.871,314.272 498.711,314.658 499.552,315.008 500.393,315.261 501.234,315.369 502.074,315.298 502.915,315.033 503.756,314.583 504.597,313.974 505.438,313.254 506.278,312.479 507.119,311.715 507.96,311.025 508.639,310.574 508.639,310.574 508.641,310.572 508.645,310.57 508.65,310.567 508.658,310.562 508.67,310.555 508.688,310.544 508.715,310.528 508.756,310.504 508.816,310.47 508.908,310.419 509.044,310.347 509.25,310.246 509.558,310.114 510.019,309.958 510.712,309.824 511.553,309.823 512.393,309.989 513.234,310.298 514.075,310.721 514.916,311.221 515.756,311.758 516.597,312.296 517.438,312.798 518.279,313.242 519.12,313.605 519.96,313.881 520.553,314.013 520.553,314.013 520.556,314.014 520.561,314.016 520.569,314.017 520.58,314.02 520.597,314.023 520.623,314.028 520.661,314.037 520.719,314.05 520.805,314.07 520.934,314.103 521.129,314.156 521.42,314.246 521.857,314.397 522.512,314.65 523.353,314.988 524.194,315.29 525.034,315.507 525.875,315.593 526.716,315.522 527.557,315.281 528.398,314.878 529.238,314.337 530.079,313.7 530.92,313.019 531.761,312.348 532.601,311.747 533.236,311.381 533.236,311.381 533.238,311.38 533.242,311.378 533.247,311.375 533.255,311.371 533.268,311.364 533.286,311.355 533.313,311.341 533.354,311.32 533.415,311.289 533.508,311.244 533.646,311.18 533.853,311.091 534.165,310.974 534.631,310.836 535.331,310.721 536.172,310.725 537.013,310.875 537.854,311.151 538.695,311.525 539.535,311.966 540.376,312.438 541.217,312.91 542.058,313.351 542.898,313.739 543.739,314.056 544.58,314.296 545.15,314.406 545.15,314.406 545.153,314.407 545.158,314.408 545.166,314.409 545.178,314.411 545.195,314.414 545.221,314.419 545.261,314.427 545.319,314.438 545.408,314.456 545.54,314.486 545.739,314.534 546.036,314.615 546.483,314.75 547.154,314.978 547.994,315.274 548.835,315.536 549.676,315.719 550.517,315.788 551.357,315.718 552.198,315.498 553.039,315.137 553.88,314.658 554.721,314.095 555.561,313.496 556.402,312.909 557.243,312.384 557.833,312.09 557.833,312.09 557.835,312.09 557.839,312.087 557.844,312.085 557.853,312.081 557.865,312.075 557.883,312.067 557.911,312.054 557.952,312.036 558.014,312.008 558.108,311.968 558.247,311.912 558.457,311.833 558.772,311.729 559.244,311.61 559.951,311.51 560.792,311.517 561.633,311.653 562.474,311.899 563.314,312.231 564.155,312.619 564.996,313.035 565.837,313.45 566.677,313.837 567.518,314.175 568.359,314.451 569.2,314.66 569.747,314.752 569.747,314.752 569.75,314.752 569.756,314.753 569.763,314.754 569.775,314.756 569.793,314.759 569.82,314.763 569.86,314.77 569.92,314.78 570.01,314.797 570.146,314.823 570.349,314.866 570.654,314.939 571.11,315.061 571.796,315.266 572.637,315.524 573.477,315.751 574.318,315.907 575.159,315.961 576,315.892 576.84,315.692 577.681,315.37 578.522,314.943 579.363,314.447 580.204,313.92 581.044,313.407 581.885,312.95 582.43,312.715 582.43,312.715 582.432,312.715 582.436,312.713 582.441,312.71 582.45,312.707 582.462,312.702 582.481,312.695 582.509,312.683 582.55,312.667 582.613,312.643 582.707,312.608 582.849,312.557 583.061,312.487 583.379,312.396 583.856,312.291 584.571,312.205 585.412,312.216 586.253,312.338 587.094,312.556 587.934,312.85 588.775,313.193 589.616,313.56 590.457,313.922 591.297,314.261 592.138,314.557 592.979,314.797 593.82,314.979 594.344,315.054 594.344,315.054 594.347,315.054 594.353,315.055 594.361,315.057 594.373,315.058 594.391,315.06 594.418,315.065 594.459,315.071 594.521,315.08 594.613,315.094 594.752,315.118 594.96,315.157 595.271,315.222 595.738,315.333 596.439,315.517 597.28,315.742 598.121,315.937 598.962,316.07 599.802,316.112 600.643,316.045 601.484,315.864 602.325,315.574 603.166,315.197 604.006,314.758 604.847,314.295 605.688,313.846 606.529,313.449 607.026,313.264 607.026,313.264 607.029,313.263 607.033,313.262 607.038,313.259 607.047,313.257 607.059,313.252 607.078,313.246 607.106,313.236 607.149,313.221 607.212,313.2 607.307,313.168 607.45,313.124 607.664,313.062 607.986,312.982 608.468,312.889 609.191,312.815 610.032,312.827 610.873,312.938 611.714,313.132 612.555,313.392 613.395,313.694 614.236,314.016 615.077,314.335 615.918,314.631 616.758,314.889 617.599,315.099 618.44,315.255 618.94,315.317 618.94,315.317 618.944,315.318 618.95,315.319 618.958,315.319 618.97,315.322 618.989,315.323 619.017,315.327 619.059,315.332 619.122,315.341 619.216,315.354 619.358,315.376 619.57,315.41 619.889,315.469 620.367,315.568 621.084,315.734 621.925,315.93 622.765,316.099 623.606,316.211 624.447,316.242 625.288,316.178 626.128,316.013 626.969,315.755 627.81,315.42 628.651,315.032 629.492,314.626 630.332,314.233 631.173,313.888 631.623,313.744 631.623,313.744 631.626,313.743 631.629,313.742 631.635,313.741 631.644,313.738 631.656,313.734 631.675,313.728 631.704,313.719 631.747,313.706 631.811,313.687 631.907,313.659 632.052,313.62 632.268,313.566 632.593,313.494 633.081,313.413 633.812,313.35 634.653,313.363 635.493,313.463 636.334,313.636 637.175,313.865 638.016,314.131 638.857,314.414 639.697,314.693 640.538,314.953 641.379,315.178 642.22,315.361 643.06,315.497 643.537,315.548 643.537,315.548 643.541,315.549 643.547,315.549 643.555,315.55 643.568,315.551 643.587,315.553 643.615,315.557 643.658,315.561 643.723,315.569 643.819,315.58 643.964,315.6 644.181,315.631 644.507,315.684 644.996,315.774 645.729,315.922 646.57,316.093 647.411,316.239 648.251,316.333 649.092,316.356 649.933,316.294 650.774,316.145 651.615,315.913 652.455,315.616 653.296,315.275 654.137,314.919 654.978,314.576 655.818,314.276 656.22,314.165 656.22,314.165 656.222,314.164 656.226,314.164 656.232,314.162 656.24,314.159 656.253,314.156 656.273,314.151 656.301,314.144 656.345,314.132 656.41,314.115 656.507,314.09 656.653,314.055 656.872,314.007 657.201,313.944 657.693,313.873 658.433,313.819 659.273,313.833 660.114,313.923 660.955,314.076 661.796,314.279 662.636,314.514 663.477,314.762 664.318,315.007 665.159,315.234 666,315.431 666.84,315.59 667.681,315.708 668.134,315.75 668.134,315.75 668.138,315.75 668.143,315.751 668.152,315.752 668.165,315.753 668.185,315.754 668.214,315.758 668.258,315.761 668.323,315.768 668.422,315.779 668.57,315.796 668.793,315.824 669.126,315.872 669.626,315.953 670.375,316.086 671.216,316.235 672.057,316.36 672.898,316.439 673.739,316.455 674.579,316.397 675.42,316.261 676.261,316.054 677.102,315.79 677.942,315.49 678.783,315.177 679.624,314.878 680.465,314.618 680.817,314.534 680.817,314.534 680.819,314.533 680.823,314.533 680.829,314.532 680.837,314.529 680.85,314.526 680.87,314.522 680.899,314.514 680.943,314.504 681.008,314.49 681.107,314.468 681.254,314.437 681.476,314.394 681.808,314.339 682.306,314.276 683.053,314.23 683.894,314.245 684.735,314.325 685.576,314.462 686.417,314.641 687.257,314.848 688.098,315.066 688.939,315.281 689.78,315.48 690.62,315.651 691.461,315.79 692.302,315.892 692.73,315.926 692.73,315.926 692.734,315.926 692.74,315.926 692.749,315.928 692.762,315.928 692.782,315.93 692.812,315.933 692.857,315.936 692.924,315.943 693.025,315.952 693.177,315.968 693.404,315.993 693.745,316.036 694.256,316.108 695.023,316.228 695.864,316.357 696.705,316.466 697.545,316.532 698.386,316.542 699.227,316.486 700.068,316.364 700.908,316.178 701.749,315.945 702.59,315.68 703.431,315.405 704.271,315.144 705.112,314.919 705.413,314.858 705.413,314.858 705.416,314.857 705.42,314.857 705.425,314.855 705.434,314.853 705.447,314.851 705.467,314.846 705.496,314.84 705.541,314.831 705.607,314.818 705.706,314.798 705.856,314.771 706.08,314.733 706.415,314.684 706.919,314.629 707.674,314.589 708.515,314.605 709.356,314.677 710.197,314.798 711.038,314.957 711.878,315.139 712.719,315.331 713.56,315.519 714.401,315.693 715.241,315.843 716.082,315.963 716.923,316.052 717.327,316.08 717.327,316.08 717.331,316.08 717.337,316.08 717.346,316.081 717.36,316.082 717.38,316.084 717.411,316.086 717.457,316.089 717.525,316.094 717.629,316.103 717.784,316.117 718.016,316.14 718.365,316.178 718.887,316.244 719.672,316.351 720.512,316.464 721.353,316.557 722.194,316.612 723.035,316.617 723.875,316.565 724.716,316.454 725.557,316.288 726.398,316.081 727.239,315.847 728.079,315.607 728.92,315.379 729.761,315.184 730.01,315.14 730.01,315.14 730.012,315.14 730.016,315.139 730.022,315.138 730.031,315.136 730.044,315.134 730.064,315.13 730.094,315.125 730.139,315.116 730.206,315.105 730.306,315.088 730.457,315.063 730.683,315.03 731.023,314.987 731.532,314.939 732.296,314.905 733.137,314.92 733.977,314.985 734.818,315.093 735.659,315.233 736.5,315.394 737.34,315.562 738.181,315.728 739.022,315.88 739.863,316.01 740.703,316.115 741.544,316.192 741.924,316.214 741.924,316.214 741.928,316.214 741.934,316.215 741.943,316.216 741.957,316.217 741.978,316.218 742.009,316.22 742.056,316.223 742.127,316.228 742.232,316.235 742.391,316.248 742.628,316.268 742.985,316.303 743.519,316.362 744.321,316.458 745.162,316.557 746.003,316.636 746.844,316.682 747.684,316.683 748.525,316.634 749.366,316.533 750.207,316.385 751.048,316.202 751.888,315.996 752.729,315.784 753.57,315.586 754.411,315.417 754.606,315.388 754.606,315.388 754.609,315.387 754.613,315.386 754.619,315.386 754.628,315.384 754.641,315.382 754.661,315.379 754.691,315.374 754.737,315.367 754.804,315.357 754.906,315.341 755.059,315.319 755.287,315.29 755.63,315.252 756.145,315.21 756.917,315.181 757.758,315.195 758.599,315.254 759.44,315.35 760.28,315.474 761.121,315.615 761.962,315.763 762.803,315.909 763.643,316.042 764.484,316.156 765.325,316.247 766.166,316.314 766.52,316.332 766.52,316.332 766.524,316.332 766.531,316.333 766.54,316.333 766.554,316.334 766.576,316.335 766.608,316.336 766.656,316.339 766.728,316.344 766.836,316.351 766.998,316.362 767.241,316.381 767.605,316.412 768.152,316.465 768.972,316.551 769.813,316.637 770.654,316.704 771.495,316.742 772.335,316.741 773.176,316.694 774.017,316.603 774.858,316.471 775.698,316.308 776.539,316.127 777.38,315.942 778.221,315.769 779.062,315.622 779.203,315.604 779.203,315.604 779.205,315.604 779.209,315.603 779.215,315.602 779.224,315.601 779.238,315.599 779.258,315.596 779.289,315.592 779.334,315.586 779.403,315.576 779.506,315.563 779.66,315.544 779.891,315.517 780.238,315.484 780.758,315.447 781.539,315.422 782.379,315.436 783.22,315.489 784.061,315.574 784.902,315.684 785.742,315.809 786.583,315.939 787.424,316.067 788.265,316.183 789.106,316.283 789.946,316.362 790.787,316.42 791.117,316.435 791.117,316.435 791.121,316.435 791.127,316.435 791.137,316.435 791.152,316.436 791.173,316.438 791.206,316.439 791.255,316.441 791.329,316.446 791.439,316.452 791.605,316.462 791.854,316.478 792.226,316.506 792.786,316.554 793.624,316.632 794.465,316.706 795.306,316.764 796.147,316.795 796.987,316.791 797.828,316.747 798.669,316.664 799.51,316.547 800.351,316.402 801.191,316.242 802.032,316.08 802.873,315.929 803.714,315.803 803.799,315.793 803.799,315.793 803.802,315.793 803.806,315.793 803.812,315.792 803.821,315.79 803.835,315.788 803.855,315.787 803.886,315.782 803.932,315.777 804.001,315.768 804.105,315.757 804.261,315.739 804.495,315.716 804.845,315.686 805.371,315.654 806.16,315.633 807.001,315.647 807.842,315.694 808.682,315.77 809.523,315.868 810.364,315.978 811.205,316.093 812.045,316.204 812.886,316.306 813.727,316.393 814.568,316.463 815.409,316.513 815.713,316.524 815.713,316.524 815.717,316.524 815.724,316.524 815.734,316.525 815.749,316.526 815.771,316.527 815.805,316.528 815.855,316.53 815.93,316.534 816.043,316.539 816.213,316.548 816.467,316.563 816.848,316.589 817.42,316.632 818.261,316.7 819.101,316.765 819.942,316.814 820.783,316.84 821.624,316.835 822.465,316.795 823.305,316.721 824.146,316.616 824.987,316.488 825.828,316.348 826.668,316.205 827.509,316.073 828.35,315.963 828.395,315.959 828.395,315.959 828.398,315.959 828.402,315.958 828.408,315.957 828.417,315.956 828.431,315.955 828.452,315.953 828.483,315.949 828.53,315.944 828.6,315.936 828.705,315.926 828.862,315.911 829.098,315.891 829.453,315.864 829.984,315.836 830.782,315.817 831.622,315.831 832.463,315.874 833.304,315.941 834.145,316.027 834.986,316.124 835.826,316.226 836.667,316.324 837.508,316.413 838.349,316.489 839.189,316.55 840.03,316.593 840.309,316.602 840.309,316.602 840.314,316.602 840.321,316.602 840.331,316.603 840.346,316.604 840.369,316.604 840.403,316.606 840.454,316.607 840.531,316.61 840.647,316.616 840.82,316.624 841.08,316.637 841.47,316.661 842.055,316.699 842.895,316.759 843.736,316.815 844.577,316.858 845.418,316.879 846.258,316.873 847.099,316.837 847.94,316.771 848.781,316.677 849.622,316.564 850.462,316.44 851.303,316.315 852.144,316.2 852.985,316.104 852.991,316.103 852.991,316.103 852.994,316.103 852.998,316.103 853.004,316.102 853.013,316.101 853.027,316.1 853.048,316.098 853.08,316.095 853.127,316.091 853.198,316.084 853.304,316.074 853.463,316.061 853.702,316.043 854.06,316.02 854.597,315.995 855.403,315.979 856.244,315.992 857.085,316.03 857.926,316.091 858.766,316.166 859.607,316.252 860.448,316.342 861.289,316.428 862.129,316.506 862.97,316.573 863.811,316.626 864.652,316.663 864.906,316.67 864.906,316.67 864.91,316.67 864.917,316.67 864.927,316.671 864.943,316.671 864.966,316.672 865.001,316.673 865.054,316.675 865.133,316.678 865.251,316.683 865.428,316.689 865.693,316.702 866.092,316.723 866.69,316.758 867.531,316.81 868.371,316.859 869.212,316.896 870.053,316.914 870.894,316.907 871.734,316.874 872.575,316.814 873.416,316.731 874.257,316.631 875.098,316.522 875.938,316.412 876.779,316.311 877.587,316.231 877.587,316.231 877.59,316.231 877.594,316.231 877.6,316.23 877.61,316.229 877.624,316.228 877.645,316.226 877.677,316.224 877.724,316.22 877.796,316.214 877.903,316.205 878.064,316.193 878.305,316.177 878.667,316.157 879.211,316.135 880.025,316.122 880.866,316.133 881.706,316.168 882.547,316.221 883.388,316.288 884.229,316.364 884.377,316.378" stroke-width="1" stroke-linecap="butt" stroke-linejoin="round" stroke="#000000" fill="none"/>
   <polyline points="126.929,310.074 126.934,310.074 126.942,310.074 126.953,310.075 126.97,310.077 126.996,310.079 127.035,310.086 127.093,310.102 127.181,310.137 127.312,310.217 127.509,310.397 127.804,310.794 128.246,311.649 128.91,313.398 129.905,316.613 131.381,320.987 133.595,321.759 136.412,309.007 139.095,290.614 142.283,277.063 145.393,278.132 148.11,284.65 150.737,287.656 154.678,277.786 158.179,259.614 162.809,233.453 166.812,211.301 171.651,191.049 175.641,181.047 179.473,169.84 183.903,147.043 188.55,115.894 193.768,89.1696 197.49,87.7043 200.27,97.9734 202.826,110.51 205.469,118.077 208.08,115.816 210.596,108.524 213.112,104.97 216.886,119.985 219.83,144.367 222.714,162.103 226.124,162.92 229.085,157.64 232.028,161.421 234.764,171.422 237.379,177.172 240.032,174.619 242.606,170.318 245.411,175.942 248.246,196.911 250.99,219.479 253.731,226.033 255.8,218.041 257.821,205.859 260.221,195.427 262.545,194.386 264.619,199.695 267.026,208.215 269.984,215.592 273.444,220.168 276.554,227.526 279.718,237.666 282.45,240.797 285.223,234.388 287.728,223.883 290.441,214.977 293.608,215.235 296.366,225.477 299.138,239.677 301.936,249.515 304.796,249.912 307.553,243.736 310.417,236.306 313.401,230.259 316.234,225.803 319.748,223.707 323.131,230.226 325.856,241.494 328.524,251.717 331.337,254.244 334.415,245.978 337.203,234.739 340.549,224.81 343.656,222.003 346.574,225.468 349.56,234.52 352.501,245.122 355.333,250.874 358.657,247.458 361.642,237.898 365.083,226.706 368.625,220.752 371.895,223.313 374.978,233.195 377.881,244.718 380.674,250.869 383.568,248.151 386.279,239.611 389.484,228.711 392.954,221.467 396.126,221.372 399.059,227.974 402.054,239.438 404.849,248.611 407.795,250.266 410.932,242.579 413.877,232.17 417.333,222.979 420.553,220.585 423.572,225.316 426.627,236.16 429.499,246.765 432.36,250.913 435.793,244.572 438.715,234.428 442.221,224.312 445.5,220.68 448.601,224.321 451.697,234.659 454.608,245.805 457.435,251.044 460.491,246.967 463.293,237.661 466.736,226.582 470.142,220.983 473.296,222.787 476.361,231.601 479.326,243.271 482.116,250.455 485.309,248.565 488.13,239.916 491.292,229.125 494.808,221.669 498.002,221.659 500.938,228.459 503.92,239.96 506.71,249.008 509.673,250.451 512.762,242.798 515.714,232.419 519.091,223.412 522.294,220.798 525.336,225.283 528.402,236.028 531.28,246.732 534.129,251.086 537.549,244.987 540.463,234.859 543.907,224.72 547.182,220.775 550.288,224.061 553.378,234.107 556.299,245.374 559.118,251.007 562.062,247.695 564.822,238.814 568.125,227.836 571.576,221.32 574.749,222.202 577.761,230.047 580.74,241.735 583.515,249.861 586.572,249.725 589.396,241.955 592.402,231.435 596.254,222.216 599.539,221.406 602.474,227.55 605.474,238.884 608.286,248.464 611.206,250.807 614.524,243.098 617.476,232.724 620.989,223.368 624.226,220.91 627.266,225.619 630.332,236.481 633.202,247.047 636.059,251.131 639.489,244.723 642.411,234.537 645.917,224.425 649.195,220.846 652.292,224.536 655.382,234.856 658.29,245.943 661.119,251.131 664.191,246.983 667.001,237.644 670.463,226.567 673.869,221.077 677.025,223.016 680.095,231.962 683.056,243.596 685.849,250.622 689.07,248.45 691.901,239.657 695.095,228.85 698.582,221.693 701.767,221.92 704.725,228.989 707.708,240.545 710.491,249.342 713.475,250.387 716.488,242.724 719.448,232.336 722.801,223.483 725.996,220.959 729.03,225.499 732.093,236.252 734.968,246.907 737.82,251.193 741.242,245.03 744.159,234.901 747.612,224.791 750.887,220.927 753.991,224.291 757.081,234.382 760,245.598 762.82,251.134 765.775,247.7 768.541,238.765 771.865,227.784 775.309,221.42 778.479,222.449 781.501,230.447 784.478,242.125 787.256,250.09 790.332,249.677 793.118,241.894 796.14,231.349 799.946,222.334 803.219,221.569 806.146,227.704 809.141,239.008 811.953,248.573 814.873,250.917 818.193,243.217 821.145,232.857 824.662,223.51 827.899,221.065 830.94,225.78 834.004,236.63 836.874,247.172 839.732,251.239 843.162,244.825 846.085,234.65 849.593,224.557 852.871,220.999 855.967,224.703 859.057,235.018 861.964,246.079 864.794,251.241 867.877,247.052 870.69,237.699 874.162,226.632 877.568,221.213 880.724,223.225 883.796,232.227 884.377,234.504" stroke-width="1" stroke-linecap="butt" stroke-linejoin="round" stroke="#000000" fill="none" stroke-dasharray="1,3,1,3,1,3,1,3"/>
  </g>
  <clipPath id="cp00976449">
   <polygon points="0,449 976,449 976,0 0,0"/>
  </clipPath>
  <g clip-path="url(#cp00976449)">
   <polygon points="707.627,122.64 871.822,122.64 871.822,45.4761 707.627,45.4761" fill="#ffffff" shape-rendering="crispEdges"/>
   <polyline points="707.627,122.64 871.822,122.64" stroke-width="0.5" stroke-linecap="square" stroke-linejoin="miter" stroke="#262626" fill="none" stroke-dasharray="16,0"/>
   <polyline points="707.627,45.4761 871.822,45.4761" stroke-width="0.5" stroke-linecap="square" stroke-linejoin="miter" stroke="#262626" fill="none" stroke-dasharray="16,0"/>
   <polyline points="707.627,122.64 707.627,45.4761" stroke-width="0.5" stroke-linecap="square" stroke-linejoin="miter" stroke="#262626" fill="none" stroke-dasharray="16,0"/>
   <polyline points="871.822,122.64 871.822,45.4761" stroke-width="0.5" stroke-linecap="square" stroke-linejoin="miter" stroke="#262626" fill="none" stroke-dasharray="16,0"/>
   <polyline points="713.526,66.2419 743.023,66.2419" stroke-width="1" stroke-linecap="butt" stroke-linejoin="round" stroke="#000000" fill="none"/>
   <g font-weight="normal" font-family="FreeSans" font-style="normal" transform="translate(748.922,75.2418) rotate(-0,-0,-9)" font-size="21.6" xml:space="preserve">
    <text x="0 13 19 24 29 42 47 59 64 77 95 107 " y="-1" fill="rgb(0,0,0)">Fti = u Fmax</text>
   </g>
   <polyline points="713.526,101.874 743.023,101.874" stroke-width="1" stroke-linecap="butt" stroke-linejoin="round" stroke="#000000" fill="none" stroke-dasharray="1,3,1,3,1,3,1,3"/>
   <g font-weight="normal" font-family="FreeSans" font-style="normal" transform="translate(748.922,110.374) rotate(-0,-0,-8.5)" font-size="21.6" xml:space="preserve">
    <text x="0 13 19 24 29 42 47 " y="-0" fill="rgb(0,0,0)">Fti = 1</text>
   </g>
  </g>
 </g>
</svg>
