<?xml version='1.0' encoding='UTF-8' standalone='no'?>
<svg viewBox="0 0 976 449" xmlns:xlink="http://www.w3.org/1999/xlink" height="449pt" xmlns="http://www.w3.org/2000/svg" width="976pt">
 <title>Figure 1</title>
 <desc>
Creator: GL2PS 1.4.2, (C) 1999-2020 C. Geuzaine
For: Octave
CreationDate: Tue Jan 31 12:49:35 2023
</desc>
 <defs/>
 <polygon fill="#ffffff" points="0,0 976,0 976,449 0,449"/>
 <g>
  <polygon fill="#ffffff" points="0,449 976,449 976,0 0,0" shape-rendering="crispEdges"/>
  <clipPath id="cp00976449">
   <polygon points="0,449 976,449 976,0 0,0"/>
  </clipPath>
  <g clip-path="url(#cp00976449)">
   <polygon fill="#ffffff" points="126.929,388.033 883.62,388.033 883.62,33.6774 126.929,33.6774" shape-rendering="crispEdges"/>
   <polyline fill="none" stroke-dasharray="16,0" stroke-linejoin="miter" points="126.929,388.033 126.929,33.6774" stroke-width="0.5" stroke-linecap="butt" stroke-opacity="0.15" stroke="#262626"/>
   <polyline fill="none" stroke-dasharray="16,0" stroke-linejoin="miter" points="326.058,388.033 326.058,33.6774" stroke-width="0.5" stroke-linecap="butt" stroke-opacity="0.15" stroke="#262626"/>
   <polyline fill="none" stroke-dasharray="16,0" stroke-linejoin="miter" points="525.188,388.033 525.188,33.6774" stroke-width="0.5" stroke-linecap="butt" stroke-opacity="0.15" stroke="#262626"/>
   <polyline fill="none" stroke-dasharray="16,0" stroke-linejoin="miter" points="724.317,388.033 724.317,33.6774" stroke-width="0.5" stroke-linecap="butt" stroke-opacity="0.15" stroke="#262626"/>
   <polyline fill="none" stroke-linejoin="miter" points="126.929,388.033 126.929,380.459" stroke-width="0.5" stroke-linecap="butt" stroke="#262626"/>
   <polyline fill="none" stroke-linejoin="miter" points="326.058,388.033 326.058,380.459" stroke-width="0.5" stroke-linecap="butt" stroke="#262626"/>
   <polyline fill="none" stroke-linejoin="miter" points="525.188,388.033 525.188,380.459" stroke-width="0.5" stroke-linecap="butt" stroke="#262626"/>
   <polyline fill="none" stroke-linejoin="miter" points="724.317,388.033 724.317,380.459" stroke-width="0.5" stroke-linecap="butt" stroke="#262626"/>
   <g font-style="normal" font-family="'Times New Roman'" font-size="24" xml:space="preserve" transform="translate(120.929,423.051) rotate(-0,6,-17)" font-weight="normal">
    <text fill="rgb(38,38,38)" y="-0" x="0 ">0</text>
   </g>
   <g font-style="normal" font-family="'Times New Roman'" font-size="24" xml:space="preserve" transform="translate(296.058,423.051) rotate(-0,30,-17)" font-weight="normal">
    <text fill="rgb(38,38,38)" y="-0" x="0 12 24 36 48 ">50000</text>
   </g>
   <g font-style="normal" font-family="'Times New Roman'" font-size="24" xml:space="preserve" transform="translate(489.188,423.051) rotate(-0,36,-17)" font-weight="normal">
    <text fill="rgb(38,38,38)" y="-0" x="0 12 24 36 48 60 ">100000</text>
   </g>
   <g font-style="normal" font-family="'Times New Roman'" font-size="24" xml:space="preserve" transform="translate(688.317,423.051) rotate(-0,36,-17)" font-weight="normal">
    <text fill="rgb(38,38,38)" y="-0" x="0 12 24 36 48 60 ">150000</text>
   </g>
   <polyline fill="none" stroke-dasharray="16,0" stroke-linejoin="miter" points="126.929,388.033 883.62,388.033" stroke-width="0.5" stroke-linecap="butt" stroke-opacity="0.15" stroke="#262626"/>
   <polyline fill="none" stroke-dasharray="16,0" stroke-linejoin="miter" points="126.929,328.974 883.62,328.974" stroke-width="0.5" stroke-linecap="butt" stroke-opacity="0.15" stroke="#262626"/>
   <polyline fill="none" stroke-dasharray="16,0" stroke-linejoin="miter" points="126.929,269.915 883.62,269.915" stroke-width="0.5" stroke-linecap="butt" stroke-opacity="0.15" stroke="#262626"/>
   <polyline fill="none" stroke-dasharray="16,0" stroke-linejoin="miter" points="126.929,210.855 883.62,210.855" stroke-width="0.5" stroke-linecap="butt" stroke-opacity="0.15" stroke="#262626"/>
   <polyline fill="none" stroke-dasharray="16,0" stroke-linejoin="miter" points="126.929,151.796 883.62,151.796" stroke-width="0.5" stroke-linecap="butt" stroke-opacity="0.15" stroke="#262626"/>
   <polyline fill="none" stroke-dasharray="16,0" stroke-linejoin="miter" points="126.929,92.7367 883.62,92.7367" stroke-width="0.5" stroke-linecap="butt" stroke-opacity="0.15" stroke="#262626"/>
   <polyline fill="none" stroke-dasharray="16,0" stroke-linejoin="miter" points="126.929,33.6774 883.62,33.6774" stroke-width="0.5" stroke-linecap="butt" stroke-opacity="0.15" stroke="#262626"/>
   <polyline fill="none" stroke-linejoin="miter" points="126.929,388.033 134.493,388.033" stroke-width="0.5" stroke-linecap="butt" stroke="#262626"/>
   <polyline fill="none" stroke-linejoin="miter" points="126.929,328.974 134.493,328.974" stroke-width="0.5" stroke-linecap="butt" stroke="#262626"/>
   <polyline fill="none" stroke-linejoin="miter" points="126.929,269.915 134.493,269.915" stroke-width="0.5" stroke-linecap="butt" stroke="#262626"/>
   <polyline fill="none" stroke-linejoin="miter" points="126.929,210.855 134.493,210.855" stroke-width="0.5" stroke-linecap="butt" stroke="#262626"/>
   <polyline fill="none" stroke-linejoin="miter" points="126.929,151.796 134.493,151.796" stroke-width="0.5" stroke-linecap="butt" stroke="#262626"/>
   <polyline fill="none" stroke-linejoin="miter" points="126.929,92.7367 134.493,92.7367" stroke-width="0.5" stroke-linecap="butt" stroke="#262626"/>
   <polyline fill="none" stroke-linejoin="miter" points="126.929,33.6774 134.493,33.6774" stroke-width="0.5" stroke-linecap="butt" stroke="#262626"/>
   <g font-style="normal" font-family="'Times New Roman'" font-size="24" xml:space="preserve" transform="translate(64.9338,396.533) rotate(-0,50,-8.5)" font-weight="normal">
    <text fill="rgb(38,38,38)" y="-0" x="0 8 20 26 38 ">-0.06</text>
   </g>
   <g font-style="normal" font-family="'Times New Roman'" font-size="24" xml:space="preserve" transform="translate(64.9338,337.474) rotate(-0,50,-8.5)" font-weight="normal">
    <text fill="rgb(38,38,38)" y="-0" x="0 8 20 26 38 ">-0.04</text>
   </g>
   <g font-style="normal" font-family="'Times New Roman'" font-size="24" xml:space="preserve" transform="translate(64.9338,278.415) rotate(-0,50,-8.5)" font-weight="normal">
    <text fill="rgb(38,38,38)" y="-0" x="0 8 20 26 38 ">-0.02</text>
   </g>
   <g font-style="normal" font-family="'Times New Roman'" font-size="24" xml:space="preserve" transform="translate(102.934,219.355) rotate(-0,12,-8.5)" font-weight="normal">
    <text fill="rgb(38,38,38)" y="-0" x="0 ">0</text>
   </g>
   <g font-style="normal" font-family="'Times New Roman'" font-size="24" xml:space="preserve" transform="translate(72.9338,160.296) rotate(-0,42,-8.5)" font-weight="normal">
    <text fill="rgb(38,38,38)" y="-0" x="0 12 18 30 ">0.02</text>
   </g>
   <g font-style="normal" font-family="'Times New Roman'" font-size="24" xml:space="preserve" transform="translate(72.9338,101.237) rotate(-0,42,-8.5)" font-weight="normal">
    <text fill="rgb(38,38,38)" y="-0" x="0 12 18 30 ">0.04</text>
   </g>
   <g font-style="normal" font-family="'Times New Roman'" font-size="24" xml:space="preserve" transform="translate(72.9338,42.1774) rotate(-0,42,-8.5)" font-weight="normal">
    <text fill="rgb(38,38,38)" y="-0" x="0 12 18 30 ">0.06</text>
   </g>
   <polyline fill="none" stroke-dasharray="16,0" stroke-linejoin="miter" points="126.929,388.033 883.62,388.033" stroke-width="0.5" stroke-linecap="square" stroke="#262626"/>
   <polyline fill="none" stroke-dasharray="16,0" stroke-linejoin="miter" points="126.929,388.033 126.929,33.6774" stroke-width="0.5" stroke-linecap="square" stroke="#262626"/>
   <g font-style="normal" font-family="'Times New Roman'" font-size="26.4" xml:space="preserve" transform="translate(488.775,449.051) rotate(-0,16.5,-21)" font-weight="normal">
    <text fill="rgb(38,38,38)" y="-4" x="0 7 14 21 ">t, c</text>
   </g>
   <g font-style="normal" font-family="'Times New Roman'" font-size="26.4" xml:space="preserve" transform="translate(26.4338,210.855) rotate(-90,33.5,0)" font-weight="normal">
    <text fill="rgb(38,38,38)" y="-5" x="0 12 21 28 37 44 51 ">z(t), м</text>
   </g>
   <polyline fill="none" stroke-linejoin="round" points="126.929,63.207 126.931,63.2071 126.935,63.2072 126.94,63.2077 126.949,63.209 126.961,63.2122 126.979,63.2198 127.007,63.2377 127.048,63.2789 127.11,63.373 127.203,63.5872 127.343,64.072 127.553,65.166 127.867,67.6254 128.265,72.1267 128.664,78.131 129.062,85.5737 129.46,94.3743 129.858,104.438 130.257,115.655 130.655,127.903 131.053,141.051 131.451,154.955 131.85,169.464 132.248,184.421 132.646,199.663 132.936,210.848 132.936,210.848 132.937,210.883 132.938,210.936 132.941,211.015 132.944,211.134 132.948,211.313 132.955,211.58 132.966,211.982 132.981,212.584 133.005,213.487 133.04,214.841 133.092,216.872 133.171,219.916 133.29,224.473 133.468,231.279 133.735,241.39 134.133,256.153 134.531,270.359 134.929,283.836 135.328,296.416 135.726,307.946 136.124,318.285 136.523,327.304 136.921,334.894 137.319,340.962 137.717,345.432 138.116,348.251 138.514,349.383 138.58,349.288 138.58,349.288 138.581,349.288 138.583,349.288 138.586,349.288 138.589,349.288 138.595,349.287 138.604,349.285 138.617,349.282 138.636,349.273 138.665,349.254 138.708,349.21 138.773,349.112 138.871,348.888 139.018,348.385 139.238,347.252 139.568,344.712 139.966,340.328 140.365,334.547 140.763,327.43 141.161,319.053 141.56,309.508 141.958,298.898 142.356,287.336 142.754,274.948 143.153,261.869 143.551,248.239 143.949,234.206 144.347,219.921 144.598,210.86 144.598,210.86 144.599,210.825 144.601,210.773 144.603,210.695 144.606,210.578 144.611,210.402 144.618,210.139 144.629,209.744 144.646,209.151 144.67,208.262 144.707,206.928 144.763,204.929 144.846,201.933 144.971,197.448 145.158,190.753 145.438,180.818 145.837,167.05 146.235,153.819 146.633,141.289 147.031,129.613 147.43,118.934 147.828,109.384 148.226,101.079 148.624,94.1214 149.023,88.5969 149.421,84.5732 149.819,82.0997 150.217,81.2067 150.242,81.2497 150.242,81.2497 150.243,81.2497 150.245,81.2497 150.247,81.2498 150.25,81.25 150.255,81.2505 150.263,81.2517 150.275,81.2544 150.292,81.2607 150.318,81.2751 150.357,81.3078 150.415,81.3819 150.502,81.5492 150.633,81.9265 150.83,82.7759 151.125,84.6828 151.524,88.4409 151.922,93.5227 152.32,99.8734 152.718,107.425 153.117,116.095 153.515,125.79 153.913,136.406 154.311,147.826 154.71,159.928 155.108,172.58 155.506,185.645 155.904,198.983 156.255,210.85 156.255,210.85 156.256,210.883 156.258,210.932 156.26,211.007 156.263,211.118 156.268,211.286 156.276,211.537 156.287,211.914 156.304,212.479 156.329,213.327 156.366,214.599 156.423,216.505 156.507,219.362 156.634,223.638 156.824,230.02 157.11,239.488 157.508,252.381 157.906,264.764 158.305,276.485 158.703,287.401 159.101,297.377 159.499,306.291 159.898,314.034 160.296,320.51 160.694,325.64 161.092,329.361 161.491,331.627 161.889,332.411 161.899,332.393 161.899,332.393 161.9,332.393 161.902,332.392 161.905,332.392 161.909,332.392 161.915,332.391 161.924,332.39 161.937,332.386 161.958,332.378 161.988,332.36 162.034,332.317 162.102,332.221 162.205,332.004 162.359,331.515 162.591,330.414 162.937,327.946 163.336,323.927 163.734,318.685 164.132,312.275 164.53,304.767 164.929,296.242 165.327,286.792 165.725,276.52 166.124,265.538 166.522,253.963 166.92,241.923 167.318,229.546 167.717,216.967 167.909,210.855 167.909,210.855 167.91,210.823 167.912,210.776 167.914,210.706 167.917,210.6 167.922,210.441 167.93,210.203 167.941,209.846 167.958,209.31 167.983,208.507 168.021,207.302 168.078,205.495 168.164,202.788 168.292,198.736 168.484,192.688 168.773,183.72 169.171,171.642 169.569,160.044 169.968,149.071 170.366,138.856 170.764,129.525 171.162,121.192 171.561,113.96 171.959,107.917 172.357,103.138 172.755,99.6814 173.154,97.5892 173.552,96.8874 173.553,96.8886 173.553,96.8886 173.554,96.8886 173.556,96.8886 173.559,96.8887 173.563,96.889 173.569,96.8897 173.579,96.8913 173.593,96.8951 173.615,96.9037 173.647,96.9236 173.696,96.9687 173.769,97.071 173.879,97.3021 174.043,97.8232 174.289,98.9951 174.659,101.621 175.057,105.589 175.456,110.696 175.854,116.887 176.252,124.096 176.65,132.245 177.049,141.244 177.447,150.998 177.845,161.399 178.244,172.335 178.642,183.688 179.04,195.334 179.438,207.149 179.563,210.861 179.563,210.861 179.564,210.89 179.565,210.935 179.568,211.002 179.571,211.102 179.576,211.252 179.584,211.478 179.595,211.817 179.612,212.325 179.638,213.086 179.676,214.228 179.734,215.941 179.82,218.507 179.95,222.348 180.144,228.08 180.436,236.577 180.834,247.896 181.232,258.76 181.631,269.036 182.029,278.598 182.427,287.328 182.826,295.12 183.224,301.877 183.622,307.517 184.02,311.97 184.419,315.182 184.817,317.113 185.206,317.727 185.206,317.727 185.207,317.727 185.209,317.727 185.212,317.726 185.216,317.726 185.222,317.726 185.232,317.724 185.246,317.721 185.267,317.713 185.298,317.696 185.346,317.656 185.417,317.565 185.523,317.361 185.683,316.899 185.922,315.862 186.282,313.536 186.68,309.902 187.078,305.196 187.476,299.469 187.875,292.782 188.273,285.209 188.671,276.83 189.069,267.738 189.468,258.03 189.866,247.812 190.264,237.194 190.662,226.291 191.061,215.221 191.217,210.852 191.217,210.852 191.218,210.824 191.22,210.782 191.222,210.718 191.225,210.623 191.231,210.481 191.238,210.267 191.25,209.946 191.267,209.465 191.293,208.743 191.332,207.661 191.39,206.038 191.477,203.606 191.608,199.966 191.805,194.536 192.1,186.487 192.498,175.883 192.896,165.709 193.294,156.09 193.693,147.142 194.091,138.977 194.489,131.694 194.887,125.382 195.286,120.12 195.684,115.972 196.082,112.988 196.48,111.206 196.86,110.673 196.86,110.673 196.862,110.673 196.864,110.673 196.866,110.673 196.87,110.673 196.877,110.674 196.886,110.675 196.9,110.678 196.921,110.685 196.952,110.702 196.999,110.739 197.07,110.823 197.176,111.014 197.336,111.443 197.574,112.41 197.933,114.578 198.331,117.977 198.729,122.381 199.127,127.743 199.526,134.005 199.924,141.099 200.322,148.949 200.72,157.468 201.119,166.566 201.517,176.143 201.915,186.095 202.313,196.316 202.712,206.693 202.871,210.858 202.871,210.858 202.872,210.885 202.873,210.925 202.876,210.985 202.879,211.075 202.884,211.21 202.892,211.413 202.904,211.717 202.921,212.173 202.947,212.857 202.986,213.883 203.045,215.421 203.134,217.725 203.266,221.174 203.465,226.319 203.763,233.943 204.161,243.876 204.559,253.403 204.958,262.408 205.356,270.78 205.754,278.417 206.152,285.224 206.551,291.118 206.949,296.027 207.347,299.89 207.745,302.661 208.144,304.305 208.514,304.766 208.514,304.766 208.515,304.766 208.517,304.766 208.52,304.766 208.524,304.766 208.531,304.766 208.541,304.764 208.555,304.761 208.577,304.754 208.61,304.737 208.66,304.698 208.734,304.611 208.846,304.414 209.013,303.969 209.264,302.969 209.64,300.728 210.038,297.411 210.437,293.157 210.835,288.011 211.233,282.03 211.632,275.278 212.03,267.828 212.428,259.761 212.826,251.165 213.225,242.133 213.623,232.762 214.021,223.154 214.419,213.413 214.524,210.85 214.524,210.85 214.525,210.825 214.526,210.787 214.529,210.73 214.532,210.645 214.537,210.517 214.545,210.325 214.557,210.036 214.575,209.604 214.601,208.956 214.641,207.984 214.7,206.526 214.789,204.342 214.923,201.073 215.124,196.197 215.425,188.974 215.824,179.668 216.222,170.745 216.62,162.314 217.018,154.479 217.417,147.336 217.815,140.972 218.213,135.467 218.611,130.887 219.01,127.288 219.408,124.716 219.806,123.2 220.167,122.803 220.167,122.803 220.168,122.803 220.17,122.803 220.173,122.803 220.178,122.803 220.184,122.804 220.195,122.805 220.21,122.808 220.233,122.816 220.267,122.833 220.318,122.871 220.395,122.959 220.511,123.158 220.684,123.605 220.944,124.611 221.334,126.864 221.732,130.065 222.13,134.142 222.528,139.049 222.927,144.734 223.325,151.135 223.723,158.182 224.121,165.8 224.52,173.906 224.918,182.412 225.316,191.226 225.714,200.252 226.113,209.393 226.176,210.86 226.176,210.86 226.177,210.884 226.179,210.92 226.181,210.974 226.185,211.055 226.19,211.176 226.198,211.358 226.21,211.632 226.228,212.041 226.255,212.656 226.295,213.578 226.355,214.96 226.445,217.03 226.58,220.128 226.783,224.75 227.088,231.594 227.486,240.315 227.884,248.675 228.282,256.57 228.681,263.905 229.079,270.588 229.477,276.538 229.875,281.681 230.274,285.955 230.672,289.307 231.07,291.697 231.469,293.093 231.819,293.435 231.819,293.435 231.821,293.435 231.823,293.435 231.826,293.435 231.83,293.434 231.837,293.434 231.848,293.433 231.863,293.43 231.886,293.422 231.921,293.406 231.973,293.368 232.051,293.283 232.169,293.092 232.345,292.659 232.608,291.686 233.004,289.507 233.403,286.467 233.801,282.607 234.199,277.97 234.597,272.607 234.996,266.574 235.394,259.939 235.792,252.771 236.19,245.15 236.589,237.158 236.987,228.88 237.385,220.408 237.783,211.832 237.829,210.852 237.829,210.852 237.83,210.829 237.832,210.795 237.834,210.744 237.837,210.667 237.843,210.552 237.851,210.379 237.863,210.12 237.881,209.732 237.908,209.149 237.948,208.275 238.009,206.965 238.1,205.002 238.237,202.065 238.442,197.684 238.75,191.198 239.148,183.024 239.546,175.192 239.945,167.798 240.343,160.932 240.741,154.679 241.139,149.116 241.538,144.31 241.936,140.321 242.334,137.198 242.732,134.98 243.131,133.692 243.472,133.401 243.472,133.401 243.473,133.401 243.475,133.401 243.479,133.401 243.483,133.401 243.49,133.402 243.501,133.403 243.516,133.406 243.54,133.413 243.576,133.429 243.629,133.466 243.708,133.549 243.828,133.736 244.008,134.158 244.277,135.108 244.675,137.198 245.073,140.086 245.471,143.741 245.87,148.122 246.268,153.183 246.666,158.868 247.065,165.117 247.463,171.861 247.861,179.027 248.259,186.538 248.658,194.312 249.056,202.265 249.454,210.312 249.481,210.858 249.481,210.858 249.482,210.879 249.484,210.912 249.486,210.96 249.49,211.033 249.495,211.142 249.503,211.306 249.515,211.551 249.534,211.92 249.561,212.472 249.602,213.301 249.663,214.543 249.755,216.405 249.894,219.189 250.101,223.342 250.412,229.489 250.81,237.15 251.208,244.489 251.607,251.415 252.005,257.843 252.403,263.695 252.801,268.897 253.2,273.388 253.598,277.11 253.996,280.02 254.395,282.08 254.793,283.266 255.124,283.513 255.124,283.513 255.126,283.513 255.128,283.513 255.131,283.513 255.136,283.513 255.143,283.512 255.154,283.511 255.17,283.508 255.194,283.501 255.231,283.485 255.285,283.449 255.367,283.367 255.49,283.181 255.675,282.762 255.952,281.821 256.35,279.817 256.748,277.066 257.146,273.597 257.545,269.449 257.943,264.667 258.341,259.301 258.739,253.411 259.138,247.06 259.536,240.317 259.934,233.255 260.332,225.95 260.731,218.482 261.129,210.931 261.133,210.855 261.133,210.855 261.134,210.835 261.136,210.804 261.138,210.758 261.142,210.689 261.147,210.585 261.155,210.43 261.168,210.197 261.186,209.848 261.214,209.324 261.255,208.538 261.317,207.36 261.41,205.595 261.55,202.954 261.759,199.016 262.074,193.19 262.472,186.007 262.87,179.129 263.268,172.64 263.667,166.621 264.065,161.144 264.463,156.278 264.862,152.081 265.26,148.607 265.658,145.896 266.056,143.983 266.455,142.89 266.776,142.682 266.776,142.682 266.778,142.682 266.78,142.682 266.783,142.682 266.788,142.682 266.795,142.683 266.806,142.684 266.823,142.687 266.848,142.694 266.885,142.709 266.941,142.745 267.026,142.826 267.152,143.01 267.341,143.423 267.625,144.353 268.023,146.272 268.422,148.891 268.82,152.181 269.218,156.106 269.616,160.625 270.015,165.687 270.413,171.239 270.811,177.22 271.209,183.565 271.608,190.206 272.006,197.07 272.404,204.084 272.785,210.854 272.785,210.854 272.786,210.873 272.787,210.902 272.79,210.946 272.793,211.011 272.799,211.11 272.807,211.257 272.82,211.478 272.838,211.809 272.866,212.306 272.908,213.051 272.971,214.168 273.065,215.842 273.206,218.345 273.418,222.078 273.735,227.6 274.134,234.332 274.532,240.777 274.93,246.854 275.328,252.489 275.727,257.613 276.125,262.163 276.523,266.084 276.922,269.326 277.32,271.851 277.718,273.627 278.116,274.632 278.428,274.806 278.428,274.806 278.429,274.806 278.432,274.806 278.435,274.806 278.44,274.806 278.447,274.806 278.459,274.804 278.476,274.801 278.501,274.795 278.539,274.779 278.597,274.744 278.683,274.665 278.812,274.485 279.005,274.08 279.295,273.171 279.693,271.339 280.092,268.853 280.49,265.738 280.888,262.029 281.286,257.766 281.685,252.994 282.083,247.766 282.481,242.139 282.88,236.172 283.278,229.931 283.676,223.484 284.074,216.9 284.436,210.858 284.436,210.858 284.437,210.839 284.439,210.812 284.441,210.77 284.445,210.708 284.451,210.615 284.459,210.476 284.472,210.266 284.49,209.952 284.518,209.481 284.561,208.775 284.624,207.716 284.719,206.13 284.862,203.757 285.076,200.219 285.397,194.988 285.795,188.679 286.194,182.643 286.592,176.953 286.99,171.679 287.388,166.886 287.787,162.633 288.185,158.972 288.583,155.948 288.982,153.598 289.38,151.95 289.778,151.026 290.079,150.882 290.079,150.882 290.081,150.882 290.083,150.882 290.087,150.882 290.092,150.882 290.1,150.883 290.111,150.884 290.128,150.887 290.154,150.893 290.194,150.909 290.252,150.943 290.34,151.021 290.472,151.197 290.669,151.593 290.966,152.485 291.364,154.232 291.762,156.593 292.161,159.541 292.559,163.046 292.957,167.068 293.355,171.565 293.754,176.487 294.152,181.781 294.55,187.391 294.949,193.255 295.347,199.309 295.745,205.488 296.088,210.852 296.088,210.852 296.089,210.87 296.09,210.896 296.093,210.935 296.097,210.994 296.102,211.082 296.111,211.214 296.123,211.413 296.142,211.71 296.171,212.157 296.214,212.826 296.278,213.83 296.374,215.333 296.518,217.582 296.734,220.934 297.059,225.89 297.457,231.799 297.855,237.451 298.254,242.777 298.652,247.711 299.05,252.192 299.449,256.166 299.847,259.584 300.245,262.404 300.643,264.591 301.042,266.118 301.44,266.967 301.731,267.084 301.731,267.084 301.732,267.084 301.735,267.084 301.738,267.084 301.744,267.084 301.751,267.083 301.763,267.082 301.781,267.079 301.808,267.073 301.848,267.058 301.908,267.024 301.998,266.948 302.132,266.775 302.335,266.385 302.638,265.51 303.036,263.842 303.435,261.599 303.833,258.806 304.231,255.495 304.629,251.699 305.028,247.461 305.426,242.826 305.824,237.846 306.222,232.572 306.621,227.064 307.019,221.38 307.417,215.582 307.739,210.858 307.739,210.858 307.74,210.842 307.742,210.817 307.744,210.78 307.748,210.724 307.754,210.641 307.762,210.515 307.775,210.327 307.794,210.045 307.823,209.622 307.866,208.988 307.931,208.037 308.028,206.613 308.174,204.482 308.393,201.307 308.721,196.614 309.119,191.08 309.517,185.789 309.916,180.805 310.314,176.191 310.712,172.002 311.11,168.29 311.509,165.1 311.907,162.472 312.305,160.438 312.703,159.023 313.102,158.244 313.382,158.151 313.382,158.151 313.384,158.151 313.386,158.151 313.39,158.151 313.395,158.151 313.403,158.151 313.415,158.152 313.434,158.155 313.461,158.162 313.502,158.176 313.563,158.209 313.655,158.284 313.793,158.454 314,158.836 314.31,159.694 314.709,161.287 315.107,163.417 315.505,166.061 315.904,169.191 316.302,172.771 316.7,176.764 317.098,181.127 317.497,185.811 317.895,190.767 318.293,195.941 318.691,201.276 319.09,206.714 319.39,210.853 319.39,210.853 319.391,210.868 319.393,210.892 319.396,210.927 319.399,210.98 319.405,211.059 319.414,211.178 319.427,211.356 319.446,211.623 319.475,212.024 319.519,212.624 319.584,213.525 319.683,214.875 319.83,216.893 320.051,219.901 320.383,224.344 320.781,229.525 321.179,234.477 321.578,239.139 321.976,243.454 322.374,247.368 322.772,250.834 323.171,253.81 323.569,256.258 323.967,258.149 324.365,259.46 324.764,260.174 325.034,260.247 325.034,260.247 325.035,260.247 325.038,260.247 325.041,260.247 325.047,260.247 325.055,260.246 325.067,260.245 325.086,260.242 325.114,260.236 325.156,260.222 325.218,260.19 325.312,260.116 325.454,259.95 325.665,259.575 325.983,258.735 326.381,257.215 326.779,255.192 327.177,252.69 327.576,249.734 327.974,246.357 328.372,242.596 328.77,238.49 329.169,234.085 329.567,229.429 329.965,224.571 330.364,219.565 330.762,214.465 331.041,210.858 331.041,210.858 331.042,210.843 331.044,210.821 331.047,210.787 331.051,210.737 331.056,210.662 331.065,210.55 331.078,210.381 331.098,210.128 331.127,209.748 331.171,209.179 331.238,208.326 331.337,207.048 331.486,205.136 331.71,202.288 332.045,198.082 332.443,193.232 332.841,188.598 333.24,184.238 333.638,180.205 334.036,176.548 334.434,173.312 334.833,170.536 335.231,168.256 335.629,166.499 336.027,165.286 336.426,164.632 336.685,164.576 336.685,164.576 336.686,164.576 336.689,164.576 336.693,164.576 336.698,164.577 336.707,164.577 336.719,164.578 336.738,164.581 336.767,164.587 336.81,164.601 336.874,164.633 336.97,164.705 337.114,164.868 337.331,165.234 337.655,166.058 338.054,167.508 338.452,169.428 338.85,171.796 339.248,174.588 339.647,177.773 340.045,181.316 340.443,185.179 340.841,189.32 341.24,193.694 341.638,198.255 342.036,202.951 342.434,207.734 342.692,210.854 342.692,210.854 342.694,210.868 342.695,210.889 342.698,210.92 342.702,210.968 342.708,211.039 342.717,211.145 342.73,211.305 342.75,211.545 342.779,211.904 342.824,212.443 342.891,213.251 342.991,214.462 343.142,216.272 343.368,218.969 343.707,222.951 344.105,227.49 344.503,231.824 344.902,235.901 345.3,239.671 345.698,243.087 346.096,246.108 346.495,248.695 346.893,250.819 347.291,252.451 347.689,253.573 348.088,254.171 348.336,254.212 348.336,254.212 348.338,254.212 348.34,254.212 348.344,254.212 348.35,254.212 348.358,254.211 348.371,254.21 348.391,254.207 348.42,254.201 348.464,254.188 348.529,254.157 348.628,254.086 348.775,253.926 348.997,253.567 349.329,252.76 349.727,251.377 350.125,249.554 350.523,247.312 350.922,244.676 351.32,241.673 351.718,238.336 352.116,234.701 352.515,230.808 352.913,226.699 353.311,222.418 353.709,218.012 354.108,213.529 354.344,210.856 354.344,210.856 354.345,210.843 354.346,210.823 354.349,210.793 354.353,210.748 354.359,210.681 354.368,210.58 354.381,210.429 354.401,210.202 354.431,209.862 354.477,209.351 354.544,208.586 354.646,207.439 354.798,205.725 355.026,203.172 355.369,199.403 355.767,195.156 356.166,191.101 356.564,187.289 356.962,183.767 357.36,180.576 357.759,177.758 358.157,175.345 358.555,173.369 358.953,171.853 359.352,170.815 359.75,170.269 359.987,170.241 359.987,170.241 359.989,170.241 359.991,170.241 359.995,170.241 360.001,170.241 360.01,170.241 360.023,170.243 360.043,170.245 360.073,170.251 360.118,170.264 360.185,170.295 360.285,170.364 360.436,170.521 360.663,170.873 361.002,171.663 361.401,172.983 361.799,174.713 362.197,176.835 362.595,179.325 362.994,182.157 363.392,185.299 363.79,188.719 364.188,192.378 364.587,196.238 364.985,200.256 365.383,204.389 365.781,208.592 365.995,210.855 365.995,210.855 365.996,210.868 365.998,210.886 366,210.915 366.004,210.957 366.01,211.021 366.019,211.116 366.033,211.26 366.053,211.475 366.083,211.797 366.129,212.281 366.198,213.005 366.3,214.091 366.454,215.714 366.685,218.131 367.031,221.698 367.43,225.672 367.828,229.464 368.226,233.028 368.624,236.319 369.023,239.299 369.421,241.928 369.819,244.177 370.217,246.016 370.616,247.424 371.014,248.383 371.412,248.881 371.638,248.899 371.638,248.899 371.64,248.899 371.642,248.899 371.646,248.899 371.653,248.899 371.662,248.899 371.675,248.897 371.695,248.895 371.726,248.889 371.772,248.876 371.84,248.846 371.943,248.778 372.098,248.625 372.329,248.28 372.676,247.506 373.075,246.247 373.473,244.605 373.871,242.597 374.269,240.245 374.668,237.575 375.066,234.615 375.464,231.398 375.862,227.958 376.261,224.333 376.659,220.562 377.057,216.686 377.455,212.746 377.646,210.855 377.646,210.855 377.647,210.843 377.649,210.825 377.651,210.799 377.655,210.758 377.661,210.698 377.671,210.607 377.684,210.472 377.705,210.268 377.736,209.963 377.782,209.505 377.851,208.819 377.955,207.791 378.11,206.254 378.344,203.965 378.694,200.591 379.092,196.872 379.49,193.326 379.889,189.994 380.287,186.919 380.685,184.137 381.083,181.683 381.482,179.588 381.88,177.876 382.278,176.569 382.676,175.683 383.075,175.229 383.289,175.22 383.289,175.22 383.291,175.22 383.294,175.22 383.298,175.22 383.304,175.22 383.313,175.221 383.327,175.222 383.348,175.224 383.379,175.23 383.426,175.243 383.496,175.272 383.601,175.338 383.759,175.488 383.996,175.826 384.351,176.585 384.749,177.785 385.147,179.345 385.546,181.245 385.944,183.466 386.342,185.985 386.741,188.772 387.139,191.799 387.537,195.032 387.935,198.437 388.334,201.976 388.732,205.612 389.13,209.304 389.297,210.856 389.297,210.856 389.298,210.867 389.3,210.884 389.302,210.91 389.307,210.948 389.313,211.005 389.322,211.091 389.336,211.219 389.356,211.412 389.388,211.701 389.434,212.135 389.504,212.785 389.609,213.758 389.766,215.213 390.002,217.38 390.356,220.574 390.755,224.053 391.153,227.37 391.551,230.484 391.949,233.357 392.348,235.954 392.746,238.243 393.144,240.196 393.542,241.789 393.941,243.002 394.339,243.82 394.737,244.234 394.94,244.236 394.94,244.236 394.942,244.236 394.945,244.236 394.949,244.236 394.955,244.236 394.965,244.235 394.979,244.234 395,244.232 395.032,244.226 395.08,244.214 395.152,244.185 395.259,244.12 395.421,243.973 395.663,243.642 396.026,242.899 396.424,241.754 396.823,240.273 397.221,238.474 397.619,236.376 398.017,234.001 398.416,231.375 398.814,228.527 399.212,225.488 399.61,222.29 400.009,218.968 400.407,215.558 400.805,212.098 400.948,210.854 400.948,210.854 400.949,210.843 400.951,210.827 400.954,210.803 400.958,210.767 400.964,210.713 400.973,210.632 400.987,210.51 401.008,210.328 401.04,210.054 401.087,209.643 401.157,209.028 401.263,208.106 401.422,206.728 401.661,204.677 402.019,201.654 402.417,198.399 402.815,195.297 403.214,192.385 403.612,189.701 404.01,187.276 404.408,185.14 404.807,183.32 405.205,181.839 405.603,180.713 406.002,179.957 406.4,179.581 406.591,179.585 406.591,179.585 406.593,179.585 406.596,179.585 406.6,179.585 406.607,179.585 406.616,179.585 406.631,179.586 406.653,179.589 406.685,179.594 406.734,179.606 406.807,179.635 406.918,179.698 407.083,179.842 407.33,180.167 407.702,180.894 408.1,181.987 408.498,183.393 408.897,185.096 409.295,187.079 409.693,189.319 410.091,191.792 410.49,194.472 410.888,197.329 411.286,200.333 411.684,203.451 412.083,206.65 412.481,209.893 412.599,210.857 412.599,210.857 412.6,210.867 412.602,210.882 412.605,210.905 412.609,210.939 412.615,210.99 412.625,211.067 412.639,211.182 412.66,211.355 412.692,211.615 412.739,212.004 412.811,212.587 412.918,213.46 413.079,214.765 413.32,216.707 413.682,219.568 414.08,222.614 414.478,225.516 414.876,228.238 415.275,230.746 415.673,233.01 416.071,235.003 416.469,236.699 416.868,238.078 417.266,239.122 417.664,239.82 418.062,240.162 418.242,240.154 418.242,240.154 418.244,240.154 418.247,240.154 418.251,240.154 418.258,240.154 418.268,240.153 418.283,240.152 418.305,240.15 418.338,240.145 418.388,240.132 418.463,240.105 418.576,240.042 418.745,239.901 418.998,239.583 419.378,238.871 419.776,237.828 420.174,236.493 420.573,234.88 420.971,233.006 421.369,230.893 421.768,228.562 422.166,226.04 422.564,223.353 422.962,220.531 423.361,217.604 423.759,214.604 424.157,211.563 424.25,210.854 424.25,210.854 424.251,210.844 424.253,210.83 424.256,210.808 424.26,210.776 424.266,210.727 424.276,210.655 424.29,210.545 424.311,210.382 424.344,210.136 424.392,209.767 424.464,209.215 424.572,208.388 424.735,207.152 424.979,205.313 425.344,202.605 425.743,199.754 426.141,197.039 426.539,194.494 426.937,192.15 427.336,190.035 427.734,188.176 428.132,186.595 428.53,185.312 428.929,184.343 429.327,183.699 429.725,183.388 429.893,183.4 429.893,183.4 429.895,183.4 429.898,183.4 429.903,183.4 429.909,183.4 429.919,183.4 429.935,183.401 429.957,183.404 429.991,183.409 430.043,183.421 430.119,183.448 430.234,183.509 430.407,183.647 430.666,183.959 431.055,184.657 431.453,185.652 431.851,186.921 432.249,188.449 432.648,190.219 433.046,192.214 433.444,194.41 433.843,196.784 434.241,199.311 434.639,201.963 435.037,204.712 435.436,207.526 435.834,210.377 435.901,210.857 435.901,210.857 435.902,210.866 435.904,210.88 435.907,210.9 435.911,210.931 435.917,210.977 435.927,211.046 435.941,211.149 435.963,211.304 435.995,211.537 436.044,211.886 436.117,212.409 436.227,213.193 436.391,214.364 436.638,216.106 437.007,218.67 437.405,221.339 437.804,223.879 438.202,226.259 438.6,228.451 438.999,230.426 439.397,232.161 439.795,233.634 440.193,234.828 440.592,235.728 440.99,236.322 441.388,236.604 441.544,236.591 441.544,236.591 441.546,236.591 441.549,236.591 441.554,236.59 441.561,236.59 441.571,236.59 441.587,236.589 441.61,236.587 441.645,236.582 441.697,236.57 441.775,236.543 441.893,236.483 442.07,236.348 442.335,236.042 442.732,235.359 443.13,234.408 443.529,233.203 443.927,231.755 444.325,230.081 444.723,228.198 445.122,226.128 445.52,223.892 445.918,221.514 446.316,219.022 446.715,216.441 447.113,213.799 447.511,211.126 447.552,210.854 447.552,210.854 447.553,210.846 447.555,210.833 447.558,210.813 447.562,210.784 447.568,210.741 447.578,210.675 447.593,210.577 447.615,210.43 447.647,210.21 447.697,209.879 447.77,209.383 447.881,208.641 448.047,207.531 448.296,205.881 448.67,203.452 449.068,200.953 449.466,198.576 449.865,196.349 450.263,194.3 450.661,192.454 451.06,190.835 451.458,189.461 451.856,188.349 452.254,187.514 452.653,186.966 453.051,186.71 453.195,186.725 453.195,186.725 453.197,186.725 453.2,186.725 453.205,186.725 453.212,186.725 453.223,186.726 453.238,186.727 453.262,186.729 453.298,186.734 453.351,186.745 453.432,186.771 453.552,186.83 453.733,186.963 454.004,187.263 454.402,187.917 454.8,188.82 455.198,189.961 455.597,191.329 455.995,192.909 456.393,194.683 456.791,196.632 457.19,198.735 457.588,200.97 457.986,203.311 458.384,205.735 458.783,208.214 459.181,210.721 459.202,210.856 459.202,210.856 459.204,210.864 459.206,210.876 459.208,210.895 459.213,210.922 459.219,210.964 459.229,211.026 459.244,211.119 459.266,211.258 459.299,211.467 459.349,211.781 459.424,212.251 459.535,212.954 459.703,214.006 459.955,215.57 460.333,217.87 460.731,220.211 461.129,222.437 461.528,224.521 461.926,226.437 462.324,228.161 462.722,229.674 463.121,230.955 463.519,231.99 463.917,232.765 464.315,233.271 464.714,233.502 464.846,233.487 464.846,233.487 464.848,233.487 464.851,233.487 464.856,233.487 464.863,233.487 464.874,233.486 464.89,233.485 464.915,233.483 464.951,233.478 465.006,233.467 465.088,233.441 465.211,233.384 465.396,233.253 465.673,232.96 466.071,232.335 466.469,231.478 466.867,230.398 467.266,229.105 467.664,227.615 468.062,225.943 468.46,224.108 468.859,222.13 469.257,220.029 469.655,217.828 470.053,215.552 470.452,213.226 470.85,210.873 470.853,210.855 470.853,210.855 470.854,210.848 470.856,210.836 470.859,210.818 470.864,210.792 470.87,210.753 470.88,210.694 470.895,210.606 470.917,210.474 470.951,210.276 471.001,209.979 471.077,209.533 471.19,208.866 471.359,207.869 471.614,206.386 471.996,204.207 472.394,202.014 472.792,199.93 473.19,197.979 473.589,196.187 473.987,194.574 474.385,193.162 474.784,191.967 475.182,191.003 475.58,190.284 475.978,189.816 476.377,189.607 476.497,189.623 476.497,189.623 476.499,189.623 476.502,189.623 476.507,189.623 476.515,189.623 476.526,189.624 476.542,189.625 476.567,189.627 476.604,189.631 476.66,189.642 476.744,189.668 476.87,189.724 477.059,189.852 477.342,190.14 477.74,190.736 478.138,191.55 478.537,192.573 478.935,193.795 479.333,195.201 479.732,196.777 480.13,198.505 480.528,200.367 480.926,202.343 481.325,204.411 481.723,206.549 482.121,208.734 482.504,210.855 482.504,210.855 482.505,210.862 482.507,210.873 482.51,210.89 482.514,210.915 482.521,210.952 482.531,211.007 482.546,211.091 482.569,211.216 482.603,211.404 482.654,211.686 482.73,212.109 482.844,212.741 483.016,213.686 483.273,215.091 483.659,217.155 484.057,219.21 484.455,221.162 484.853,222.987 485.252,224.664 485.65,226.171 486.048,227.49 486.446,228.604 486.845,229.501 487.243,230.169 487.641,230.6 488.039,230.789 488.148,230.773 488.148,230.773 488.15,230.773 488.153,230.773 488.158,230.773 488.166,230.773 488.177,230.773 488.194,230.772 488.219,230.77 488.257,230.765 488.315,230.754 488.4,230.73 488.529,230.674 488.722,230.549 489.011,230.268 489.409,229.699 489.807,228.926 490.206,227.957 490.604,226.803 491.002,225.477 491.401,223.991 491.799,222.364 492.197,220.612 492.595,218.754 492.994,216.81 493.392,214.802 493.79,212.751 494.154,210.856 494.154,210.856 494.156,210.849 494.158,210.839 494.161,210.823 494.165,210.8 494.172,210.764 494.182,210.712 494.197,210.632 494.22,210.514 494.255,210.335 494.306,210.068 494.383,209.668 494.498,209.068 494.672,208.172 494.932,206.841 495.322,204.886 495.72,202.961 496.118,201.134 496.516,199.426 496.915,197.858 497.313,196.45 497.711,195.219 498.11,194.179 498.508,193.345 498.906,192.725 499.304,192.328 499.703,192.158 499.798,192.172 499.798,192.172 499.801,192.172 499.804,192.172 499.809,192.173 499.817,192.173 499.828,192.173 499.846,192.174 499.872,192.176 499.911,192.181 499.969,192.191 500.056,192.215 500.188,192.269 500.385,192.392 500.68,192.667 501.078,193.21 501.477,193.943 501.875,194.86 502.273,195.95 502.671,197.202 503.07,198.602 503.468,200.134 503.866,201.783 504.264,203.529 504.663,205.356 505.061,207.242 505.459,209.167 505.805,210.854 505.805,210.854 505.806,210.861 505.809,210.871 505.812,210.886 505.816,210.908 505.823,210.941 505.833,210.991 505.849,211.067 505.872,211.179 505.906,211.348 505.958,211.601 506.036,211.981 506.153,212.549 506.328,213.398 506.591,214.66 506.985,216.512 507.383,218.314 507.781,220.024 508.18,221.622 508.578,223.088 508.976,224.404 509.375,225.553 509.773,226.522 510.171,227.298 510.569,227.873 510.968,228.239 511.366,228.391 511.449,228.378 511.449,228.378 511.451,228.378 511.455,228.378 511.46,228.378 511.468,228.378 511.48,228.378 511.497,228.377 511.524,228.375 511.564,228.37 511.623,228.36 511.713,228.336 511.847,228.283 512.048,228.163 512.35,227.894 512.748,227.377 513.146,226.68 513.545,225.812 513.943,224.782 514.341,223.601 514.739,222.282 515.138,220.84 515.536,219.289 515.934,217.646 516.332,215.93 516.731,214.159 517.129,212.353 517.456,210.856 517.456,210.856 517.457,210.85 517.459,210.841 517.462,210.827 517.467,210.806 517.474,210.774 517.484,210.726 517.5,210.655 517.523,210.549 517.558,210.388 517.611,210.148 517.689,209.789 517.807,209.25 517.984,208.445 518.25,207.25 518.648,205.497 519.046,203.809 519.445,202.209 519.843,200.714 520.241,199.343 520.639,198.114 521.038,197.042 521.436,196.139 521.834,195.416 522.232,194.883 522.631,194.547 523.029,194.41 523.1,194.422 523.1,194.422 523.102,194.422 523.106,194.422 523.111,194.422 523.119,194.422 523.131,194.422 523.149,194.423 523.176,194.425 523.217,194.429 523.278,194.439 523.369,194.462 523.506,194.514 523.712,194.632 524.02,194.895 524.418,195.389 524.816,196.05 525.215,196.872 525.613,197.845 526.011,198.959 526.409,200.202 526.808,201.56 527.206,203.02 527.604,204.564 528.003,206.176 528.401,207.839 528.799,209.534 529.107,210.854 529.107,210.854 529.108,210.86 529.11,210.869 529.113,210.883 529.118,210.903 529.125,210.933 529.135,210.978 529.151,211.045 529.174,211.146 529.21,211.298 529.263,211.525 529.342,211.866 529.462,212.377 529.641,213.139 529.909,214.272 530.307,215.915 530.706,217.495 531.104,218.995 531.502,220.394 531.901,221.676 532.299,222.826 532.697,223.828 533.095,224.672 533.494,225.345 533.892,225.841 534.29,226.153 534.688,226.277 534.75,226.267 534.75,226.267 534.753,226.267 534.757,226.267 534.762,226.267 534.77,226.266 534.783,226.266 534.801,226.265 534.829,226.263 534.87,226.259 534.932,226.249 535.026,226.227 535.166,226.176 535.376,226.061 535.69,225.803 536.089,225.332 536.487,224.705 536.885,223.927 537.284,223.007 537.682,221.956 538.08,220.785 538.478,219.506 538.877,218.133 539.275,216.682 539.673,215.167 540.071,213.606 540.47,212.014 540.757,210.856 540.757,210.856 540.759,210.851 540.761,210.842 540.764,210.829 540.769,210.811 540.776,210.782 540.786,210.739 540.802,210.676 540.826,210.58 540.862,210.436 540.915,210.22 540.996,209.897 541.116,209.413 541.297,208.691 541.569,207.618 541.967,206.078 542.365,204.598 542.763,203.194 543.162,201.884 543.56,200.684 543.958,199.609 544.356,198.672 544.755,197.885 545.153,197.257 545.551,196.796 545.949,196.507 546.348,196.395 546.401,196.403 546.401,196.403 546.404,196.403 546.407,196.403 546.413,196.403 546.421,196.404 546.434,196.404 546.453,196.405 546.481,196.407 546.523,196.411 546.587,196.42 546.682,196.442 546.825,196.492 547.04,196.604 547.361,196.857 547.76,197.306 548.158,197.902 548.556,198.638 548.955,199.507 549.353,200.499 549.751,201.603 550.149,202.807 550.548,204.098 550.946,205.463 551.344,206.886 551.742,208.352 552.141,209.845 552.408,210.855 552.408,210.855 552.409,210.86 552.411,210.868 552.415,210.88 552.419,210.898 552.427,210.925 552.437,210.965 552.453,211.026 552.477,211.117 552.513,211.253 552.568,211.457 552.649,211.764 552.771,212.222 552.954,212.907 553.228,213.923 553.626,215.366 554.025,216.753 554.423,218.067 554.821,219.293 555.219,220.416 555.618,221.421 556.016,222.297 556.414,223.032 556.812,223.617 557.211,224.046 557.609,224.313 558.007,224.415 558.052,224.408 558.052,224.408 558.054,224.408 558.058,224.408 558.064,224.408 558.072,224.407 558.085,224.407 558.104,224.406 558.133,224.405 558.177,224.4 558.242,224.391 558.339,224.369 558.485,224.321 558.704,224.211 559.033,223.964 559.431,223.535 559.829,222.97 560.228,222.272 560.626,221.451 561.024,220.516 561.422,219.475 561.821,218.342 562.219,217.127 562.617,215.844 563.016,214.507 563.414,213.131 563.812,211.729 564.059,210.856 564.059,210.856 564.06,210.851 564.062,210.843 564.065,210.832 564.07,210.815 564.078,210.789 564.088,210.751 564.105,210.694 564.129,210.607 564.165,210.478 564.22,210.285 564.302,209.994 564.426,209.56 564.61,208.911 564.888,207.948 565.286,206.596 565.684,205.297 566.082,204.066 566.481,202.919 566.879,201.868 567.277,200.928 567.675,200.11 568.074,199.424 568.472,198.878 568.87,198.479 569.268,198.233 569.667,198.141 569.703,198.146 569.703,198.146 569.705,198.146 569.709,198.146 569.715,198.146 569.724,198.147 569.737,198.147 569.756,198.148 569.786,198.149 569.83,198.153 569.896,198.163 569.996,198.184 570.145,198.231 570.369,198.339 570.705,198.581 571.103,198.989 571.501,199.527 571.9,200.187 572.298,200.963 572.696,201.846 573.094,202.826 573.493,203.894 573.891,205.037 574.289,206.243 574.687,207.499 575.086,208.791 575.484,210.106 575.709,210.855 575.709,210.855 575.711,210.86 575.713,210.867 575.716,210.878 575.721,210.894 575.728,210.918 575.739,210.954 575.756,211.009 575.78,211.09 575.817,211.213 575.873,211.397 575.956,211.672 576.08,212.083 576.267,212.698 576.547,213.611 576.946,214.877 577.344,216.094 577.742,217.247 578.14,218.321 578.539,219.304 578.937,220.183 579.335,220.947 579.733,221.588 580.132,222.097 580.53,222.467 580.928,222.696 581.326,222.779 581.353,222.774 581.353,222.774 581.356,222.774 581.36,222.774 581.366,222.774 581.375,222.774 581.388,222.774 581.408,222.773 581.438,222.771 581.483,222.767 581.551,222.758 581.653,222.738 581.805,222.691 582.034,222.586 582.377,222.349 582.776,221.959 583.174,221.449 583.572,220.823 583.97,220.09 584.369,219.257 584.767,218.333 585.165,217.327 585.563,216.252 585.962,215.118 586.36,213.938 586.758,212.724 587.156,211.49 587.36,210.855 587.36,210.855 587.362,210.851 587.364,210.844 587.367,210.834 587.372,210.819 587.379,210.796 587.391,210.761 587.407,210.71 587.432,210.632 587.469,210.516 587.525,210.342 587.609,210.081 587.735,209.691 587.924,209.108 588.207,208.244 588.605,207.057 589.004,205.917 589.402,204.837 589.8,203.832 590.198,202.912 590.597,202.09 590.995,201.376 591.393,200.778 591.791,200.304 592.19,199.959 592.588,199.748 592.986,199.673 593.004,199.676 593.004,199.676 593.007,199.676 593.011,199.676 593.017,199.676 593.026,199.676 593.039,199.677 593.06,199.677 593.091,199.679 593.137,199.683 593.206,199.692 593.31,199.712 593.466,199.758 593.7,199.861 594.05,200.092 594.448,200.465 594.847,200.949 595.245,201.542 595.643,202.235 596.042,203.021 596.44,203.893 596.838,204.84 597.236,205.852 597.635,206.918 598.033,208.027 598.431,209.167 598.829,210.325 599.011,210.855 599.011,210.855 599.012,210.86 599.015,210.866 599.018,210.876 599.023,210.89 599.03,210.912 599.042,210.945 599.058,210.994 599.083,211.067 599.121,211.177 599.178,211.342 599.263,211.589 599.39,211.959 599.581,212.511 599.867,213.331 600.265,214.443 600.664,215.511 601.062,216.522 601.46,217.464 601.858,218.324 602.257,219.093 602.655,219.76 603.053,220.319 603.451,220.761 603.85,221.081 604.248,221.276 604.646,221.343 604.654,221.342 604.654,221.342 604.657,221.342 604.661,221.342 604.668,221.342 604.677,221.342 604.691,221.342 604.712,221.341 604.743,221.339 604.791,221.335 604.861,221.327 604.967,221.307 605.127,221.262 605.365,221.161 605.724,220.935 606.122,220.579 606.52,220.119 606.918,219.557 607.317,218.902 607.715,218.159 608.113,217.338 608.511,216.446 608.91,215.493 609.308,214.49 609.706,213.448 610.105,212.378 610.503,211.291 610.662,210.855 610.662,210.855 610.663,210.851 610.666,210.845 610.669,210.836 610.674,210.822 610.681,210.801 610.693,210.77 610.71,210.724 610.735,210.655 610.773,210.55 610.83,210.394 610.916,210.159 611.045,209.809 611.238,209.285 611.527,208.509 611.925,207.466 612.323,206.465 612.722,205.518 613.12,204.636 613.518,203.831 613.916,203.112 614.315,202.488 614.713,201.967 615.111,201.555 615.51,201.257 615.908,201.077 616.305,201.017 616.305,201.017 616.308,201.017 616.312,201.017 616.319,201.017 616.328,201.017 616.342,201.017 616.364,201.018 616.396,201.019 616.444,201.023 616.516,201.032 616.625,201.051 616.788,201.095 617.032,201.193 617.398,201.415 617.796,201.755 618.194,202.193 618.592,202.724 618.991,203.344 619.389,204.046 619.787,204.821 620.185,205.661 620.584,206.558 620.982,207.501 621.38,208.481 621.779,209.486 622.177,210.506 622.313,210.856 622.313,210.856 622.314,210.86 622.316,210.865 622.32,210.874 622.325,210.887 622.332,210.907 622.344,210.936 622.361,210.98 622.387,211.046 622.425,211.145 622.483,211.293 622.57,211.515 622.7,211.848 622.894,212.344 623.187,213.08 623.585,214.058 623.983,214.996 624.382,215.883 624.78,216.709 625.178,217.463 625.576,218.135 625.975,218.719 626.373,219.206 626.771,219.59 627.17,219.867 627.568,220.033 627.956,220.086 627.956,220.086 627.959,220.086 627.963,220.086 627.97,220.086 627.979,220.086 627.994,220.085 628.016,220.085 628.049,220.083 628.098,220.079 628.172,220.071 628.282,220.052 628.449,220.009 628.698,219.913 629.072,219.696 629.47,219.372 629.868,218.955 630.267,218.451 630.665,217.865 631.063,217.203 631.461,216.472 631.86,215.68 632.258,214.836 632.656,213.949 633.054,213.028 633.453,212.084 633.851,211.126 633.963,210.855 633.963,210.855 633.965,210.851 633.967,210.846 633.971,210.837 633.976,210.825 633.983,210.807 633.995,210.779 634.012,210.737 634.038,210.675 634.077,210.581 634.135,210.44 634.223,210.229 634.354,209.914 634.552,209.443 634.847,208.746 635.245,207.829 635.644,206.95 636.042,206.119 636.44,205.346 636.838,204.64 637.237,204.011 637.635,203.465 638.033,203.011 638.431,202.653 638.83,202.395 639.228,202.241 639.606,202.196 639.606,202.196 639.609,202.196 639.614,202.196 639.62,202.196 639.63,202.196 639.645,202.196 639.668,202.197 639.701,202.199 639.752,202.202 639.827,202.21 639.94,202.229 640.11,202.271 640.365,202.365 640.747,202.578 641.145,202.887 641.543,203.283 641.941,203.76 642.34,204.315 642.738,204.94 643.136,205.629 643.534,206.375 643.933,207.17 644.331,208.005 644.729,208.87 645.127,209.757 645.526,210.656 645.614,210.856 645.614,210.856 645.616,210.859 645.618,210.865 645.621,210.872 645.627,210.884 645.634,210.902 645.646,210.928 645.663,210.968 645.69,211.027 645.729,211.116 645.788,211.249 645.877,211.449 646.009,211.748 646.208,212.194 646.507,212.855 646.905,213.715 647.304,214.539 647.702,215.318 648.1,216.042 648.499,216.702 648.897,217.291 649.295,217.8 649.693,218.225 650.092,218.559 650.49,218.798 650.888,218.94 651.257,218.979 651.257,218.979 651.26,218.979 651.265,218.979 651.271,218.979 651.282,218.979 651.297,218.979 651.32,218.978 651.354,218.977 651.405,218.973 651.482,218.965 651.598,218.947 651.772,218.906 652.032,218.813 652.422,218.606 652.82,218.31 653.219,217.934 653.617,217.482 654.015,216.957 654.413,216.367 654.812,215.716 655.21,215.013 655.608,214.265 656.006,213.48 656.405,212.667 656.803,211.834 657.201,210.99 657.265,210.855 657.265,210.855 657.266,210.852 657.269,210.847 657.272,210.839 657.277,210.828 657.285,210.811 657.297,210.786 657.315,210.749 657.341,210.693 657.381,210.608 657.441,210.482 657.53,210.292 657.664,210.009 657.866,209.586 658.167,208.959 658.566,208.153 658.964,207.381 659.362,206.651 659.76,205.973 660.159,205.355 660.557,204.804 660.955,204.328 661.354,203.932 661.752,203.62 662.15,203.398 662.548,203.267 662.908,203.233 662.908,203.233 662.911,203.233 662.916,203.233 662.922,203.233 662.933,203.233 662.948,203.233 662.972,203.234 663.007,203.235 663.059,203.239 663.138,203.247 663.256,203.264 663.433,203.305 663.699,203.395 664.098,203.599 664.496,203.88 664.894,204.238 665.292,204.667 665.691,205.163 666.089,205.721 666.487,206.334 666.885,206.997 667.284,207.701 667.682,208.44 668.08,209.204 668.478,209.987 668.877,210.779 668.915,210.856 668.915,210.856 668.917,210.859 668.919,210.863 668.923,210.87 668.928,210.881 668.936,210.897 668.948,210.921 668.966,210.956 668.993,211.009 669.033,211.09 669.093,211.209 669.184,211.389 669.319,211.658 669.523,212.059 669.828,212.654 670.226,213.409 670.624,214.133 671.022,214.817 671.421,215.452 671.819,216.031 672.217,216.546 672.615,216.991 673.014,217.361 673.412,217.651 673.81,217.858 674.208,217.979 674.558,218.008 674.558,218.008 674.562,218.008 674.566,218.008 674.573,218.008 674.584,218.008 674.6,218.008 674.624,218.007 674.66,218.006 674.713,218.002 674.794,217.995 674.914,217.977 675.096,217.938 675.367,217.849 675.766,217.655 676.164,217.387 676.562,217.049 676.96,216.644 677.359,216.175 677.757,215.649 678.155,215.072 678.553,214.448 678.952,213.786 679.35,213.092 679.748,212.373 680.147,211.638 680.545,210.895 680.566,210.855 680.566,210.855 680.568,210.852 680.57,210.848 680.574,210.841 680.579,210.831 680.587,210.816 680.599,210.794 680.617,210.76 680.644,210.709 680.685,210.633 680.746,210.52 680.837,210.349 680.974,210.094 681.18,209.713 681.488,209.15 681.886,208.442 682.285,207.763 682.683,207.122 683.081,206.527 683.479,205.985 683.878,205.503 684.276,205.087 684.674,204.742 685.072,204.471 685.471,204.279 685.869,204.168 686.209,204.142 686.209,204.142 686.212,204.143 686.217,204.143 686.224,204.143 686.235,204.143 686.251,204.143 686.276,204.144 686.312,204.145 686.367,204.148 686.45,204.156 686.573,204.173 686.758,204.211 687.036,204.299 687.434,204.484 687.832,204.738 688.23,205.058 688.629,205.441 689.027,205.883 689.425,206.379 689.823,206.923 690.222,207.51 690.62,208.133 691.018,208.786 691.417,209.461 691.815,210.151 692.213,210.849 692.217,210.855 692.217,210.855 692.218,210.858 692.221,210.862 692.224,210.869 692.23,210.878 692.238,210.892 692.25,210.914 692.268,210.946 692.295,210.994 692.336,211.066 692.398,211.174 692.49,211.336 692.629,211.577 692.837,211.938 693.148,212.472 693.547,213.137 693.945,213.773 694.343,214.374 694.741,214.931 695.14,215.438 695.538,215.889 695.936,216.279 696.334,216.601 696.733,216.853 697.131,217.032 697.529,217.135 697.86,217.156 697.86,217.156 697.863,217.156 697.868,217.156 697.875,217.156 697.886,217.156 697.903,217.156 697.928,217.155 697.965,217.154 698.021,217.15 698.105,217.143 698.231,217.126 698.421,217.088 698.704,217.003 699.102,216.826 699.501,216.585 699.899,216.281 700.297,215.919 700.696,215.502 701.094,215.035 701.492,214.522 701.89,213.969 702.289,213.383 702.687,212.769 703.085,212.135 703.483,211.487 703.867,210.855 703.867,210.855 703.869,210.853 703.871,210.849 703.875,210.843 703.88,210.834 703.888,210.82 703.901,210.8 703.919,210.77 703.947,210.724 703.988,210.656 704.051,210.553 704.144,210.4 704.284,210.171 704.494,209.828 704.809,209.322 705.207,208.699 705.605,208.103 706.004,207.54 706.402,207.018 706.8,206.543 707.198,206.121 707.597,205.758 707.995,205.456 708.393,205.221 708.791,205.056 709.19,204.961 709.51,204.943 709.51,204.943 709.514,204.943 709.519,204.943 709.526,204.943 709.538,204.943 709.554,204.943 709.58,204.944 709.618,204.945 709.675,204.949 709.761,204.956 709.89,204.972 710.083,205.009 710.372,205.093 710.771,205.261 711.169,205.49 711.567,205.778 711.966,206.12 712.364,206.514 712.762,206.954 713.16,207.437 713.559,207.957 713.957,208.509 714.355,209.085 714.753,209.681 715.152,210.29 715.518,210.855 715.518,210.855 715.519,210.858 715.522,210.861 715.525,210.867 715.531,210.876 715.539,210.888 715.552,210.908 715.57,210.936 715.598,210.98 715.64,211.044 715.703,211.141 715.797,211.287 715.939,211.504 716.151,211.829 716.469,212.309 716.868,212.893 717.266,213.451 717.664,213.978 718.062,214.467 718.461,214.911 718.859,215.306 719.257,215.646 719.655,215.927 720.054,216.146 720.452,216.3 720.85,216.387 721.161,216.402 721.161,216.402 721.164,216.402 721.169,216.402 721.177,216.402 721.189,216.401 721.206,216.401 721.232,216.401 721.271,216.399 721.329,216.396 721.417,216.389 721.548,216.373 721.745,216.337 722.041,216.255 722.439,216.095 722.838,215.877 723.236,215.605 723.634,215.282 724.032,214.911 724.431,214.495 724.829,214.04 725.227,213.551 725.625,213.033 726.024,212.491 726.422,211.931 726.82,211.36 727.168,210.856 727.168,210.856 727.17,210.853 727.172,210.85 727.176,210.844 727.182,210.836 727.19,210.824 727.203,210.806 727.221,210.779 727.25,210.738 727.292,210.676 727.356,210.584 727.451,210.446 727.594,210.24 727.808,209.933 728.13,209.478 728.528,208.931 728.927,208.407 729.325,207.914 729.723,207.457 730.121,207.041 730.52,206.672 730.918,206.355 731.316,206.093 731.714,205.889 732.113,205.746 732.511,205.666 732.812,205.654 732.812,205.654 732.815,205.654 732.82,205.654 732.828,205.654 732.84,205.654 732.858,205.654 732.884,205.655 732.924,205.656 732.983,205.659 733.073,205.666 733.207,205.682 733.408,205.717 733.71,205.797 734.109,205.95 734.507,206.157 734.905,206.414 735.303,206.719 735.702,207.07 736.1,207.461 736.498,207.889 736.896,208.349 737.295,208.837 737.693,209.346 738.091,209.871 738.489,210.408 738.819,210.855 738.819,210.855 738.82,210.857 738.823,210.861 738.827,210.866 738.832,210.874 738.841,210.885 738.853,210.902 738.872,210.928 738.901,210.967 738.944,211.025 739.008,211.112 739.104,211.243 739.249,211.438 739.466,211.73 739.791,212.16 740.189,212.673 740.587,213.163 740.986,213.625 741.384,214.053 741.782,214.441 742.18,214.786 742.579,215.082 742.977,215.327 743.375,215.516 743.774,215.649 744.172,215.722 744.462,215.732 744.462,215.732 744.466,215.732 744.471,215.732 744.479,215.732 744.491,215.732 744.509,215.732 744.536,215.731 744.577,215.73 744.638,215.727 744.729,215.72 744.866,215.705 745.072,215.67 745.38,215.592 745.778,215.446 746.177,215.25 746.575,215.007 746.973,214.718 747.371,214.388 747.77,214.019 748.168,213.616 748.566,213.184 748.964,212.726 749.363,212.247 749.761,211.754 750.159,211.251 750.469,210.856 750.469,210.856 750.471,210.853 750.473,210.85 750.477,210.845 750.483,210.838 750.492,210.827 750.504,210.811 750.524,210.786 750.552,210.75 750.596,210.695 750.661,210.612 750.758,210.488 750.904,210.303 751.123,210.027 751.452,209.619 751.85,209.139 752.249,208.68 752.647,208.248 753.045,207.848 753.443,207.485 753.842,207.163 754.24,206.886 754.638,206.658 755.036,206.482 755.435,206.359 755.833,206.292 756.113,206.284 756.113,206.284 756.116,206.284 756.122,206.284 756.13,206.284 756.142,206.284 756.161,206.284 756.188,206.285 756.23,206.286 756.292,206.289 756.385,206.296 756.525,206.311 756.735,206.344 757.05,206.421 757.448,206.56 757.847,206.746 758.245,206.976 758.643,207.249 759.041,207.56 759.44,207.907 759.838,208.287 760.236,208.694 760.635,209.124 761.033,209.573 761.431,210.036 761.829,210.508 762.12,210.855 762.12,210.855 762.121,210.857 762.124,210.86 762.128,210.865 762.134,210.872 762.142,210.882 762.155,210.897 762.175,210.921 762.204,210.956 762.248,211.008 762.313,211.086 762.412,211.203 762.559,211.379 762.781,211.64 763.113,212.026 763.512,212.476 763.91,212.905 764.308,213.309 764.706,213.684 765.105,214.023 765.503,214.324 765.901,214.582 766.299,214.794 766.698,214.958 767.096,215.071 767.494,215.133 767.763,215.139 767.763,215.139 767.767,215.139 767.773,215.139 767.781,215.139 767.793,215.139 767.812,215.139 767.841,215.139 767.883,215.137 767.946,215.135 768.042,215.128 768.185,215.114 768.399,215.08 768.721,215.006 769.119,214.873 769.517,214.697 769.916,214.479 770.314,214.221 770.712,213.928 771.11,213.601 771.509,213.244 771.907,212.861 772.305,212.457 772.703,212.035 773.102,211.601 773.5,211.158 773.77,210.856 773.77,210.856 773.772,210.854 773.775,210.851 773.779,210.846 773.784,210.84 773.793,210.83 773.806,210.815 773.826,210.793 773.855,210.76 773.9,210.711 773.966,210.637 774.066,210.526 774.215,210.36 774.439,210.112 774.775,209.746 775.173,209.326 775.571,208.924 775.969,208.546 776.368,208.196 776.766,207.879 777.164,207.598 777.563,207.357 777.961,207.16 778.359,207.007 778.757,206.902 779.156,206.846 779.414,206.841 779.414,206.841 779.418,206.841 779.423,206.841 779.432,206.841 779.445,206.841 779.464,206.841 779.493,206.842 779.536,206.843 779.601,206.846 779.698,206.852 779.844,206.866 780.064,206.899 780.392,206.972 780.79,207.098 781.189,207.266 781.587,207.472 781.985,207.715 782.383,207.992 782.782,208.3 783.18,208.635 783.578,208.995 783.977,209.375 784.375,209.771 784.773,210.178 785.171,210.593 785.421,210.855 785.421,210.855 785.423,210.857 785.425,210.86 785.429,210.864 785.435,210.87 785.444,210.879 785.457,210.893 785.477,210.914 785.507,210.945 785.552,210.992 785.619,211.062 785.719,211.168 785.87,211.325 786.097,211.559 786.436,211.905 786.834,212.299 787.233,212.675 787.631,213.029 788.029,213.356 788.428,213.652 788.826,213.914 789.224,214.138 789.622,214.322 790.021,214.464 790.419,214.561 790.817,214.613 791.064,214.616 791.064,214.616 791.068,214.616 791.074,214.616 791.083,214.616 791.096,214.616 791.116,214.616 791.145,214.616 791.189,214.614 791.256,214.612 791.355,214.606 791.504,214.592 791.728,214.56 792.064,214.489 792.462,214.368 792.861,214.209 793.259,214.014 793.657,213.785 794.055,213.524 794.454,213.234 794.852,212.918 795.25,212.58 795.648,212.223 796.047,211.851 796.445,211.469 796.843,211.08 797.072,210.855 797.072,210.855 797.073,210.854 797.076,210.851 797.08,210.847 797.086,210.841 797.095,210.833 797.108,210.819 797.128,210.8 797.159,210.77 797.204,210.726 797.272,210.659 797.373,210.56 797.526,210.411 797.755,210.189 798.098,209.861 798.496,209.493 798.895,209.141 799.293,208.81 799.691,208.505 800.089,208.228 800.488,207.984 800.886,207.774 801.284,207.603 801.682,207.471 802.081,207.382 802.479,207.334 802.715,207.332 802.715,207.332 802.719,207.332 802.725,207.332 802.734,207.332 802.747,207.332 802.767,207.332 802.797,207.333 802.843,207.334 802.911,207.337 803.012,207.343 803.165,207.356 803.393,207.387 803.737,207.457 804.135,207.572 804.533,207.723 804.931,207.907 805.33,208.124 805.728,208.37 806.126,208.643 806.524,208.94 806.923,209.258 807.321,209.593 807.719,209.942 808.117,210.3 808.516,210.665 808.722,210.855 808.722,210.855 808.724,210.857 808.727,210.859 808.731,210.863 808.737,210.869 808.746,210.877 808.759,210.889 808.78,210.908 808.81,210.936 808.856,210.978 808.924,211.041 809.027,211.136 809.182,211.277 809.413,211.487 809.76,211.797 810.158,212.142 810.557,212.471 810.955,212.78 811.353,213.065 811.751,213.324 812.15,213.552 812.548,213.747 812.946,213.906 813.344,214.028 813.743,214.111 814.141,214.154 814.366,214.156 814.366,214.156 814.37,214.156 814.376,214.156 814.385,214.156 814.399,214.156 814.419,214.156 814.45,214.155 814.496,214.154 814.565,214.151 814.669,214.146 814.825,214.132 815.059,214.102 815.41,214.034 815.808,213.924 816.206,213.781 816.604,213.606 817.003,213.402 817.401,213.17 817.799,212.913 818.197,212.633 818.596,212.335 818.994,212.02 819.392,211.693 819.79,211.356 820.189,211.014 820.373,210.855 820.373,210.855 820.375,210.854 820.378,210.851 820.382,210.848 820.388,210.843 820.397,210.835 820.411,210.823 820.431,210.805 820.462,210.779 820.508,210.739 820.577,210.679 820.681,210.59 820.837,210.456 821.071,210.257 821.422,209.964 821.82,209.641 822.219,209.334 822.617,209.045 823.015,208.778 823.413,208.537 823.812,208.324 824.21,208.142 824.608,207.994 825.006,207.88 825.405,207.804 825.803,207.764 826.016,207.763 826.016,207.763 826.021,207.763 826.027,207.763 826.036,207.764 826.05,207.764 826.071,207.764 826.102,207.764 826.15,207.765 826.221,207.768 826.327,207.774 826.486,207.787 826.725,207.816 827.083,207.883 827.482,207.988 827.88,208.123 828.278,208.289 828.676,208.482 829.075,208.7 829.473,208.943 829.871,209.205 830.269,209.486 830.668,209.782 831.066,210.089 831.464,210.405 831.862,210.725 832.024,210.855 832.024,210.855 832.026,210.857 832.028,210.859 832.032,210.862 832.039,210.867 832.048,210.875 832.062,210.886 832.082,210.903 832.114,210.928 832.16,210.966 832.23,211.022 832.335,211.107 832.493,211.233 832.73,211.422 833.084,211.699 833.483,212.001 833.881,212.289 834.279,212.559 834.677,212.808 835.076,213.034 835.474,213.232 835.872,213.402 836.27,213.54 836.669,213.645 837.067,213.716 837.465,213.752 837.667,213.752 837.667,213.752 837.671,213.752 837.678,213.752 837.687,213.752 837.702,213.752 837.723,213.751 837.755,213.751 837.803,213.75 837.876,213.747 837.984,213.742 838.147,213.729 838.391,213.7 838.758,213.635 839.156,213.535 839.554,213.406 839.952,213.25 840.351,213.068 840.749,212.861 841.147,212.633 841.545,212.386 841.944,212.122 842.342,211.844 842.74,211.556 843.138,211.26 843.537,210.96 843.675,210.855 843.675,210.855 843.676,210.854 843.679,210.852 843.683,210.849 843.69,210.844 843.699,210.837 843.713,210.826 843.734,210.81 843.765,210.787 843.812,210.751 843.883,210.697 843.99,210.617 844.149,210.497 844.388,210.319 844.747,210.056 845.145,209.774 845.543,209.505 845.941,209.252 846.34,209.019 846.738,208.809 847.136,208.624 847.534,208.466 847.933,208.337 848.331,208.24 848.729,208.174 849.128,208.141 849.318,208.142 849.318,208.142 849.322,208.142 849.329,208.142 849.339,208.142 849.353,208.142 849.375,208.142 849.408,208.143 849.457,208.144 849.531,208.146 849.642,208.152 849.808,208.164 850.058,208.192 850.432,208.256 850.831,208.351 851.229,208.474 851.627,208.622 852.025,208.794 852.424,208.989 852.822,209.203 853.22,209.436 853.618,209.684 854.017,209.945 854.415,210.216 854.813,210.493 855.211,210.775 855.325,210.855 855.325,210.855 855.327,210.857 855.33,210.859 855.334,210.862 855.341,210.866 855.35,210.873 855.364,210.883 855.385,210.898 855.417,210.921 855.465,210.954 855.536,211.005 855.644,211.081 855.805,211.194 856.047,211.363 856.409,211.612 856.807,211.876 857.206,212.128 857.604,212.364 858.002,212.582 858.4,212.778 858.799,212.951 859.197,213.098 859.595,213.218 859.993,213.309 860.392,213.369 860.79,213.399 860.969,213.398 860.969,213.398 860.973,213.398 860.98,213.398 860.99,213.398 861.005,213.398 861.027,213.398 861.061,213.397 861.111,213.396 861.187,213.394 861.3,213.388 861.47,213.376 861.725,213.348 862.108,213.286 862.506,213.195 862.905,213.079 863.303,212.939 863.701,212.776 864.099,212.593 864.498,212.39 864.896,212.171 865.294,211.938 865.692,211.693 866.091,211.439 866.489,211.178 866.887,210.914 866.976,210.855 866.976,210.855 866.978,210.854 866.981,210.852 866.985,210.849 866.991,210.845 867.001,210.839 867.015,210.829 867.037,210.815 867.069,210.794 867.117,210.762 867.19,210.714 867.298,210.642 867.461,210.534 867.705,210.374 868.072,210.139 868.47,209.891 868.868,209.656 869.266,209.435 869.665,209.232 870.063,209.048 870.461,208.887 870.859,208.75 871.258,208.638 871.656,208.554 872.054,208.498 872.452,208.472 872.62,208.473 872.62,208.473 872.624,208.473 872.631,208.473 872.641,208.473 872.656,208.473 872.679,208.473 872.714,208.473 872.765,208.474 872.842,208.477 872.958,208.482 873.132,208.494 873.393,208.521 873.784,208.582 874.182,208.669 874.581,208.779 874.979,208.912 875.377,209.066 875.775,209.239 876.174,209.43 876.572,209.636 876.97,209.855 877.368,210.085 877.767,210.324 878.165,210.568 878.563,210.816 878.627,210.855 878.627,210.855 878.629,210.857 878.632,210.858 878.636,210.861 878.642,210.865 878.652,210.871 878.666,210.88 878.688,210.894 878.721,210.914 878.769,210.944 878.843,210.99 878.952,211.058 879.117,211.16 879.364,211.311 879.734,211.534 880.133,211.766 880.531,211.986 880.929,212.193 881.327,212.383 881.726,212.554 882.124,212.705 882.522,212.833 882.92,212.936 883.319,213.014 883.717,213.066 884.115,213.09 884.27,213.089" stroke-width="1" stroke-linecap="butt" stroke="#000000"/>
   <polyline fill="none" stroke-dasharray="1,3,1,3,1,3,1,3" stroke-linejoin="round" points="126.929,63.207 126.931,63.2071 126.935,63.2072 126.94,63.2077 126.949,63.209 126.961,63.2122 126.979,63.2198 127.007,63.2377 127.048,63.2789 127.11,63.373 127.203,63.5872 127.343,64.072 127.553,65.166 127.867,67.6254 128.339,73.1205 129.038,85.0835 130.086,110.727 131.421,153.862 132.692,201.411 134.202,258.83 135.675,307.813 136.962,339.213 138.206,355.956 140.073,352.488 141.732,321.56 143.925,250.853 145.821,178.502 148.113,102.848 150.003,67.6413 151.818,65.6363 153.917,102.417 156.118,174.326 158.59,267.54 160.353,322.295 161.67,348.817 162.88,359.259 164.132,354.868 165.369,335.799 166.561,305.383 167.753,266.047 169.54,198.587 170.935,147.041 172.301,104.497 173.916,71.5604 175.318,62.4267 176.713,72.6053 178.009,98.1717 179.247,134.465 180.504,179.284 181.723,225.994 183.052,275.021 184.395,316.868 185.695,345.241 186.993,358.385 187.973,357.263 188.931,347.019 190.067,324.044 191.168,292.417 192.15,258.508 193.291,215.429 194.692,162.343 196.331,108.815 197.804,76.0747 199.303,62.8824 200.597,69.4115 201.91,92.3111 203.097,124.906 204.382,169.271 205.882,226.503 207.188,274.723 208.501,315.812 209.827,344.949 211.182,358.341 212.487,354.031 213.845,332.19 215.258,293.568 216.6,246.54 218.264,182.906 219.867,126.402 221.158,91.0259 222.421,69.3836 223.754,63.0539 225.212,76.3185 226.532,105 228.117,155.38 229.589,210.706 230.971,262.845 232.386,309.26 233.779,342.081 235.12,357.567 236.695,353.084 238.109,328.838 239.739,281.56 241.417,219.91 242.965,161.224 244.426,113.014 245.801,80.3025 247.124,64.4478 248.495,66.2002 249.779,84.4543 251.297,123.837 252.941,181.375 254.443,238.881 255.833,288.507 257.251,328.749 258.576,352.038 259.971,358.543 261.457,344.261 262.852,312.809 264.489,259.346 266.014,201.499 267.444,148.405 268.891,103.429 270.252,74.8045 271.607,63.1063 273.233,73.1081 274.617,101.004 276.278,152.662 277.831,210.877 279.3,266.092 280.766,313.261 282.145,344.254 283.484,358.07 284.932,353.037 286.259,330.79 287.89,284.446 289.504,225.705 290.998,168.767 292.449,119.398 293.854,83.8573 295.175,65.7164 296.688,65.9081 298.024,84.6513 299.522,123.473 301.188,181.72 302.701,239.616 304.091,289.155 305.504,329.047 306.825,352.122 308.229,358.434 309.692,344.247 311.09,312.744 312.69,260.64 314.207,203.198 315.648,149.616 317.101,104.222 318.463,75.2502 319.813,63.2295 321.433,72.6457 322.814,99.9992 324.445,150.204 325.996,208.105 327.467,263.559 328.931,311.179 330.315,343.053 331.65,357.716 333.045,354.235 334.352,333.922 335.917,291.353 337.551,232.942 339.054,175.508 340.481,125.796 341.892,88.011 343.206,67.5143 344.655,64.2489 345.992,79.6011 347.416,113.206 349.241,174.806 350.797,234.248 352.187,284.451 353.608,325.85 354.94,350.597 356.323,358.633 357.895,344.758 359.293,313.657 360.958,259.525 362.49,201.444 363.931,148.048 365.383,103.075 366.742,74.6751 368.096,63.1958 369.72,73.3941 371.104,101.419 372.765,153.163 374.318,211.36 375.785,266.419 377.249,313.394 378.626,344.254 379.966,357.981 381.422,352.769 382.753,330.28 384.392,283.477 386.006,224.634 387.501,167.757 388.955,118.535 390.358,83.3864 391.681,65.6102 393.206,66.3642 394.547,85.7242 396.06,125.52 397.712,183.609 399.221,241.299 400.622,290.901 402.035,330.24 403.353,352.599 404.767,358.14 406.194,343.692 407.596,311.799 409.184,259.9 410.698,202.608 412.135,149.238 413.586,104.028 414.947,75.2142 416.298,63.3224 417.919,72.9143 419.301,100.411 420.937,150.855 422.488,208.768 423.958,264.106 425.422,311.563 426.805,343.209 428.141,357.672 429.54,353.922 430.85,333.313 432.425,290.196 434.056,231.768 435.558,174.441 436.989,124.798 438.4,87.4047 439.715,67.3093 441.172,64.5893 442.492,80.1586 443.924,114.243 445.726,175.257 447.277,234.445 448.663,284.439 450.082,325.748 451.414,350.478 452.797,358.518 454.37,344.648 455.768,313.559 457.434,259.416 458.967,201.354 460.408,148.014 461.859,103.103 463.219,74.7523 464.573,63.3073 466.197,73.5401 467.582,101.585 469.243,153.337 470.796,211.507 472.263,266.503 473.726,313.405 475.104,344.2 476.444,357.878 477.904,352.568 479.237,329.956 480.882,282.912 482.495,224.055 483.99,167.254 485.445,118.134 486.847,83.1969 488.17,65.6136 489.703,66.6633 491.047,86.3451 492.568,126.652 494.214,184.693 495.721,242.273 497.128,291.871 498.541,330.865 499.857,352.81 501.277,357.904 502.685,343.295 504.09,311.138 505.672,259.339 507.184,202.141 508.619,148.933 510.069,103.876 511.429,75.1998 512.781,63.4192 514.403,73.1582 515.786,100.773 517.425,151.422 518.977,209.344 520.446,264.574 521.91,311.88 523.291,343.326 524.628,357.617 526.033,353.632 527.345,332.764 528.929,289.16 530.557,230.712 532.058,173.485 533.493,123.92 534.903,86.8836 536.22,67.1483 537.686,64.9237 539.003,80.9314 540.444,115.681 542.217,175.915 543.76,234.774 545.14,284.477 546.556,325.664 547.888,350.366 549.271,358.402 550.844,344.537 552.243,313.459 553.909,259.315 555.443,201.275 556.884,147.988 558.335,103.137 559.694,74.8326 561.048,63.4189 562.674,73.6821 564.058,101.744 565.72,153.499 567.274,211.643 568.74,266.578 570.203,313.409 571.58,344.141 572.921,357.775 574.386,352.373 575.72,329.647 577.369,282.378 578.983,223.509 580.477,166.783 581.933,117.763 583.334,83.0273 584.659,65.6259 586.198,66.9575 587.544,86.9454 589.074,127.745 590.715,185.754 592.221,243.228 593.633,292.809 595.045,331.46 596.36,353.003 597.786,357.658 599.177,342.881 600.586,310.438 602.162,258.718 603.671,201.61 605.104,148.579 606.552,103.691 607.912,75.1682 609.265,63.5141 610.888,73.4224 612.271,101.174 613.916,152.08 615.468,210.022 616.936,265.13 618.4,312.263 619.78,343.479 621.118,357.569 622.531,353.274 623.848,332.04 625.444,287.741 627.069,229.248 628.568,172.149 630.009,122.693 631.417,86.1441 632.735,66.9001 634.214,65.37 635.537,82.1507 636.993,117.996 638.724,177.199 640.256,235.613 641.624,284.79 643.036,325.723 644.366,350.319 645.75,358.281 647.318,344.417 648.717,313.353 650.383,259.258 651.917,201.253 653.357,148.012 654.809,103.207 656.168,74.9315 657.522,63.5326 659.148,73.8022 660.533,101.861 662.195,153.598 663.749,211.715 665.215,266.599 666.678,313.372 668.054,344.06 669.395,357.666 670.863,352.217 672.198,329.436 673.85,282.065 675.463,223.202 676.958,166.534 678.415,117.591 679.815,82.9792 681.14,65.6837 682.684,67.1743 684.031,87.3312 685.566,128.401 687.204,186.388 688.71,243.788 690.124,293.336 691.536,331.768 692.85,353.068 694.281,357.459 695.661,342.581 697.073,309.96 698.646,258.284 700.154,201.238 701.585,148.342 703.032,103.586 704.391,75.1771 705.745,63.6151 707.369,73.6431 708.753,101.489 710.403,152.617 711.956,210.582 713.423,265.583 714.886,312.565 716.265,343.587 717.604,357.508 719.034,352.859 720.356,331.152 721.969,285.966 723.59,227.403 725.088,170.46 726.534,121.163 727.939,85.2228 729.26,66.5886 730.756,65.9489 732.086,83.7212 733.564,121.018 735.256,179.46 736.778,237.458 738.155,286.661 739.567,327.027 740.893,350.879 742.286,358.074 743.803,344.123 745.2,312.983 746.842,259.715 748.371,201.985 749.811,148.711 751.263,103.78 752.623,75.2939 753.976,63.6812 755.6,73.6258 756.984,101.395 758.63,152.316 760.182,210.229 761.651,265.248 763.113,312.274 764.493,343.394 765.832,357.416 767.25,353.003 768.569,331.617 770.171,287.049 771.795,228.56 773.295,171.553 774.737,122.201 776.144,85.9108 777.463,66.9075 778.948,65.7071 780.274,82.8457 781.739,119.198 783.453,177.988 784.98,236.188 786.349,285.253 787.76,325.968 789.089,350.339 790.476,358.088 792.03,344.215 793.428,313.162 795.091,259.216 796.625,201.287 798.065,148.111 799.516,103.362 800.875,75.1055 802.23,63.7059 803.856,73.9531 805.241,101.979 806.904,153.665 808.458,211.742 809.924,266.564 811.387,313.269 812.763,343.913 814.105,357.498 815.573,352.032 816.909,329.241 818.562,281.87 820.176,223.038 821.67,166.436 823.127,117.577 824.527,83.0558 825.852,65.825 827.398,67.3978 828.747,87.634 830.284,128.82 831.922,186.778 833.427,244.106 834.844,293.593 836.255,331.864 837.568,353.006 839.002,357.234 840.377,342.298 841.791,309.577 843.362,257.938 844.87,200.954 846.3,148.19 847.746,103.563 849.104,75.2597 850.459,63.776 852.084,73.8964 853.469,101.809 855.131,153.378 856.686,211.438 858.153,266.291 859.616,313.042 860.993,343.76 862.334,357.417 863.792,352.16 865.125,329.653 866.767,282.887 868.382,224.154 869.878,167.492 871.332,118.539 872.734,83.6714 874.058,66.0903 875.59,67.0759 876.934,86.6544 878.454,126.75 880.103,184.722 881.612,242.187 883.018,291.615 884.377,329.008" stroke-width="1" stroke-linecap="butt" stroke="#000000"/>
  </g>
  <clipPath id="cp00976449">
   <polygon points="0,449 976,449 976,0 0,0"/>
  </clipPath>
  <g clip-path="url(#cp00976449)">
   <polygon fill="#ffffff" points="707.627,122.64 871.822,122.64 871.822,45.4761 707.627,45.4761" shape-rendering="crispEdges"/>
   <polyline fill="none" stroke-dasharray="16,0" stroke-linejoin="miter" points="707.627,122.64 871.822,122.64" stroke-width="0.5" stroke-linecap="square" stroke="#262626"/>
   <polyline fill="none" stroke-dasharray="16,0" stroke-linejoin="miter" points="707.627,45.4761 871.822,45.4761" stroke-width="0.5" stroke-linecap="square" stroke="#262626"/>
   <polyline fill="none" stroke-dasharray="16,0" stroke-linejoin="miter" points="707.627,122.64 707.627,45.4761" stroke-width="0.5" stroke-linecap="square" stroke="#262626"/>
   <polyline fill="none" stroke-dasharray="16,0" stroke-linejoin="miter" points="871.822,122.64 871.822,45.4761" stroke-width="0.5" stroke-linecap="square" stroke="#262626"/>
   <polyline fill="none" stroke-linejoin="round" points="713.526,66.2419 743.023,66.2419" stroke-width="1" stroke-linecap="butt" stroke="#000000"/>
   <g font-style="normal" font-family="FreeSans" font-size="21.6" xml:space="preserve" transform="translate(748.922,75.2418) rotate(-0,-0,-9)" font-weight="normal">
    <text fill="rgb(0,0,0)" y="-1" x="0 13 19 24 29 42 47 59 64 77 95 107 ">Fti = u Fmax</text>
   </g>
   <polyline fill="none" stroke-dasharray="1,3,1,3,1,3,1,3" stroke-linejoin="round" points="713.526,101.874 743.023,101.874" stroke-width="1" stroke-linecap="butt" stroke="#000000"/>
   <g font-style="normal" font-family="FreeSans" font-size="21.6" xml:space="preserve" transform="translate(748.922,110.374) rotate(-0,-0,-8.5)" font-weight="normal">
    <text fill="rgb(0,0,0)" y="-0" x="0 13 19 24 29 42 47 ">Fti = 1</text>
   </g>
  </g>
 </g>
</svg>
