<?xml version='1.0' encoding='UTF-8' standalone='no'?>
<svg xmlns="http://www.w3.org/2000/svg" height="448pt" viewBox="0 0 976 448" xmlns:xlink="http://www.w3.org/1999/xlink" width="976pt">
 <title>Figure 1</title>
 <desc>
Creator: GL2PS 1.4.2, (C) 1999-2020 C. Geuzaine
For: Octave
CreationDate: Tue Aug 22 03:27:56 2023
</desc>
 <defs/>
 <polygon points="0,0 976,0 976,448 0,448" fill="#ffffff"/>
 <g>
  <polygon points="0,448 976,448 976,0 0,0" shape-rendering="crispEdges" fill="#ffffff"/>
  <clipPath id="cp00976448">
   <polygon points="0,448 976,448 976,0 0,0"/>
  </clipPath>
  <g clip-path="url(#cp00976448)">
   <polygon points="126.929,387.546 883.62,387.546 883.62,33.6396 126.929,33.6396" shape-rendering="crispEdges" fill="#ffffff"/>
   <polyline stroke-width="0.5" points="126.929,387.546 126.929,33.6396" stroke-dasharray="16,0" stroke="#262626" stroke-linecap="butt" stroke-linejoin="miter" fill="none" stroke-opacity="0.15"/>
   <polyline stroke-width="0.5" points="279.796,387.546 279.796,33.6396" stroke-dasharray="16,0" stroke="#262626" stroke-linecap="butt" stroke-linejoin="miter" fill="none" stroke-opacity="0.15"/>
   <polyline stroke-width="0.5" points="432.663,387.546 432.663,33.6396" stroke-dasharray="16,0" stroke="#262626" stroke-linecap="butt" stroke-linejoin="miter" fill="none" stroke-opacity="0.15"/>
   <polyline stroke-width="0.5" points="585.53,387.546 585.53,33.6396" stroke-dasharray="16,0" stroke="#262626" stroke-linecap="butt" stroke-linejoin="miter" fill="none" stroke-opacity="0.15"/>
   <polyline stroke-width="0.5" points="738.397,387.546 738.397,33.6396" stroke-dasharray="16,0" stroke="#262626" stroke-linecap="butt" stroke-linejoin="miter" fill="none" stroke-opacity="0.15"/>
   <polyline stroke-width="0.5" points="126.929,387.546 126.929,379.981" stroke="#262626" stroke-linecap="butt" stroke-linejoin="miter" fill="none"/>
   <polyline stroke-width="0.5" points="279.796,387.546 279.796,379.981" stroke="#262626" stroke-linecap="butt" stroke-linejoin="miter" fill="none"/>
   <polyline stroke-width="0.5" points="432.663,387.546 432.663,379.981" stroke="#262626" stroke-linecap="butt" stroke-linejoin="miter" fill="none"/>
   <polyline stroke-width="0.5" points="585.53,387.546 585.53,379.981" stroke="#262626" stroke-linecap="butt" stroke-linejoin="miter" fill="none"/>
   <polyline stroke-width="0.5" points="738.397,387.546 738.397,379.981" stroke="#262626" stroke-linecap="butt" stroke-linejoin="miter" fill="none"/>
   <g font-family="'Times New Roman'" font-style="normal" font-weight="normal" font-size="24" transform="translate(120.929,422.54) rotate(-0,6,-17)" xml:space="preserve">
    <text x="0 " y="-0" fill="rgb(38,38,38)">0</text>
   </g>
   <g font-family="'Times New Roman'" font-style="normal" font-weight="normal" font-size="24" transform="translate(249.796,422.54) rotate(-0,30,-17)" xml:space="preserve">
    <text x="0 12 24 36 48 " y="-0" fill="rgb(38,38,38)">20000</text>
   </g>
   <g font-family="'Times New Roman'" font-style="normal" font-weight="normal" font-size="24" transform="translate(402.663,422.54) rotate(-0,30,-17)" xml:space="preserve">
    <text x="0 12 24 36 48 " y="-0" fill="rgb(38,38,38)">40000</text>
   </g>
   <g font-family="'Times New Roman'" font-style="normal" font-weight="normal" font-size="24" transform="translate(555.53,422.54) rotate(-0,30,-17)" xml:space="preserve">
    <text x="0 12 24 36 48 " y="-0" fill="rgb(38,38,38)">60000</text>
   </g>
   <g font-family="'Times New Roman'" font-style="normal" font-weight="normal" font-size="24" transform="translate(708.397,422.54) rotate(-0,30,-17)" xml:space="preserve">
    <text x="0 12 24 36 48 " y="-0" fill="rgb(38,38,38)">80000</text>
   </g>
   <polyline stroke-width="0.5" points="126.929,387.546 883.62,387.546" stroke-dasharray="16,0" stroke="#262626" stroke-linecap="butt" stroke-linejoin="miter" fill="none" stroke-opacity="0.15"/>
   <polyline stroke-width="0.5" points="126.929,316.764 883.62,316.764" stroke-dasharray="16,0" stroke="#262626" stroke-linecap="butt" stroke-linejoin="miter" fill="none" stroke-opacity="0.15"/>
   <polyline stroke-width="0.5" points="126.929,245.983 883.62,245.983" stroke-dasharray="16,0" stroke="#262626" stroke-linecap="butt" stroke-linejoin="miter" fill="none" stroke-opacity="0.15"/>
   <polyline stroke-width="0.5" points="126.929,175.203 883.62,175.203" stroke-dasharray="16,0" stroke="#262626" stroke-linecap="butt" stroke-linejoin="miter" fill="none" stroke-opacity="0.15"/>
   <polyline stroke-width="0.5" points="126.929,104.422 883.62,104.422" stroke-dasharray="16,0" stroke="#262626" stroke-linecap="butt" stroke-linejoin="miter" fill="none" stroke-opacity="0.15"/>
   <polyline stroke-width="0.5" points="126.929,33.6396 883.62,33.6396" stroke-dasharray="16,0" stroke="#262626" stroke-linecap="butt" stroke-linejoin="miter" fill="none" stroke-opacity="0.15"/>
   <polyline stroke-width="0.5" points="126.929,387.546 134.493,387.546" stroke="#262626" stroke-linecap="butt" stroke-linejoin="miter" fill="none"/>
   <polyline stroke-width="0.5" points="126.929,316.764 134.493,316.764" stroke="#262626" stroke-linecap="butt" stroke-linejoin="miter" fill="none"/>
   <polyline stroke-width="0.5" points="126.929,245.983 134.493,245.983" stroke="#262626" stroke-linecap="butt" stroke-linejoin="miter" fill="none"/>
   <polyline stroke-width="0.5" points="126.929,175.203 134.493,175.203" stroke="#262626" stroke-linecap="butt" stroke-linejoin="miter" fill="none"/>
   <polyline stroke-width="0.5" points="126.929,104.422 134.493,104.422" stroke="#262626" stroke-linecap="butt" stroke-linejoin="miter" fill="none"/>
   <polyline stroke-width="0.5" points="126.929,33.6396 134.493,33.6396" stroke="#262626" stroke-linecap="butt" stroke-linejoin="miter" fill="none"/>
   <g font-family="'Times New Roman'" font-style="normal" font-weight="normal" font-size="24" transform="translate(60.9338,396.045) rotate(-0,54,-8.5)" xml:space="preserve">
    <text x="0 12 18 30 42 " y="-0" fill="rgb(38,38,38)">0.096</text>
   </g>
   <g font-family="'Times New Roman'" font-style="normal" font-weight="normal" font-size="24" transform="translate(48.9338,325.264) rotate(-0,66,-8.5)" xml:space="preserve">
    <text x="0 12 18 30 42 54 " y="-0" fill="rgb(38,38,38)">0.0965</text>
   </g>
   <g font-family="'Times New Roman'" font-style="normal" font-weight="normal" font-size="24" transform="translate(60.9338,254.483) rotate(-0,54,-8.5)" xml:space="preserve">
    <text x="0 12 18 30 42 " y="-0" fill="rgb(38,38,38)">0.097</text>
   </g>
   <g font-family="'Times New Roman'" font-style="normal" font-weight="normal" font-size="24" transform="translate(48.9338,183.702) rotate(-0,66,-8.5)" xml:space="preserve">
    <text x="0 12 18 30 42 54 " y="-0" fill="rgb(38,38,38)">0.0975</text>
   </g>
   <g font-family="'Times New Roman'" font-style="normal" font-weight="normal" font-size="24" transform="translate(60.9338,112.92) rotate(-0,54,-8.5)" xml:space="preserve">
    <text x="0 12 18 30 42 " y="-0" fill="rgb(38,38,38)">0.098</text>
   </g>
   <g font-family="'Times New Roman'" font-style="normal" font-weight="normal" font-size="24" transform="translate(48.9338,42.1392) rotate(-0,66,-8.5)" xml:space="preserve">
    <text x="0 12 18 30 42 54 " y="-0" fill="rgb(38,38,38)">0.0985</text>
   </g>
   <polyline stroke-width="0.5" points="126.929,387.546 883.62,387.546" stroke-dasharray="16,0" stroke="#262626" stroke-linecap="square" stroke-linejoin="miter" fill="none"/>
   <polyline stroke-width="0.5" points="126.929,387.546 126.929,33.6396" stroke-dasharray="16,0" stroke="#262626" stroke-linecap="square" stroke-linejoin="miter" fill="none"/>
   <g font-family="'Times New Roman'" font-style="normal" font-weight="normal" font-size="26.4" transform="translate(488.775,448.54) rotate(-0,16.5,-21)" xml:space="preserve">
    <text x="0 7 14 21 " y="-4" fill="rgb(38,38,38)">t, c</text>
   </g>
   <g font-family="'Times New Roman'" font-style="normal" font-weight="normal" font-size="26.4" transform="translate(7.93381,210.592) rotate(-90,36,0)" xml:space="preserve">
    <text x="0 14 23 30 39 46 53 " y="-5" fill="rgb(38,38,38)">F(t), Н</text>
   </g>
   <polyline stroke-width="1" points="126.929,219.25 126.93,219.25 126.932,219.25 126.934,219.25 126.938,219.25 126.944,219.25 126.952,219.249 126.965,219.246 126.984,219.242 127.013,219.232 127.056,219.207 127.121,219.154 127.218,219.031 127.363,218.755 127.582,218.131 127.909,216.731 128.4,213.601 129.137,206.755 129.902,197.444 130.666,186.859 131.43,176.273 132.195,166.943 132.959,159.725 133.723,154.789 134.488,151.578 135.252,149.055 136.016,146.108 136.781,141.977 137.545,136.532 138.309,130.317 138.459,128.874 138.459,128.874 138.46,128.864 138.462,128.851 138.464,128.831 138.468,128.801 138.474,128.756 138.482,128.687 138.495,128.587 138.514,128.436 138.543,128.212 138.586,127.883 138.651,127.401 138.748,126.708 138.893,125.733 139.112,124.421 139.439,122.8 139.931,121.185 140.667,120.685 141.432,122.688 142.196,127.236 142.96,134.131 143.725,142.983 144.489,153.215 145.254,164.109 146.018,174.868 146.782,184.685 147.547,192.816 148.311,198.649 149.075,201.745 149.29,201.759 149.29,201.759 149.291,201.76 149.293,201.763 149.295,201.764 149.299,201.768 149.305,201.774 149.313,201.781 149.326,201.793 149.345,201.809 149.374,201.828 149.417,201.852 149.482,201.871 149.579,201.862 149.725,201.764 149.943,201.423 150.27,200.457 150.762,197.942 151.499,191.758 152.263,182.581 153.027,171.431 153.792,159.543 154.556,148.178 155.32,138.21 156.085,129.855 156.849,122.684 157.613,115.919 158.378,108.867 159.142,101.312 159.906,93.7062 160.671,87.0941 160.841,85.7885 160.841,85.7885 160.842,85.7808 160.844,85.7705 160.846,85.7534 160.85,85.7286 160.856,85.691 160.864,85.6355 160.877,85.5535 160.896,85.4304 160.925,85.2518 160.968,84.9904 161.033,84.6169 161.13,84.1 161.275,83.4249 161.494,82.6465 161.821,82.0449 162.312,82.5063 163.049,86.4592 163.814,94.6923 164.578,106.679 165.342,121.505 166.107,137.946 166.871,154.643 167.635,170.305 168.4,183.868 169.164,194.577 169.928,202.019 170.693,206.072 171.457,206.85 171.672,206.215 171.672,206.215 171.673,206.214 171.675,206.209 171.677,206.203 171.681,206.197 171.687,206.184 171.695,206.166 171.708,206.138 171.727,206.093 171.756,206.022 171.799,205.908 171.864,205.716 171.961,205.387 172.106,204.789 172.325,203.664 172.652,201.448 173.143,196.952 173.88,187.792 174.645,175.953 175.409,162.923 176.173,149.992 176.938,138.168 177.702,127.916 178.466,119.107 179.231,111.216 179.995,103.666 180.759,96.1697 181.524,88.9355 182.288,82.6636 183.052,78.3467 183.214,77.7511 183.214,77.7511 183.215,77.7485 183.216,77.7426 183.219,77.7357 183.223,77.7238 183.228,77.7075 183.237,77.6819 183.25,77.6451 183.269,77.5922 183.298,77.5153 183.341,77.4093 183.405,77.27 183.503,77.106 183.648,76.9624 183.866,76.9846 184.194,77.5657 184.685,79.6959 185.422,85.6646 186.186,94.9888 186.951,106.727 187.715,119.854 188.479,133.279 189.244,146.009 190.008,157.262 190.772,166.519 191.537,173.507 192.301,178.145 193.065,180.465 193.83,180.555 194.045,179.969 194.045,179.969 194.046,179.966 194.048,179.962 194.05,179.957 194.054,179.95 194.059,179.938 194.068,179.92 194.081,179.893 194.1,179.851 194.129,179.784 194.172,179.681 194.237,179.512 194.334,179.232 194.479,178.75 194.697,177.882 195.025,176.26 195.516,173.106 196.253,166.87 197.017,158.836 197.782,149.768 198.546,140.315 199.311,131.058 200.075,122.385 200.839,114.447 201.604,107.194 202.368,100.491 203.132,94.2684 203.896,88.6331 204.661,83.9086 205.425,80.5863 205.579,80.0992 205.579,80.0992 205.58,80.0967 205.582,80.0916 205.584,80.0856 205.588,80.0762 205.594,80.0616 205.602,80.0394 205.615,80.0061 205.634,79.96 205.663,79.8916 205.706,79.7942 205.771,79.6635 205.868,79.496 206.013,79.3157 206.232,79.2037 206.559,79.4054 207.051,80.5538 207.787,84.182 208.552,90.2053 209.316,98.1615 210.08,107.505 210.845,117.597 211.609,127.769 212.373,137.398 213.138,145.958 213.902,153.032 214.666,158.328 215.431,161.659 216.195,162.933 216.41,162.708 216.41,162.708 216.411,162.708 216.413,162.707 216.415,162.706 216.419,162.704 216.425,162.702 216.433,162.698 216.446,162.69 216.465,162.68 216.494,162.661 216.537,162.627 216.602,162.565 216.699,162.448 216.844,162.214 217.063,161.735 217.39,160.723 217.882,158.556 218.619,153.931 219.383,147.661 220.147,140.35 220.911,132.552 221.676,124.796 222.44,117.463 223.205,110.73 223.969,104.585 224.733,98.9092 225.498,93.6165 226.262,88.7604 227.026,84.5853 227.791,81.5023 227.945,81.0144 227.945,81.0144 227.946,81.0118 227.948,81.0076 227.95,81.0007 227.954,80.9905 227.96,80.976 227.968,80.9537 227.981,80.9213 228,80.8734 228.029,80.8025 228.072,80.7034 228.137,80.5641 228.234,80.3829 228.379,80.1676 228.598,79.9822 228.925,80.0172 229.416,80.7957 230.153,83.6163 230.918,88.5416 231.682,95.2186 232.446,103.208 233.211,111.962 233.975,120.896 234.739,129.442 235.504,137.106 236.268,143.488 237.032,148.301 237.797,151.36 238.561,152.577 238.776,152.4 238.776,152.4 238.777,152.4 238.779,152.399 238.781,152.397 238.785,152.396 238.791,152.395 238.799,152.392 238.812,152.387 238.831,152.378 238.86,152.365 238.903,152.338 238.968,152.289 239.065,152.194 239.21,151.998 239.429,151.587 239.756,150.707 240.247,148.796 240.984,144.683 241.749,139.068 242.513,132.484 243.277,125.421 244.042,118.341 244.806,111.589 245.57,105.336 246.335,99.5953 247.099,94.306 247.863,89.4346 248.628,85.0656 249.392,81.4442 250.156,78.9371 250.312,78.574 250.312,78.574 250.313,78.5723 250.315,78.5688 250.317,78.5637 250.321,78.556 250.327,78.5458 250.335,78.5295 250.348,78.5056 250.367,78.4714 250.396,78.4219 250.439,78.3518 250.504,78.257 250.601,78.1382 250.746,78.0151 250.965,77.9536 251.292,78.1493 251.783,79.1029 252.52,82.0201 253.285,86.8156 254.049,93.1285 254.813,100.534 255.578,108.519 256.342,116.553 257.106,124.137 257.871,130.848 258.635,136.36 259.399,140.445 260.164,142.971 260.928,143.88 261.143,143.682 261.143,143.682 261.144,143.682 261.146,143.681 261.148,143.68 261.152,143.678 261.158,143.676 261.166,143.672 261.179,143.664 261.198,143.654 261.227,143.636 261.27,143.604 261.335,143.55 261.432,143.446 261.577,143.246 261.796,142.844 262.123,142.008 262.614,140.244 263.351,136.513 264.116,131.48 264.88,125.607 265.644,119.301 266.409,112.947 267.173,106.831 267.937,101.115 268.702,95.8407 269.466,91.0009 270.23,86.6088 270.995,82.7729 271.759,79.7096 272.523,77.7186 272.677,77.458 272.677,77.458 272.678,77.4572 272.68,77.4537 272.683,77.4512 272.686,77.4452 272.692,77.4384 272.701,77.4264 272.713,77.411 272.733,77.3862 272.761,77.3521 272.805,77.3042 272.869,77.2418 272.966,77.17 273.112,77.1094 273.33,77.1273 273.658,77.4033 274.149,78.3877 274.886,81.1315 275.65,85.4655 276.414,91.0521 277.179,97.5223 277.943,104.443 278.707,111.372 279.472,117.895 280.236,123.666 281.001,128.414 281.765,131.947 282.529,134.147 283.294,134.955 283.508,134.788 283.508,134.788 283.51,134.788 283.511,134.787 283.514,134.787 283.518,134.784 283.523,134.782 283.532,134.779 283.544,134.774 283.564,134.765 283.592,134.75 283.636,134.724 283.7,134.678 283.797,134.591 283.943,134.424 284.161,134.084 284.489,133.378 284.98,131.883 285.717,128.721 286.481,124.441 287.246,119.416 288.01,113.97 288.774,108.416 289.539,103.006 290.303,97.8983 291.067,93.1678 291.832,88.845 292.596,84.9733 293.36,81.651 294.125,79.0533 294.889,77.4093 295.042,77.2034 295.042,77.2034 295.043,77.2017 295.044,77.2 295.047,77.1974 295.051,77.1931 295.056,77.1871 295.065,77.1786 295.078,77.1649 295.097,77.1461 295.126,77.1196 295.169,77.0829 295.233,77.035 295.331,76.9829 295.476,76.9436 295.694,76.9769 296.022,77.2384 296.513,78.1143 297.25,80.4923 298.014,84.2119 298.779,88.9885 299.543,94.5222 300.307,100.459 301.072,106.432 301.836,112.093 302.6,117.14 303.365,121.33 304.129,124.486 304.893,126.487 305.658,127.271 305.873,127.144 305.873,127.144 305.874,127.144 305.875,127.143 305.878,127.143 305.882,127.142 305.887,127.14 305.896,127.137 305.909,127.135 305.928,127.128 305.957,127.118 306,127.099 306.065,127.065 306.162,126.997 306.307,126.864 306.525,126.586 306.853,125.998 307.344,124.738 308.081,122.045 308.845,118.372 309.61,114.028 310.374,109.283 311.138,104.402 311.903,99.6107 312.667,95.058 313.431,90.8317 314.196,86.9813 314.96,83.5574 315.725,80.6547 316.489,78.421 317.253,77.0419 317.405,76.8752 317.405,76.8752 317.407,76.8735 317.408,76.8718 317.411,76.8693 317.415,76.8667 317.42,76.8624 317.429,76.8547 317.442,76.8445 317.461,76.83 317.49,76.8086 317.533,76.7787 317.597,76.7428 317.694,76.7043 317.84,76.6813 318.058,76.7266 318.386,76.9786 318.877,77.7708 319.614,79.8779 320.378,83.1387 321.143,87.3103 321.907,92.1356 322.671,97.3147 323.436,102.529 324.2,107.483 324.964,111.909 325.729,115.598 326.493,118.385 327.257,120.162 328.022,120.87 328.237,120.764 328.237,120.764 328.238,120.764 328.239,120.763 328.242,120.763 328.246,120.762 328.251,120.761 328.26,120.759 328.273,120.757 328.292,120.752 328.321,120.743 328.364,120.727 328.428,120.699 328.525,120.641 328.671,120.528 328.889,120.289 329.217,119.781 329.708,118.686 330.445,116.342 331.209,113.134 331.974,109.328 332.738,105.15 333.502,100.831 334.267,96.5636 335.031,92.4902 335.795,88.7006 336.56,85.2544 337.324,82.215 338.088,79.6703 338.853,77.7468 339.617,76.6027 339.769,76.4728 339.769,76.4728 339.77,76.4728 339.772,76.4719 339.774,76.4702 339.778,76.4677 339.784,76.4634 339.792,76.4583 339.805,76.4506 339.824,76.4395 339.853,76.4232 339.896,76.4027 339.961,76.3771 340.058,76.3531 340.203,76.3463 340.422,76.4087 340.749,76.6608 341.241,77.399 341.977,79.3029 342.742,82.2013 343.506,85.8799 344.27,90.1173 345.035,94.6512 345.799,99.2125 346.563,103.545 347.328,107.417 348.092,110.648 348.856,113.092 349.621,114.654 350.385,115.28 350.6,115.188 350.6,115.188 350.601,115.188 350.603,115.188 350.605,115.188 350.609,115.186 350.615,115.186 350.623,115.185 350.636,115.181 350.655,115.177 350.684,115.17 350.727,115.157 350.792,115.132 350.889,115.083 351.034,114.984 351.253,114.776 351.58,114.334 352.072,113.379 352.809,111.333 353.573,108.532 354.337,105.199 355.102,101.528 355.866,97.712 356.63,93.9215 357.395,90.2882 358.159,86.901 358.923,83.8274 359.688,81.1349 360.452,78.9072 361.216,77.2538 361.981,76.3036 362.132,76.2019 362.132,76.2019 362.133,76.2019 362.135,76.201 362.137,76.2002 362.141,76.1976 362.147,76.1942 362.155,76.1917 362.168,76.1848 362.187,76.1771 362.216,76.1652 362.259,76.1506 362.324,76.1327 362.421,76.119 362.566,76.1241 362.785,76.1934 363.112,76.4369 363.604,77.1154 364.34,78.8167 365.105,81.375 365.869,84.6016 366.633,88.3041 367.398,92.2604 368.162,96.2397 368.926,100.022 369.691,103.41 370.455,106.241 371.219,108.391 371.984,109.771 372.748,110.333 372.963,110.255 372.963,110.255 372.964,110.255 372.966,110.255 372.968,110.253 372.972,110.253 372.978,110.253 372.986,110.252 372.999,110.249 373.018,110.247 373.047,110.24 373.09,110.229 373.155,110.208 373.252,110.167 373.398,110.082 373.616,109.904 373.943,109.52 374.435,108.695 375.172,106.918 375.936,104.481 376.7,101.571 377.465,98.3521 378.229,94.9888 378.993,91.6323 379.758,88.4032 380.522,85.3877 381.286,82.6567 382.051,80.2778 382.815,78.327 383.579,76.9026 384.344,76.1053 384.495,76.025 384.495,76.025 384.496,76.025 384.497,76.0242 384.5,76.0225 384.504,76.0216 384.509,76.0199 384.518,76.0165 384.531,76.0122 384.55,76.0062 384.579,75.996 384.622,75.9857 384.686,75.9746 384.783,75.9661 384.929,75.978 385.147,76.0498 385.475,76.278 385.966,76.8898 386.703,78.3988 387.467,80.6478 388.232,83.4702 388.996,86.7019 389.76,90.1532 390.525,93.6267 391.289,96.9336 392.053,99.9012 392.818,102.389 393.582,104.284 394.346,105.507 395.111,106.012 395.326,105.946 395.326,105.946 395.327,105.946 395.328,105.946 395.331,105.945 395.335,105.945 395.34,105.945 395.349,105.944 395.362,105.942 395.381,105.94 395.41,105.935 395.453,105.926 395.517,105.908 395.615,105.873 395.76,105.801 395.978,105.648 396.306,105.318 396.797,104.6 397.534,103.056 398.298,100.931 399.063,98.3871 399.827,95.5613 400.591,92.5979 401.356,89.6277 402.12,86.7609 402.884,84.0812 403.649,81.657 404.413,79.5558 405.177,77.8485 405.942,76.6155 406.706,75.9447 406.857,75.8815 406.857,75.8815 406.858,75.8806 406.86,75.8806 406.862,75.8789 406.866,75.8781 406.872,75.8763 406.88,75.8738 406.893,75.8712 406.912,75.8652 406.941,75.8593 406.984,75.8507 407.049,75.843 407.146,75.8405 407.291,75.8575 407.51,75.9276 407.837,76.1387 408.328,76.6907 409.065,78.0297 409.83,80.0095 410.594,82.4833 411.358,85.3099 412.123,88.3271 412.887,91.3649 413.651,94.2599 414.416,96.8618 415.18,99.0476 415.944,100.716 416.709,101.797 417.473,102.248 417.688,102.191 417.688,102.191 417.689,102.191 417.691,102.191 417.693,102.191 417.697,102.19 417.703,102.19 417.711,102.19 417.724,102.188 417.743,102.186 417.772,102.182 417.815,102.174 417.88,102.16 417.977,102.131 418.122,102.068 418.341,101.935 418.668,101.648 419.159,101.025 419.896,99.6782 420.661,97.8206 421.425,95.592 422.189,93.1089 422.954,90.4976 423.718,87.87 424.482,85.3262 425.247,82.9473 426.011,80.7982 426.775,78.9431 427.54,77.4469 428.304,76.3788 429.068,75.8131 429.219,75.7618 429.219,75.7618 429.22,75.7618 429.222,75.7618 429.224,75.761 429.228,75.7601 429.234,75.7593 429.242,75.7567 429.255,75.755 429.274,75.7516 429.303,75.7465 429.346,75.7413 429.411,75.7362 429.508,75.7371 429.653,75.7559 429.872,75.8242 430.199,76.0199 430.69,76.5164 431.427,77.705 432.192,79.4481 432.956,81.6194 433.72,84.0931 434.485,86.7335 435.249,89.3927 436.013,91.9271 436.778,94.2095 437.542,96.1278 438.306,97.5967 439.071,98.5503 439.835,98.951 440.05,98.9041 440.05,98.9041 440.051,98.9041 440.053,98.9041 440.055,98.9041 440.059,98.9041 440.065,98.9041 440.073,98.9032 440.086,98.9015 440.105,98.8998 440.134,98.8964 440.177,98.8904 440.242,98.8776 440.339,98.8519 440.484,98.7981 440.703,98.6836 441.03,98.4341 441.522,97.8906 442.258,96.714 443.023,95.0896 443.787,93.1379 444.551,90.9564 445.316,88.6544 446.08,86.3328 446.844,84.0795 447.609,81.9706 448.373,80.0676 449.137,78.4304 449.902,77.1188 450.666,76.1925 451.43,75.7123 451.581,75.6738 451.581,75.6738 451.582,75.6738 451.583,75.6721 451.586,75.6721 451.59,75.6713 451.595,75.6704 451.604,75.6696 451.617,75.667 451.636,75.6653 451.665,75.661 451.708,75.6576 451.772,75.655 451.87,75.6576 452.015,75.6781 452.233,75.743 452.561,75.9216 453.052,76.3677 453.789,77.4213 454.553,78.9551 455.318,80.8589 456.082,83.0259 456.846,85.3373 457.611,87.6641 458.375,89.884 459.139,91.8861 459.904,93.5712 460.668,94.8632 461.432,95.7057 462.197,96.062 462.412,96.0227 462.412,96.0227 462.413,96.0227 462.415,96.0227 462.417,96.0227 462.421,96.021 462.426,96.021 462.435,96.021 462.448,96.0201 462.467,96.0184 462.496,96.0159 462.539,96.0107 462.604,96.0005 462.701,95.9783 462.846,95.9313 463.065,95.8322 463.392,95.6151 463.883,95.1409 464.62,94.1129 465.384,92.6927 466.149,90.9812 466.913,89.0654 467.678,87.0386 468.442,84.9878 469.206,82.9943 469.97,81.1263 470.735,79.443 471.499,77.9989 472.264,76.8496 473.028,76.0447 473.792,75.6379 473.942,75.6063 473.942,75.6063 473.943,75.6063 473.945,75.6063 473.948,75.6046 473.951,75.6046 473.957,75.6038 473.965,75.6029 473.978,75.6021 473.997,75.5995 474.026,75.5969 474.069,75.5944 474.134,75.5935 474.231,75.5978 474.377,75.6174 474.595,75.6798 474.922,75.8413 475.414,76.2404 476.151,77.1709 476.915,78.521 477.679,80.1907 478.444,82.0894 479.208,84.1128 479.972,86.1499 480.737,88.0964 481.501,89.8524 482.265,91.3341 483.03,92.4714 483.794,93.2148 484.558,93.531 484.773,93.496 484.773,93.496 484.774,93.496 484.776,93.496 484.779,93.496 484.782,93.496 484.788,93.496 484.797,93.496 484.809,93.4951 484.829,93.4943 484.857,93.4917 484.9,93.4866 484.965,93.478 485.062,93.4592 485.208,93.4191 485.426,93.3328 485.754,93.1439 486.245,92.7303 486.982,91.8323 487.746,90.5881 488.51,89.0876 489.275,87.4043 490.039,85.6193 490.803,83.8094 491.568,82.0475 492.332,80.3949 493.096,78.9072 493.861,77.634 494.625,76.6257 495.389,75.9268 496.154,75.579 496.304,75.5533 496.304,75.5533 496.305,75.5533 496.306,75.5533 496.309,75.5533 496.313,75.5533 496.318,75.5525 496.327,75.5516 496.34,75.5499 496.359,75.5491 496.388,75.5474 496.431,75.5457 496.495,75.5457 496.592,75.5516 496.738,75.5704 496.956,75.6268 497.284,75.7738 497.775,76.1293 498.512,76.953 499.276,78.1407 500.041,79.6053 500.805,81.269 501.569,83.0404 502.334,84.8263 503.098,86.5327 503.862,88.0742 504.627,89.3756 505.391,90.3762 506.155,91.0325 506.92,91.3127 507.135,91.2837 507.135,91.2837 507.136,91.2837 507.137,91.2837 507.14,91.2837 507.144,91.2837 507.149,91.2837 507.158,91.2837 507.171,91.2828 507.19,91.2811 507.219,91.2794 507.262,91.276 507.326,91.2675 507.423,91.2521 507.569,91.217 507.787,91.1418 508.115,90.9778 508.606,90.6155 509.343,89.8302 510.107,88.7407 510.872,87.424 511.636,85.9457 512.4,84.3726 513.165,82.7772 513.929,81.2203 514.693,79.76 515.458,78.4458 516.222,77.3239 516.986,76.4395 517.751,75.8311 518.515,75.5337 518.665,75.5132 518.665,75.5132 518.666,75.5132 518.668,75.5132 518.67,75.5132 518.674,75.5123 518.68,75.5123 518.688,75.5115 518.701,75.5098 518.72,75.5089 518.749,75.5081 518.792,75.5072 518.857,75.5081 518.954,75.5132 519.099,75.5337 519.318,75.585 519.645,75.7166 520.136,76.0336 520.873,76.7607 521.638,77.8066 522.402,79.0918 523.166,80.5496 523.931,82.103 524.695,83.6685 525.459,85.1638 526.224,86.5173 526.988,87.6606 527.752,88.5416 528.517,89.1193 529.281,89.3679 529.496,89.3431 529.496,89.3431 529.497,89.3431 529.499,89.3431 529.501,89.3431 529.505,89.3431 529.511,89.3431 529.519,89.3431 529.532,89.3414 529.551,89.3414 529.58,89.3397 529.623,89.3363 529.688,89.3303 529.785,89.3158 529.93,89.2859 530.149,89.2201 530.476,89.0774 530.967,88.7604 531.704,88.0725 532.469,87.118 533.233,85.9636 533.997,84.6631 534.762,83.2788 535.526,81.8723 536.29,80.4983 537.055,79.2072 537.819,78.0476 538.583,77.0607 539.348,76.2831 540.112,75.7524 540.876,75.4987 541.026,75.4816 541.026,75.4816 541.027,75.4816 541.029,75.4816 541.031,75.4816 541.035,75.4816 541.041,75.4807 541.049,75.4807 541.062,75.4799 541.081,75.4799 541.11,75.4781 541.153,75.4781 541.218,75.4799 541.315,75.485 541.46,75.5029 541.679,75.5516 542.006,75.6696 542.497,75.9498 543.234,76.5933 543.999,77.5118 544.763,78.6406 545.527,79.9189 546.292,81.2802 547.056,82.6525 547.82,83.9658 548.585,85.1536 549.349,86.1576 550.113,86.9326 550.878,87.4419 551.642,87.6624 551.857,87.6401 551.857,87.6401 551.858,87.6401 551.86,87.6401 551.862,87.6401 551.866,87.6401 551.872,87.6401 551.88,87.6401 551.893,87.6393 551.912,87.6393 551.941,87.6376 551.984,87.635 552.049,87.6299 552.146,87.6171 552.291,87.5906 552.51,87.5342 552.837,87.4086 553.328,87.1317 554.065,86.5302 554.83,85.6927 555.594,84.6785 556.358,83.5377 557.123,82.3192 557.887,81.0793 558.651,79.866 559.416,78.7269 560.18,77.7041 560.944,76.8351 561.709,76.1523 562.473,75.6892 563.237,75.4713 563.387,75.4585 563.387,75.4585 563.388,75.4576 563.39,75.4576 563.392,75.4576 563.396,75.4576 563.402,75.4576 563.41,75.4576 563.423,75.4559 563.442,75.4559 563.471,75.4551 563.514,75.4551 563.579,75.4559 563.676,75.4628 563.821,75.4799 564.04,75.5226 564.367,75.6294 564.858,75.8781 565.595,76.4446 566.36,77.2529 567.124,78.2441 567.888,79.3652 568.653,80.559 569.417,81.7621 570.181,82.9139 570.946,83.9573 571.71,84.84 572.474,85.5227 573.239,85.9705 574.003,86.1661 574.218,86.1473 574.218,86.1473 574.219,86.1473 574.221,86.1473 574.223,86.1473 574.227,86.1473 574.233,86.1473 574.241,86.1473 574.254,86.1456 574.273,86.1456 574.302,86.1448 574.345,86.1431 574.41,86.1371 574.507,86.1268 574.652,86.1046 574.871,86.0542 575.198,85.9448 575.689,85.703 576.426,85.1749 577.191,84.4418 577.955,83.5514 578.719,82.5482 579.484,81.4758 580.248,80.3829 581.012,79.3131 581.777,78.3082 582.541,77.4067 583.305,76.6411 584.07,76.043 584.834,75.6388 585.598,75.45 585.748,75.4397 585.748,75.4397 585.749,75.4397 585.75,75.4397 585.753,75.4397 585.757,75.4397 585.762,75.438 585.771,75.438 585.784,75.438 585.803,75.438 585.832,75.4371 585.875,75.4371 585.939,75.4397 586.036,75.4448 586.182,75.4602 586.4,75.4995 586.728,75.5944 587.219,75.8148 587.956,76.3147 588.72,77.0256 589.485,77.8955 590.249,78.8799 591.013,79.9266 591.778,80.9819 592.542,81.9937 593.306,82.9088 594.071,83.6855 594.835,84.2854 595.599,84.6802 596.364,84.8528 596.579,84.8357 596.579,84.8357 596.58,84.8357 596.581,84.8357 596.584,84.8357 596.588,84.8357 596.593,84.8357 596.602,84.8357 596.615,84.8357 596.634,84.8348 596.663,84.834 596.706,84.8314 596.77,84.8271 596.867,84.8195 597.013,84.799 597.231,84.7562 597.559,84.6597 598.05,84.4478 598.787,83.9846 599.551,83.3412 600.316,82.5602 601.08,81.6783 601.844,80.735 602.609,79.772 603.373,78.8295 604.137,77.9434 604.902,77.1478 605.666,76.4753 606.43,75.9498 607.195,75.5969 607.959,75.4346 608.108,75.4243 608.108,75.4243 608.109,75.4243 608.111,75.4243 608.114,75.4243 608.117,75.4243 608.123,75.4243 608.132,75.4243 608.144,75.4243 608.164,75.4235 608.192,75.4235 608.235,75.4235 608.3,75.426 608.397,75.4312 608.543,75.4457 608.761,75.4807 609.089,75.5653 609.58,75.7601 610.317,76.201 611.081,76.8265 611.845,77.5896 612.61,78.4535 613.374,79.3712 614.138,80.2983 614.903,81.1853 615.667,81.9902 616.431,82.6713 617.196,83.1993 617.96,83.5471 618.724,83.7001 618.939,83.6855 618.939,83.6855 618.94,83.6855 618.942,83.6855 618.945,83.6855 618.948,83.6855 618.954,83.6855 618.963,83.6855 618.975,83.6855 618.995,83.6855 619.023,83.6838 619.067,83.6821 619.131,83.6787 619.228,83.6702 619.374,83.6539 619.592,83.6155 619.92,83.5309 620.411,83.3455 621.148,82.9404 621.912,82.3756 622.677,81.6895 623.441,80.9144 624.205,80.0847 624.97,79.2379 625.734,78.4065 626.498,77.6246 627.263,76.9248 628.027,76.3318 628.791,75.8712 629.555,75.5619 630.32,75.4218 630.469,75.4141 630.469,75.4141 630.47,75.4141 630.472,75.4141 630.474,75.4141 630.478,75.4141 630.484,75.4141 630.492,75.4132 630.505,75.4132 630.524,75.4132 630.553,75.4132 630.596,75.4132 630.661,75.4149 630.758,75.42 630.903,75.4329 631.122,75.4645 631.449,75.5397 631.94,75.7123 632.677,76.1011 633.442,76.6505 634.206,77.3213 634.97,78.0792 635.735,78.885 636.499,79.6985 637.263,80.4769 638.028,81.1836 638.792,81.7834 639.556,82.2466 640.321,82.5533 641.085,82.6875 641.3,82.6755 641.3,82.6755 641.301,82.6755 641.303,82.6755 641.305,82.6755 641.309,82.6755 641.315,82.6755 641.323,82.6755 641.336,82.6747 641.355,82.6747 641.384,82.6738 641.427,82.673 641.492,82.6696 641.589,82.6636 641.734,82.6473 641.953,82.6149 642.28,82.5405 642.772,82.3782 643.508,82.0219 644.273,81.5262 645.037,80.9238 645.802,80.2437 646.566,79.5139 647.33,78.7671 648.094,78.0348 648.859,77.3478 649.623,76.7308 650.387,76.2087 651.152,75.8037 651.916,75.5337 652.68,75.4106 652.83,75.4055 652.83,75.4055 652.831,75.4055 652.832,75.4055 652.835,75.4055 652.839,75.4055 652.844,75.4055 652.853,75.4047 652.866,75.4047 652.885,75.4047 652.914,75.4047 652.957,75.4055 653.021,75.4064 653.118,75.4124 653.264,75.4235 653.482,75.4525 653.81,75.5183 654.301,75.6713 655.038,76.0131 655.802,76.4967 656.567,77.0846 657.331,77.7502 658.095,78.4578 658.86,79.1721 659.624,79.8557 660.388,80.4769 661.153,81.0033 661.917,81.4109 662.681,81.6801 663.446,81.7997 663.661,81.7886 663.661,81.7886 663.662,81.7886 663.663,81.7886 663.666,81.7886 663.67,81.7886 663.675,81.7886 663.684,81.7886 663.697,81.7886 663.716,81.7877 663.745,81.7877 663.788,81.7869 663.852,81.7834 663.95,81.7775 664.095,81.7646 664.313,81.7347 664.641,81.6707 665.132,81.528 665.869,81.2161 666.633,80.7803 667.398,80.2522 668.162,79.6532 668.926,79.0115 669.691,78.3544 670.455,77.7101 671.219,77.1034 671.984,76.5608 672.748,76.1019 673.512,75.7465 674.277,75.5089 675.041,75.4038 675.19,75.3995 675.19,75.3995 675.191,75.3995 675.193,75.3995 675.195,75.3987 675.199,75.3987 675.205,75.3987 675.213,75.3987 675.226,75.3987 675.245,75.3987 675.274,75.3987 675.317,75.3995 675.382,75.4004 675.479,75.4047 675.624,75.4149 675.843,75.4406 676.17,75.4995 676.662,75.6345 677.398,75.9362 678.163,76.36 678.927,76.8778 679.691,77.4623 680.456,78.0826 681.22,78.7098 681.984,79.3105 682.749,79.8557 683.513,80.3188 684.278,80.6769 685.042,80.9144 685.806,81.0187 686.021,81.0093 686.021,81.0093 686.022,81.0093 686.024,81.0093 686.026,81.0093 686.03,81.0093 686.036,81.0093 686.044,81.0093 686.057,81.0093 686.076,81.0093 686.105,81.0084 686.148,81.0076 686.213,81.005 686.31,80.9999 686.456,80.9879 686.674,80.9631 687.001,80.9067 687.493,80.782 688.23,80.5077 688.994,80.1257 689.758,79.6617 690.523,79.1354 691.287,78.5706 692.051,77.9929 692.816,77.4247 693.58,76.8906 694.344,76.413 695.109,76.0088 695.873,75.6969 696.637,75.4901 697.402,75.3987 697.55,75.3944 697.55,75.3944 697.552,75.3944 697.553,75.3944 697.556,75.3944 697.56,75.3944 697.565,75.3944 697.574,75.3944 697.587,75.3944 697.606,75.3927 697.634,75.3944 697.678,75.3944 697.742,75.3953 697.839,75.3995 697.985,75.4089 698.203,75.4312 698.531,75.4841 699.022,75.6029 699.759,75.8678 700.523,76.2412 701.288,76.6958 702.052,77.2085 702.816,77.7537 703.581,78.304 704.345,78.8312 705.109,79.3105 705.874,79.7173 706.638,80.0326 707.402,80.2419 708.167,80.3342 708.382,80.3257 708.382,80.3257 708.383,80.3257 708.384,80.3257 708.387,80.3257 708.391,80.3257 708.396,80.3257 708.405,80.3257 708.418,80.3257 708.437,80.3257 708.466,80.3248 708.509,80.324 708.573,80.3214 708.67,80.3171 708.816,80.3077 709.034,80.2847 709.362,80.2351 709.853,80.1257 710.59,79.8848 711.354,79.5507 712.119,79.1422 712.883,78.6799 713.647,78.1826 714.412,77.6742 715.176,77.1743 715.94,76.7052 716.705,76.2839 717.469,75.9285 718.233,75.655 718.998,75.473 719.762,75.3927 719.911,75.3901 719.911,75.3901 719.912,75.3901 719.914,75.3901 719.916,75.3901 719.92,75.3901 719.926,75.3901 719.934,75.3901 719.947,75.3901 719.966,75.3901 719.995,75.3901 720.038,75.3901 720.103,75.3918 720.2,75.3953 720.345,75.4038 720.564,75.4235 720.891,75.4705 721.383,75.5756 722.119,75.8088 722.884,76.137 723.648,76.536 724.412,76.9863 725.177,77.4648 725.941,77.9476 726.705,78.4116 727.47,78.8329 728.234,79.1901 728.998,79.4678 729.763,79.6506 730.527,79.7318 730.742,79.725 730.742,79.725 730.743,79.725 730.745,79.725 730.747,79.725 730.751,79.725 730.757,79.725 730.765,79.725 730.778,79.725 730.797,79.725 730.826,79.725 730.869,79.7241 730.934,79.7216 731.031,79.7173 731.176,79.7087 731.395,79.6899 731.722,79.6455 732.214,79.5498 732.951,79.3387 733.715,79.0448 734.479,78.6859 735.243,78.28 736.008,77.8434 736.772,77.3948 737.536,76.9564 738.301,76.542 739.065,76.1711 739.83,75.8593 740.594,75.6191 741.358,75.4594 742.122,75.3901 742.271,75.3867 742.271,75.3867 742.272,75.3867 742.274,75.3867 742.277,75.3867 742.28,75.3867 742.286,75.3867 742.295,75.3867 742.307,75.3867 742.327,75.3867 742.355,75.3867 742.398,75.3876 742.463,75.3884 742.56,75.3918 742.706,75.3995 742.924,75.4175 743.252,75.4585 743.743,75.5499 744.48,75.7559 745.244,76.0447 746.008,76.395 746.773,76.7906 747.537,77.2111 748.301,77.6357 749.066,78.0425 749.83,78.4125 750.594,78.7269 751.359,78.9705 752.123,79.132 752.887,79.2037 753.102,79.1978 753.102,79.1978 753.103,79.1978 753.105,79.1978 753.108,79.1978 753.111,79.1978 753.117,79.1978 753.126,79.1978 753.138,79.1978 753.158,79.1978 753.186,79.196 753.229,79.196 753.294,79.1943 753.391,79.1909 753.537,79.1841 753.755,79.167 754.083,79.1277 754.574,79.0431 755.311,78.8585 756.075,78.5996 756.839,78.2852 757.604,77.9271 758.368,77.5435 759.132,77.1504 759.897,76.7633 760.661,76.3993 761.425,76.0737 762.19,75.7994 762.954,75.5875 763.719,75.4482 764.483,75.3867 764.632,75.385 764.632,75.385 764.633,75.385 764.634,75.385 764.637,75.385 764.641,75.385 764.646,75.385 764.655,75.385 764.668,75.385 764.687,75.385 764.716,75.385 764.759,75.385 764.823,75.3867 764.921,75.3884 765.066,75.3961 765.284,75.4124 765.612,75.4482 766.103,75.5294 766.84,75.7106 767.604,75.9635 768.369,76.272 769.133,76.6198 769.897,76.9889 770.662,77.3615 771.426,77.7186 772.19,78.0433 772.955,78.3202 773.719,78.5338 774.483,78.6765 775.248,78.7397 775.463,78.7346 775.463,78.7346 775.464,78.7346 775.465,78.7346 775.468,78.7346 775.472,78.7346 775.477,78.7346 775.486,78.7346 775.499,78.7338 775.518,78.7338 775.547,78.7338 775.59,78.7338 775.655,78.7312 775.752,78.7278 775.897,78.7218 776.115,78.7073 776.443,78.6731 776.934,78.5996 777.671,78.4373 778.435,78.2091 779.2,77.9331 779.964,77.6187 780.729,77.2811 781.493,76.9351 782.257,76.5941 783.022,76.2737 783.786,75.9866 784.55,75.7465 785.315,75.5593 786.079,75.4371 786.843,75.385 786.992,75.3824 786.992,75.3824 786.993,75.3824 786.995,75.3824 786.997,75.3824 787.001,75.3824 787.007,75.3824 787.015,75.3824 787.028,75.3824 787.047,75.3824 787.076,75.3824 787.119,75.3833 787.184,75.385 787.281,75.3867 787.426,75.3927 787.645,75.4064 787.972,75.438 788.463,75.5098 789.2,75.6696 789.965,75.8926 790.729,76.1626 791.493,76.4685 792.258,76.7924 793.022,77.1196 793.786,77.4341 794.551,77.7195 795.315,77.9622 796.079,78.151 796.844,78.2758 797.608,78.3313 797.823,78.327 797.823,78.327 797.824,78.327 797.826,78.327 797.828,78.327 797.832,78.3262 797.838,78.3262 797.846,78.3262 797.859,78.3262 797.878,78.3262 797.907,78.3262 797.95,78.3262 798.015,78.3245 798.112,78.3219 798.257,78.3159 798.476,78.3031 798.803,78.2732 799.295,78.2083 800.031,78.0656 800.796,77.8665 801.56,77.6229 802.324,77.3478 803.089,77.0504 803.853,76.7462 804.617,76.4463 805.382,76.1643 806.146,75.9122 806.91,75.7003 807.675,75.5363 808.439,75.4286 809.203,75.3824 809.352,75.3816 809.352,75.3816 809.353,75.3816 809.355,75.3816 809.357,75.3816 809.361,75.3816 809.367,75.3816 809.375,75.3816 809.388,75.3816 809.407,75.3816 809.436,75.3816 809.479,75.3816 809.544,75.3824 809.641,75.385 809.787,75.3901 810.005,75.403 810.332,75.4312 810.824,75.4944 811.561,75.6345 812.325,75.8293 813.089,76.0677 813.854,76.3361 814.618,76.6206 815.382,76.9086 816.147,77.1837 816.911,77.4349 817.675,77.6494 818.44,77.8143 819.204,77.9246 819.968,77.9733 820.183,77.969 820.183,77.969 820.184,77.969 820.186,77.969 820.189,77.969 820.192,77.969 820.198,77.969 820.207,77.969 820.219,77.969 820.239,77.969 820.267,77.969 820.31,77.9673 820.375,77.9664 820.472,77.9647 820.618,77.9596 820.836,77.9476 821.164,77.922 821.655,77.8656 822.392,77.74 823.156,77.5648 823.92,77.3503 824.685,77.1077 825.449,76.8479 826.213,76.5796 826.978,76.3156 827.742,76.0677 828.506,75.8464 829.271,75.6602 830.035,75.5166 830.799,75.4226 831.564,75.3816 831.712,75.3807 831.712,75.3807 831.714,75.3807 831.715,75.3807 831.718,75.3807 831.722,75.3807 831.727,75.3807 831.736,75.3807 831.749,75.3807 831.768,75.3807 831.796,75.3807 831.84,75.3807 831.904,75.3816 832.001,75.3833 832.147,75.3884 832.365,75.3995 832.693,75.4235 833.184,75.4799 833.921,75.6029 834.685,75.7747 835.45,75.984 836.214,76.2198 836.978,76.4702 837.743,76.7223 838.507,76.965 839.271,77.1854 840.036,77.3726 840.8,77.5187 841.564,77.6152 842.329,77.6588 842.544,77.6545 842.544,77.6545 842.545,77.6545 842.546,77.6545 842.549,77.6545 842.553,77.6545 842.558,77.6545 842.567,77.6545 842.58,77.6545 842.599,77.6545 842.628,77.6545 842.671,77.6545 842.735,77.6537 842.832,77.6511 842.978,77.6469 843.196,77.6366 843.524,77.6135 844.015,77.564 844.752,77.4529 845.516,77.2991 846.281,77.1111 847.045,76.8983 847.809,76.6693 848.574,76.4343 849.338,76.2019 850.102,75.984 850.867,75.7883 851.631,75.6251 852.395,75.4987 853.16,75.4166 853.924,75.3807 854.073,75.379 854.073,75.379 854.074,75.379 854.076,75.379 854.078,75.379 854.082,75.379 854.087,75.379 854.096,75.379 854.109,75.379 854.128,75.379 854.157,75.379 854.2,75.3807 854.265,75.3807 854.362,75.3824 854.507,75.3867 854.725,75.3961 855.053,75.4183 855.544,75.467 856.281,75.5756 857.045,75.726 857.81,75.9105 858.574,76.1173 859.338,76.3369 860.103,76.5599 860.867,76.7727 861.631,76.9658 862.396,77.1316 863.16,77.2589 863.924,77.3444 864.689,77.3811 864.904,77.3777 864.904,77.3777 864.905,77.3777 864.906,77.3777 864.909,77.3777 864.913,77.3777 864.919,77.3777 864.927,77.3777 864.94,77.3777 864.959,77.3777 864.988,77.3777 865.031,77.3777 865.096,77.3768 865.193,77.3751 865.338,77.3717 865.557,77.3623 865.884,77.3418 866.375,77.2991 867.112,77.2017 867.877,77.0667 868.641,76.9009 869.405,76.7146 870.17,76.5121 870.934,76.3053 871.698,76.1019 872.463,75.9097 873.227,75.7379 873.991,75.5944 874.756,75.4824 875.52,75.4106 876.284,75.379 876.433,75.3782 876.433,75.3782 876.434,75.3782 876.436,75.3782 876.438,75.3782 876.442,75.3782 876.448,75.3782 876.456,75.3782 876.469,75.3782 876.488,75.379 876.517,75.379 876.56,75.379 876.625,75.3807 876.722,75.3816 876.867,75.3859 877.086,75.3944 877.413,75.4132 877.904,75.4559 878.641,75.5516 879.406,75.6841 880.17,75.8456 880.934,76.0276 881.699,76.2207 882.463,76.4164 883.227,76.6027 883.992,76.7727 884.377,76.8459" stroke="#000000" stroke-linecap="butt" stroke-linejoin="round" fill="none"/>
   <polyline stroke-width="1" points="126.929,234.797 126.93,234.797 126.932,234.797 126.934,234.797 126.938,234.797 126.944,234.797 126.952,234.797 126.965,234.794 126.984,234.79 127.013,234.779 127.056,234.756 127.121,234.703 127.218,234.583 127.363,234.312 127.582,233.702 127.909,232.328 128.4,229.261 129.137,222.553 130.243,208.887 131.901,186.848 134.388,168.847 136.874,158.462 139.415,139.567 142.078,142.062 144.63,179.096 147.007,224.485 149.628,272.257 152.877,312.581 156.03,310.036 160.09,275.855 163.693,265.399 168.254,300.149 171.845,346.798 175.243,372.477 179.7,337.42 183.898,228.638 188.973,145.249 192.083,189.219 194.755,236.052 197.14,240.806 199.734,209.929 201.951,172.3 204.098,144.038 206.826,154.26 210.06,214.805 212.911,230.063 215.633,228.634 218.138,240.914 220.581,246.351 223.338,225.883 225.767,180.54 228.259,131.061 230.658,111.57 232.976,136.499 235.972,219.254 238.439,256.699 240.85,243.72 243.161,232.501 245.389,219.7 247.289,190.147 249.123,155.295 250.891,129.773 252.858,115.262 255.192,115.115 258.293,146.322 261.224,198.933 263.909,234.991 266.494,236.128 268.972,213.05 271.336,178.416 273.606,136.21 276.222,99.1237 278.904,107.268 281.392,149.616 283.913,191.622 286.504,219.14 288.992,233.112 291.361,226.212 294.147,186.583 296.852,134.411 299.459,99.0143 302.982,109.118 306.247,170.728 309.099,216.537 311.574,231.913 314.102,230.371 316.472,207.905 319.208,156.024 322.33,102.343 325.098,98.2333 327.607,133.068 330.303,184.863 332.898,220.184 335.531,233.194 338.618,218.439 341.373,174.626 344.68,112.437 347.769,95.3357 350.617,131.441 353.381,185.353 355.944,219.867 358.56,233.082 361.243,223.868 363.816,187.686 366.937,126.064 369.907,94.1377 372.739,114.138 375.559,167.172 378.239,211.13 380.788,230.792 383.87,227.437 386.494,195.755 389.589,135.089 392.673,95.3365 395.53,109.292 398.309,159.526 401.002,206.265 403.543,229.045 406.458,230.493 409.024,205.559 411.91,151.36 415.095,100.207 417.997,101.321 420.677,143.906 423.392,195.199 425.927,224.432 428.626,233.034 431.412,215.852 434.095,171.006 437.154,113.215 440.061,94.4445 442.823,124.94 445.611,179.073 448.227,217.12 450.818,232.429 453.926,222.501 456.575,184.005 459.704,122.713 462.682,93.8728 465.506,117.173 468.315,170.693 470.971,212.804 473.533,231.254 476.208,228.868 478.715,201.615 481.714,143.971 484.853,97.636 487.738,104.555 490.474,151.062 493.182,200.56 495.704,226.638 498.479,232.282 501.055,213.183 503.784,165.778 506.774,110.547 509.656,94.9905 512.391,127.34 515.164,181.253 517.768,218.11 520.368,232.57 523.488,221.191 526.146,181.3 529.335,119.349 532.312,93.8737 535.125,120.191 537.934,174.227 540.576,214.646 543.148,231.729 545.977,226.657 548.542,194.989 551.726,132.662 554.818,94.8102 557.683,111.134 560.483,162.585 563.169,208.125 565.712,229.609 568.689,229.276 571.279,201.718 574.242,144.875 577.373,98.0367 580.257,103.893 582.982,149.638 585.692,199.474 588.212,226.102 590.97,232.36 593.585,213.679 596.302,166.924 599.305,111.166 602.193,94.8392 604.935,126.716 607.711,180.632 610.318,217.751 612.916,232.412 616.033,221.395 618.689,181.87 621.876,119.919 624.856,93.8557 627.672,119.677 630.481,173.604 633.126,214.26 635.697,231.543 638.482,227.04 641.034,196.356 644.173,135.099 647.271,95.3007 650.141,109.469 652.929,159.927 655.623,206.426 658.16,228.908 661.079,230.081 663.649,204.837 666.541,150.433 669.721,99.8696 672.62,101.633 675.301,144.46 678.013,195.45 680.545,224.363 683.251,232.703 686.016,215.358 688.704,170.374 691.762,112.864 694.67,94.5077 697.43,125.245 700.216,179.231 702.83,217.019 705.422,232.174 708.533,222.015 711.184,183.35 714.32,122.113 717.298,93.8574 720.12,117.565 722.929,171.054 725.583,212.84 728.147,231.056 730.83,228.36 733.343,200.692 736.358,142.684 739.492,97.2651 742.375,105.122 745.118,152.109 747.826,201.157 750.35,226.718 753.141,231.798 755.685,212.333 758.428,164.427 761.902,103.763 764.881,98.8058 767.544,137.884 770.269,190.139 772.825,222.011 775.48,232.753 778.497,216.382 781.181,172.296 784.378,112.265 787.321,94.7504 790.085,126.61 792.871,180.599 795.479,217.638 798.078,232.218 801.197,221.078 803.854,181.483 807.043,119.643 810.023,93.8625 812.838,119.849 815.646,173.698 818.289,214.183 820.862,231.367 823.561,227.31 826.09,197.809 829.185,137.718 832.297,95.9073 835.171,107.829 837.946,157.098 840.645,204.496 843.178,228.024 846.046,230.638 848.597,207.656 851.428,155.731 854.678,101.668 857.598,99.985 860.237,140.116 862.946,191.745 865.493,222.635 868.162,232.64 871.089,216.09 873.77,171.954 876.928,112.625 879.862,94.6333 882.627,125.983 884.377,159.856" stroke-dasharray="1,3,1,3,1,3,1,3" stroke="#000000" stroke-linecap="butt" stroke-linejoin="round" fill="none"/>
  </g>
  <clipPath id="cp00976448">
   <polygon points="0,448 976,448 976,0 0,0"/>
  </clipPath>
  <g clip-path="url(#cp00976448)">
   <polygon points="794.123,78.828 877.62,78.828 877.62,39.6324 794.123,39.6324" shape-rendering="crispEdges" fill="#ffffff"/>
   <polyline stroke-width="0.5" points="794.123,78.828 877.62,78.828" stroke-dasharray="16,0" stroke="#262626" stroke-linecap="square" stroke-linejoin="miter" fill="none"/>
   <polyline stroke-width="0.5" points="794.123,39.6324 877.62,39.6324" stroke-dasharray="16,0" stroke="#262626" stroke-linecap="square" stroke-linejoin="miter" fill="none"/>
   <polyline stroke-width="0.5" points="794.123,78.828 794.123,39.6324" stroke-dasharray="16,0" stroke="#262626" stroke-linecap="square" stroke-linejoin="miter" fill="none"/>
   <polyline stroke-width="0.5" points="877.62,78.828 877.62,39.6324" stroke-dasharray="16,0" stroke="#262626" stroke-linecap="square" stroke-linejoin="miter" fill="none"/>
   <polyline stroke-width="1" points="797.123,50.1805 812.123,50.1805" stroke="#000000" stroke-linecap="butt" stroke-linejoin="round" fill="none"/>
   <g font-family="FreeSans" font-style="normal" font-weight="normal" font-size="21.6" transform="translate(815.123,59.1805) rotate(-0,-0,-9)" xml:space="preserve">
    <text x="0 13 19 24 29 42 47 59 64 77 95 107 " y="-1" fill="rgb(0,0,0)">Fti = u Fmax</text>
   </g>
   <polyline stroke-width="1" points="797.123,68.2799 812.123,68.2799" stroke-dasharray="1,3,1,3,1,3,1,3" stroke="#000000" stroke-linecap="butt" stroke-linejoin="round" fill="none"/>
   <g font-family="FreeSans" font-style="normal" font-weight="normal" font-size="21.6" transform="translate(815.123,76.7799) rotate(-0,-0,-8.5)" xml:space="preserve">
    <text x="0 13 19 24 29 42 47 " y="-0" fill="rgb(0,0,0)">Fti = 1</text>
   </g>
  </g>
 </g>
</svg>
